<mxfile host="Electron" agent="Mozilla/5.0 (Windows NT 10.0; Win64; x64) AppleWebKit/537.36 (KHTML, like Gecko) draw.io/24.6.4 Chrome/124.0.6367.207 Electron/30.0.6 Safari/537.36" modified="2024-08-01T17:15:16.025Z" version="24.6.4" etag="G7ep7E_JnpW0_6bNwFdd" type="device">
  <diagram name="Seite-1" id="qEK2viFvHSEUOcjDm_R6">
    <mxGraphModel dx="2354" dy="1698" grid="0" gridSize="10" guides="1" tooltips="1" connect="1" arrows="1" fold="1" page="1" pageScale="1" pageWidth="2339" pageHeight="3300" math="0" shadow="0">
      <root>
        <mxCell id="0" />
        <mxCell id="1" parent="0" />
        <mxCell id="oSoFgmhYClItjlkkTBQM-52" value="VPC" style="sketch=1;outlineConnect=0;gradientColor=none;html=1;whiteSpace=wrap;fontSize=12;fontStyle=0;shape=mxgraph.aws4.group;grIcon=mxgraph.aws4.group_vpc;strokeColor=#879196;fillColor=none;verticalAlign=top;align=left;spacingLeft=30;fontColor=#879196;dashed=0;curveFitting=1;jiggle=2;" parent="1" vertex="1">
          <mxGeometry x="320" y="685" width="1068" height="613" as="geometry" />
        </mxCell>
        <mxCell id="oSoFgmhYClItjlkkTBQM-146" value="AWS Cloud" style="sketch=0;outlineConnect=0;gradientColor=none;html=1;whiteSpace=wrap;fontSize=12;fontStyle=0;shape=mxgraph.aws4.group;grIcon=mxgraph.aws4.group_aws_cloud;strokeColor=#AAB7B8;fillColor=none;verticalAlign=top;align=left;spacingLeft=30;fontColor=#AAB7B8;dashed=0;" parent="1" vertex="1">
          <mxGeometry x="194" y="556" width="1890" height="1430" as="geometry" />
        </mxCell>
        <mxCell id="oSoFgmhYClItjlkkTBQM-147" value="Region" style="sketch=0;outlineConnect=0;gradientColor=none;html=1;whiteSpace=wrap;fontSize=12;fontStyle=0;shape=mxgraph.aws4.group;grIcon=mxgraph.aws4.group_region;strokeColor=#B6BABF;fillColor=none;verticalAlign=top;align=left;spacingLeft=30;fontColor=#B6BABF;dashed=1;" parent="1" vertex="1">
          <mxGeometry x="242" y="625" width="1756" height="1301" as="geometry" />
        </mxCell>
        <mxCell id="oSoFgmhYClItjlkkTBQM-65" value="Subnet" style="sketch=0;outlineConnect=0;gradientColor=none;html=1;whiteSpace=wrap;fontSize=12;fontStyle=0;shape=mxgraph.aws4.group;grIcon=mxgraph.aws4.group_subnet;strokeColor=#879196;fillColor=none;verticalAlign=top;align=left;spacingLeft=30;fontColor=#879196;dashed=0;" parent="1" vertex="1">
          <mxGeometry x="1063" y="717.74" width="303" height="326.26" as="geometry" />
        </mxCell>
        <mxCell id="oSoFgmhYClItjlkkTBQM-64" value="Subnet" style="sketch=0;outlineConnect=0;gradientColor=none;html=1;whiteSpace=wrap;fontSize=12;fontStyle=0;shape=mxgraph.aws4.group;grIcon=mxgraph.aws4.group_subnet;strokeColor=#879196;fillColor=none;verticalAlign=top;align=left;spacingLeft=30;fontColor=#879196;dashed=0;" parent="1" vertex="1">
          <mxGeometry x="698.5" y="717.74" width="303" height="321.26" as="geometry" />
        </mxCell>
        <mxCell id="oSoFgmhYClItjlkkTBQM-54" value="Subnet" style="sketch=0;outlineConnect=0;gradientColor=none;html=1;whiteSpace=wrap;fontSize=12;fontStyle=0;shape=mxgraph.aws4.group;grIcon=mxgraph.aws4.group_subnet;strokeColor=#879196;fillColor=none;verticalAlign=top;align=left;spacingLeft=30;fontColor=#879196;dashed=0;" parent="1" vertex="1">
          <mxGeometry x="341" y="717.74" width="303" height="321.26" as="geometry" />
        </mxCell>
        <mxCell id="oSoFgmhYClItjlkkTBQM-49" value="" style="outlineConnect=0;dashed=0;verticalLabelPosition=bottom;verticalAlign=top;align=center;html=1;shape=mxgraph.aws3.lambda_function;fillColor=#F58534;gradientColor=none;" parent="1" vertex="1">
          <mxGeometry x="384" y="759.74" width="76.67" height="80" as="geometry" />
        </mxCell>
        <mxCell id="Q7StzuK0vUW07h8uO97d-55" value="" style="group;shadow=0;" parent="1" vertex="1" connectable="0">
          <mxGeometry x="1505" y="1106" width="256" height="257.38" as="geometry" />
        </mxCell>
        <mxCell id="Q7StzuK0vUW07h8uO97d-21" value="" style="sketch=0;points=[[0,0,0],[0.25,0,0],[0.5,0,0],[0.75,0,0],[1,0,0],[0,1,0],[0.25,1,0],[0.5,1,0],[0.75,1,0],[1,1,0],[0,0.25,0],[0,0.5,0],[0,0.75,0],[1,0.25,0],[1,0.5,0],[1,0.75,0]];outlineConnect=0;fontColor=#232F3E;fillColor=#ED7100;strokeColor=#ffffff;dashed=0;verticalLabelPosition=bottom;verticalAlign=top;align=center;html=1;fontSize=12;fontStyle=0;aspect=fixed;shape=mxgraph.aws4.resourceIcon;resIcon=mxgraph.aws4.ecr;" parent="Q7StzuK0vUW07h8uO97d-55" vertex="1">
          <mxGeometry x="166.8170426065163" y="146.51953182957385" width="72.93739781945634" height="72.93739781945634" as="geometry" />
        </mxCell>
        <mxCell id="Q7StzuK0vUW07h8uO97d-26" value="" style="outlineConnect=0;dashed=0;verticalLabelPosition=bottom;verticalAlign=top;align=center;html=1;shape=mxgraph.aws3.lambda_function;fillColor=#F58534;gradientColor=none;" parent="Q7StzuK0vUW07h8uO97d-55" vertex="1">
          <mxGeometry x="12.832080200501256" y="141.91378446115286" width="75.70927318295739" height="79.43301553884713" as="geometry" />
        </mxCell>
        <mxCell id="Q7StzuK0vUW07h8uO97d-52" value="" style="image;sketch=0;aspect=fixed;html=1;points=[];align=center;fontSize=12;image=img/lib/mscae/Docker.svg;" parent="Q7StzuK0vUW07h8uO97d-55" vertex="1">
          <mxGeometry x="64.16040100250626" y="25.51867869674182" width="108.89050477908147" height="89.28543526174828" as="geometry" />
        </mxCell>
        <mxCell id="Q7StzuK0vUW07h8uO97d-54" value="" style="rounded=1;arcSize=10;dashed=1;fillColor=none;gradientColor=none;dashPattern=8 3 1 3;strokeWidth=2;" parent="Q7StzuK0vUW07h8uO97d-55" vertex="1">
          <mxGeometry width="256.00000000000006" height="257.38000000000005" as="geometry" />
        </mxCell>
        <mxCell id="oSoFgmhYClItjlkkTBQM-129" style="edgeStyle=orthogonalEdgeStyle;rounded=0;orthogonalLoop=1;jettySize=auto;html=1;exitX=0.25;exitY=1;exitDx=0;exitDy=0;flowAnimation=1;" parent="1" source="Q7StzuK0vUW07h8uO97d-95" target="oSoFgmhYClItjlkkTBQM-14" edge="1">
          <mxGeometry relative="1" as="geometry" />
        </mxCell>
        <mxCell id="Q7StzuK0vUW07h8uO97d-95" value="" style="shape=image;aspect=fixed;image=data:image/png,UklGRj4PAABXRUJQVlA4TDEPAAAvp0IxAG+gtm0bNgWPTq+K20ZSUwtfxjuCbJuD3B+zm//4evBQsh9LclJHberow3s0EA1lOArSNmBa/7Z3LETEBLDbD6aoWpBZbm1bz+J8/08DH9EQK9IQyXvbAdMB9KAOFJPKq4TxpLIY2Xgc/9cM4n/3vv9j8Z58RP8hMW7jSHIDXQ8Dl3Rhgm/273/atuVts21f3XGekmz3wkNJyckvsou+7GtGLre2Z8oYcFIGzZRZM87FpJkyu8zMjM7F11UKQ3VhHIF1/jM+j33ft30/FNF/WZDt1m1z2LlwngORNE2AkNPv4NL13//yepUerf4th1Y8etPyZw1SuuVQU9puOdQF7vRHvWm50yUc6o+2M63hTpfbrlTAmdbbjlTElUptNwpwowgnCnGiJjNyxkVnHndY0sd2NTjjTKkdOwpQDT06juH00JEUvAJkQvmnXghaEb/q4xIJ0gUpcgUbn1sKevilS1fyVM6EWzGCXQ3asvP//O0RicQdoUOvMPw/dORQiVbozQGKaxtGOi/0qFkUqCyFfpZkJp/tcXHAOQnHqRncfmBvV4QO4n3z8lSJJ9TNGOmFTCtGedyI03cL3XNraoK95ciyQe221JtIs2DFXBYyr+CVxIQNXbF3fp9aYG5JsmxYO99Gsp9YsUCfd6liJg1aMIn00JWJAeaWJccGtkN0QplPjFikFzMAfJqy1gC/E+qdMQOsLU3+jRkmnTCDY4PvUFYpZtKXBT1PgVO3mPQTC3kybLBRCcMaG6oZZa1CsjE1py6BvVPXY2wVNL/B1Gzky9SEOxheSRQzqZEo8dvxKafG+OsaYgs3TCaSDZuwhbuYgkKykpLZHkxDja1VEV/oFsBEsjqEauINambSlBLcZmvU2NoVoo0zbiPNogVLHBMa+SRVUe3hlNSYWiX9IjWVsCNuwCz/UqaaSYeqWMhYvvuO/1iNqdUSRS675IaLlz+68f4lyrxO2Jc7PY+zfJIoJKupaHP87rjR0dPv69EJIPGA3IYsrZooMuCTsk+S5TCpTfvdSLJBPbyTWVEjzUKCM8s5d2LuR1Le2CEzSaC5Imq+dqVoy1HDqT3SMV4hPDU9bZ4DMGEibJwFhqOZ3umErkqkMfO1DRBDSkgImxrJlwUZNBmGpsR45nHxLcoFCZfJWcqvWSambYKo4h6nGEk2puVq0s3ktQwVcu0w1R5WO/FkPjNkItoVowNwtbFkDS1vkqwlDfhUC9IamDsyKP/m/f5mCaCPbJWXNvDBqYTESrKSksWQo8j4DKjkkxRlC9ObwnZlw+0OoH/scEQRQQC+dAqRmBYBr6tAvFqli3QOFRGn7xqxy1Yi9I/tXJhnpQ0wS58OZvJJqqJKfd6KpcS8RB2li0fUCP1ji3DIfDRTEX5MHrq6nWSHqthEd3qPg+c2Es0iRpXOz7Rf4QyB4pNCRNkaMmMnWQ1DWoPHme4uqCQbx7iayXpa0Ec2cJwS79MjXZI+NJRmQcN+ulyUu9jCQegRXkkgnqAD3adEVpIvC7F+zL9Dw1cDuZ3ZW0FIa3CB6bNxTJ5nImyILfQrJvSTDZHDWI4cDdsZ7zEHYQYy0WZ8hPGnMi77LdjKQTh6iXCVgPRsLFhwsdSKEa0CW/nnP4K2l436NUJ5kzp5MC6PcwN4B02JQTK0j+ksRBaJS14H2A6IaHPTUYTVFsIEq2tE5FFfzfa3MGkpm5gIG5EWrfSIQTybnTYeVZuIW2S2VxicL4Pskj6ECXNO3uBF6JlGFKLZ2iKPjWPKfOpMhKkWyoZRKj32NWt/yE8x4dKIJUA65HdFIbKlj43jSfMgZyTMtK6jXE1mhmf3DQ1MmGxxNg1IlxQlRCGa1XFKRLnCSNiLLYK8wQ/DJrI+JZBwUdQnqSyEmb7kI6mS+ZifviKxEW5aj4Ps4xM2VbqqYOLupFc8JEs/Ex9UnErGop7XnmwkrkV4JWXAg8NyB0mJcYx0CTVZ+vqDMKFkYfo3al1Bs2Qj7gkm8oKo9oSwapEMCijJVibCFj/d3zyoeOvHxtjIdQV1I6kwkRfEnLT0LSArIYfbwEQ5KPU4WBhCDDRy/UtWMhC+M75MERakmT0HZAM8i2ci7BGJTtR9sYlhRG2orfSawUcs0wbCZwCzVTLMHuJKEvbfgCRheN6gV3CkRItMpTiYGCgD0lSOGCXtmF92mdIWA+GndQPAd+EKMFAcF2HzcLu71CJ3c6PUSs7GIBlkrc8XPGnLfUqfMkVcBJgETlfmNIuSWh4uwu4J7KN7P5Mco3wPnI0BcohGOq/ll5EhG3GTPfyJfifMKwkjApvQF5L/0RUkyvmCkZHlaF7XQUhID0/ohZwj4WzN4FZEpdIBeZ2+rhgRxYiySEYU5mwVF4k7cFo4Q6i4zSBz9IXChkgGi4+NBc0FymDXraTSRaks4UwAIi784Hlts2BCVNOJgaduHJEGr2ElbivKbIZTh8W3JMRty3A/EeV6WDEWoE3ovVI0zOMiMovyhoIvE0zYCButf6mL/DKJR3xSAoh+bxMB3KzzTsFcHieDZya+BbIv04SGsojLFFqn1SyKSddDTIEfche1oXG6XQLkr8/2psxlwVrckxi+rWEYFr8NE2Zvt4an0s4aiT3CT9w2AlulLkL8+vblEzFrWSTohYsbISo9DTOwuKsxqfaYHB3LW/k5sYxhLQEGWCz+ZQki2+UTMSORh6ZhJ24RYi7TME9FptzmATaDjZTh2l7eMzJ2NmGwCfKSaLNlYyr+T/S1CBeAOYgvSPcfexyrb9NOh8W/ifEmcuyxMdyEHCxiV/JCZIX6CYddHnUUJh06ZSmTzzIrg6H4DoBfJFGX92VO6ZoyIAp7igJxmvSmFmXnf06fwiJmlsiqQDLT4GWeHVkWGLW8+AJpH/S4vJWhuAVEpDICcXFfLQvT9kOU2Q3NxzeddeYNf2XcOFjIMX4nt6tUh7RdPoppqofNrqt7mdZ0MkUbtJTTegJ8uQs4dWqI0IuE8Msbmlj3DtdAq8wq9pI67GXHtaatoFmwFLdfACnLEjfLryik0mVRhddMf9oz0I8IzBIbNrInmoog8w4XiLtktqIx1+vSPEFwWyHKitTaGnuJR0Jtl3RUAryMsZdxZyqVrsh+9g5sRU7YQ8xCuFNh0ywmWpQlL102KlXY4RkoZ8ylWbQVv41BWCWGOAR/JhTi2hBuM8oFzlzikVjbpXrMqMv+SmKNtdScrbirGYRZXoSvs64Q9wZGtYvxSUGPtjKrywnC5uSNsXxZUuAxfFvgCfqdMv8XHMKo9li0B0BHOz3aAsLtkumjsLmsBWMrJztrcW8K/B8vsHiCDpRC3CJ4mPgnhKsSewZJm1VxlGDYjJIxlSsTZyLStObhjtKAzuDdA5kDqeyUeSR1BqjrXLdLLA6b+cAhDW6Xp4m9uEUCH6cNAdDilmmN+A6Gn9wl8UohsWeQ1FkdJSJsfOqGaWx76QTvnL24O1iuUdyj4lt84AXiNqOFBNW/8DxcSJw9R4nNSnWbqYt/HTbCX/8htY9e/M3xYsnDXOjRw1xfh46Ic6vyt8CbYFyeCD17yTFNdvqjNOcvoRODEqeG3gB7lco9S0y64bKUH2Xaax+K7QppHk1AMXe/Ls65P7/8oaTijuPIyKjQoIPgcujRCNenoSOpfAmh46xnKzhkp0cS9pLkysiRwGmoCyZ/+cE/vvvHRw9eslLqGabXylIT3ZYuh7CzBPGQiko7sL25jh7GHcPVYIoksS6zPSGEfyvmjAhGgxdgoDjsQyYqCNaUimcIWaRRBgyhO+hQYeOoCKA+AMgNbKM+A9QddMg5WBQVBdALADlkOYDuoEOPF8pRkYj6AVEWSRZRRyBII0VF4wPFbIMgT33MlsdyNWNF2CsReM41XkUIuqJNzLnCOVjc72+3ADXdwUYQa5BeY4YluuB7C7GkN4AurpFjNuFthe1WIWOTieyHcQrzYQX6fWYO9jU0pdsIC/Xm5lEBb+VgUJ959ONjk/q7vltuf+DY8V3YPnrwbNrLuStD+D/mJu22Jp0Z95xCY4o7D/4ywe5VfLnIzXqjvwtwpJ6D7Vv5cqBXyxVLLeFw3JiB/hT3yMrXrX1DDmtbQuEmh5VV0jfzJetpZQNKs2BKXxyG4bM2kpZcBtaSjq8YjKySXpWMxC+RMieBhx544Pk94d35DDZWy1R+OrhtJ7V5UVKHr1lqkXtJRt4JyvUZbKyIQqveiFwEO5PXTA3KlMvt/AsJxcQCOK1kS75W59+3WoDbihQoJlbJVpWSFdiMwED+7WsFuJrAEsViTwxhtBLfze+/zAdtHqES3PMJQ41jQxitpJr/bJLfOtNMAdwSj6EVTuKwlgEUxdfCQuQSQid3wYh4QM4OK1/OdWhWLQTZKb8vv1MZwAtYvPMi0dZp2W2FxXyUwl83jUjXkjCmQJo458rc0VEM3wOvEfnT4QKHzVZ6Ycr21OBmOvDHSma0D1VscZp20bZB30SsCO6Li3axxsM5RX7Prcu1IoSJ0GboAA6B8VtqmGcYUeT38/c1uabEpO0q6sC4SKUd/O1iQx7MqcSy90/SmlzTYtJ2gD4VahKT7wb5XC5vG9H0Usb+6RquIG4r0PDrlYThpQdf+GBveO7AE+eX8G/Fru3UfAQ9HYZmATpfGDAljin4Y2KzNn9nzo1By/t7AOGVxPZs8cKcgj0mNmzbInm0CmHM2RK5NnvqZs6mSF/PAPwhYWs1oplZ3lO3p8/X5Brj6IoJKpHmraljiWa4t2LZ/GA1k2gmAeTvQy7foZ8kInH2xrSGXbQVW4mJNeig2xNGzWhafSFzgJQPi8OFqjFNu2h7242k5UM40Q/Esb6GpW3V5kdtIfj/E+kwM/p2x8CJ1wL/fjqf9AXFSG1h38TrJ9KbLxV1GBqzpX8xrC69leOgFrNfYrY0Vzst5RvHdVgae5UGbzgR3m+41h+0D+19K9IiM+AY3sij4qjIj+JW1HnrnBXfqn4u8EOFZRub3Xd3iGU91SD1rcP0y8b2paRtjZ2vvhukbr0Ky19ite7pFx58QVhWn8kdCX+T+P/deTpwxdg0rnEHy4nmLQgbhtYfq2lInVfFiNV7VNQxsf/WmD11c1+b6HtwjZi+C8H6EKwTQXoR9Fa8SCXqxzVGfTe2Zf3YlnQldX1JXWeyrDdZ1p041BDHC/25Lm6E4FDawaXrv//1q6wCAA==;rotation=-90;" parent="1" vertex="1">
          <mxGeometry x="-68" y="1111.26" width="366.57" height="106.74" as="geometry" />
        </mxCell>
        <mxCell id="Q7StzuK0vUW07h8uO97d-114" value="" style="shape=image;aspect=fixed;image=data:image/png,iVBORw0KGgoAAAANSUhEUgAABLAAAAIQCAYAAACR7ZcbAAAAAXNSR0IArs4c6QAAIABJREFUeF7s3QmcTfX/x/GPfVfZQgtttAgVEi0UrUiL0qYkql+LRGlDSElFJbSoSEmLrIn2lBRRijYtlkrZl5Td///+ns64M3Nn7rl37p17Z+b1fTx6yMz3nvM9z3NmzH3P9/v5Ftq9e/duoyGAAAIIIIAAAggggAACCCCAAAIIIJCiAoUIsFL0zjAsBBBAAAEEEEAAAQQQQAABBBBAAAEnQIDFg4AAAggggAACCCCAAAIIIIAAAgggkNICBFgpfXsYHAIIIIAAAggggAACCCCAAAIIIIAAARbPAAIIIIAAAggggAACCCCAAAIIIIBASgsQYKX07WFwCCCAAAIIIIAAAggggAACCCCAAAIEWDwDCCCAAAIIIIAAAggggAACCCCAAAIpLUCAldK3h8EhgAACCCCAAAIIIIAAAggggAACCBBg8QwggAACCCCAAAIIIIAAAggggAACCKS0AAFWSt8eBocAAggggAACCCCAAAIIIIAAAgggQIDFM4AAAggggAACcRfYsGGDLVq0KO241atXt5o1awY6z6pVq2zx4sVpfWvUqGH77bdf2Nf++OOPtnr16rCfK1++vOm15cqVS/f5Xbt22cKFC+3vv/92H49mbBlP9NNPP9nKlSvdhytUqGCHH354prH88MMPtmbNGvfxqlWr2sEHH2w7duywjz/+2DZt2uQ+ftJJJ9k+++wTyCdZnXRfZs+e7U5fsmRJO+WUU6xEiRIJHc7GjRvdvVIrW7as1a1bN6Hn4+AIIIAAAgggkLoCBFipe28YGQIIIIAAAnlWYODAgfb666+njb9evXr25JNPWrFixSJe0z333GPTp09P63fGGWdY//79rXDhwplee+utt9rMmTOzPGahQoVcOHT99dfbYYcd5vr9888/1rlzZ1OwpNauXTvr2bNnxHGF63D33XfbjBkz3KcaNWpkw4cPz9TtlltusU8++cR9vE2bNta7d28Xnl111VW2ZMkS9/Gnn37ajj322KjHoFBp2bJl7nUVK1YMHBJGfSIz+/TTT+3mm292L61cubK98MIL7s9Etjlz5tj//vc/dwoFf6+++moiT8exEUAAAQQQQCCFBQiwUvjmMDQEEEAAAQTyosD69evtnHPOsa1bt6YNX7OTnn32WTvggAOyvSTNplLIs23btrR+es2YMWPcDJyMLVKA5fevUqWKjR071vbee+98FWC99tpr9uCDD7rLPOuss1zQl6hGgJUoWY6LAAIIIIAAAkEECLCCKNEHAQQQQAABBAILvPPOO3bnnXem66+ZUH379rWzzz472+OMGzfOHn744UyvHTFihDVo0CDbAEtLATXTS+3ff/+15cuX29KlS91yPTXNxBoyZEhKBFgK95577jnTDCq1jh07Rgz3wsFpRtKgQYPcpxIdYP3888/20ksvuXNpWaZmsYULFQM/KAE6MgMrABJdEEAAAQQQKCACBFgF5EZzmQgggAACCOSWQL9+/Wzy5MmZTqf6RQptsmrbt283zajy6yyF9jv++ONt2LBhmV4aOgPLX56nTqpzpaWCmp301ltvudftu+++Nn78ePe5ZC8hVKj22WefpdXhOuGEE2yvvfZKu761a9fapEmT7Pvvv7d169bZgQceaI0bN7ZmzZpZ0aJFXT/V/5o6daqbWaYmIy2VVJCnGW9+Uy0ymX755ZduZlv9+vVN58u4ZHHLli2un8I1neO0005zywbfe+89q1WrlrVs2dLmzp3rDqvaV02bNrXixYunnWf37t1uqeS8efNsxYoVLpBTn2OOOSbsLVe/r776ylRHrFSpUla7dm1r3bq1lS5dOq0/AVZufdVyHgQQQAABBFJfgAAr9e8RI0QAAQQQQCDPCCgcUpD0559/ujF37drV1b5SKKJZWC+//LIdeuihYa9Hhc4vueQSU3ijpllJWjqosEevfeONNzLNUsoqwPJPoHBn8ODB7q8qkq6/lylTJukBVlY1sBQCqabWE088kWboX4sMFPJomeBBBx1kqg3mF4cPBe3WrZtddtllrkC86lTJXOFUaCtSpIhb5tmlSxdXWF5NoZPqcumYqlXWoUMHGzVqlO3cudPd0xYtWmRZA+vrr792M8EUuIU2jfm4444z1TXbf//93ad+//13N8tORewzNgVj1113nV1++eXunhNg5ZkvfQaKAAIIIIBAwgUIsBJOzAkQQAABBBAoOAIfffSRde/e3V2wCnxriZtmO2mWjZqCFQUs4drEiRPtvvvuc5/SLCIFX1dffXXaLoMKqy699NJ0L40UYA0dOtRGjx7tXqNZSQpzNNsnETOwdHztzJexzZo1K22nwkhF3FVYXmPT7DE1BU0qXq/ZaX47+uijnY2OlVWAJScFSqqRlV0LXXYYGmDpNQqQFKipZRdgKWBUGBZuLP65TzzxRHv00UfdX0ML34cbm86rDQC0gyQBVsH53sGVIoAAAgggEEmAACuSEJ9HAAEEEEAAgUACmqmjWTv+7n7nn3++3XHHHa721ZtvvumOccQRR7jwRbOgQptCkIsuuihtRz2FONdcc43bgU5LzdQUgqiGlQIOv4UGWKqRdfHFF7tPaamcajYpCNm4cWPauTWjSLPBEhFgBUGKFGBNmTLFtARTwZGW58lNSwu1DLJPnz7uFCpIr6WY6qPQT8Xx1VTjSx6aabZ582a78sor08I/BVWa3aYw7O2333a1rHS/dA7dDy3vzBhgKTzT7CktX5StlvZl3IWwUqVK9thjj9mLL77oxqCx3njjjW43RC1HlLdm5WlGl66hZMmSduqpp7r7o3MrzNJSRs260ywt1S1T03Nz4YUXEmAFeajogwACCCCAQAERIMAqIDeay0QAAQQQQCDRApplpaVfCqMUlNx///1u2dn7779vt99+uzu9AgzNgsq4G6FqISmwUtMyMoUqmmkUOitLode7777rwhC/Bd2FUONRkKYgR7ObEhFgKVjTeTI2BTihM5l69+7tal9pud6SJUtc96efftoFOaG7CurjGm+7du3skEMOsb/++svVplKwpHpe+v+sirhrGaLCIT9Umj59ejo3LdP74osv3OfPPPNMN/MtY4DVqlUr69WrlzufWrhdCFXMXbPkVI9LrX379tajRw/3/3oOFKL5odSAAQNcIKZQUa18+fJ2+umnOzOFjBrTsmXL3Od0f6699loCrER/0XJ8BBBAAAEE8pAAAVYeulkMFQEEEEAAgVQWUJjy0EMPubBGIZTqL2kpoAKjtm3bup0B1VTb6oYbbkh3KY8//rjrr1atWjV76qmn3EwiBT3nnXdeWg0nv76T/+IgAZaCEoUsCtfUEhVgHXbYYW72UcamMO67775zH440A2v+/PnuGJqhFNo0s+nggw92xdc1k0rLINWyCrBU98sv7q7lfQrvQtvw4cPTCuprhpWK26tumV8DS339UM1/XbgAS+FTp06d7LfffnPd7rrrLtPMO79p6aMf3ilwU3/NDtMsMBWxVz0szb7Sbox+P72WACuVv9IZGwIIIIAAAskRIMBKjjtnRQABBBBAIN8JKHhRKBGpadaOZgQp5FLTDCWFWtotL1JTkBM6myg0wNpvv/3cUjc1zRqqWLGim7l08sknp9stL1EBVqNGjUzBUMZ2yy23uN351CIFWApxFEqpbpdqSmmZX8amXQQV+GlJX1YBlpbgabaamuphySm0aWmfCsWryUlLF3W+0ABrwoQJ6WbKhQuwFFApwFIApaYAs3nz5lneRs3K0sww7WzoN83K0+w63Rc/5CTAivSVwOcRQAABBBDIfQH9YtGv0xmPs+tnwdBdmCMdkwArkhCfRwABBBBAAIGIAlrepplSGWcOZfXC0KBDS8xU/yq0UHl2J9TsLC1FU4tUxD3ccVI5wPLHu3LlSlf4XjOyFAouXrw4LczSTKYRI0bYMccck2WAFRpQNW3a1NWpCm3yf+WVV9yHtFTz+eefz7SEcPLkyW4Gnd/CBVgKCjW7zZ+Bddttt6XVIVMYp50G/RpkDRs2tF9++cXV0dLnFFppmWCdOnXckkjtTPjBBx+40xFgRfySowMCCCCAAAK5KqCfTfTzh0oOhM6ajnUQKr2g8Er1U4866qhAhyHACsREJwQQQAABBBDITkA7zPmFvLW8LTT40Os0y+qPP/5wBdTVVF9JRcn1w8u9995rU6dOdR9XqFG1atV0p9JrVRvJn42kGT/XX3+96xOPAEtL7PzjZbxGfyZXuNpW6hu6o148ZmD179/fhVZqV1xxRdpyPAVY+gHPD/lU8FzLMkNnYKmelOqOqam+lZZpykzGmtGlAvr6/9WrV7vQSfdDzV/SmbEGVpAAS7PpVLvs+++/d8dq2bKlq6clN83oUqjp/6ZWz4d2qXzmmWdc38aNG7udCRXI6bpUL8uvpUWAxfcbBBBAAAEEUktg7ty5buOYeIRXoVem2fP6dz9II8AKokQfBBBAAAEEEMhSQDNstExNNZTUVBRcS9hCm37YUegya9Ys92HVXVKNJtVDUpjlBzOqU+UXc/dfrwCrS5cubkaSmoKYMWPGuP+PR4ClwE1BTLimHf+086HqcYVr8Q6wHnnkEVfkXk1j0nUffvjhbnmllvxpCZ7CIdXVyjgDS7XD5KeZTprRpNlNfrCk69Duf9r5T0X1/RlTlStXdiGYzhVLgKXXh872UoF9nf/II490s6m0E6SarkEhmnY/1PJHNb1Wz4TOrR+ItWuh7rWaH1LOmTPH7USpphpgGisNAQQQQAABBHJfQL9M04zuoDPmg45QtTPPOOOMQN0JsAIx0QkBBBBAAAEEshKYN2+eWxbmz67SzKrWrVtn6q7aVQos1DQTaOTIkS708nfLU/ihsEgzczK20N359Fotf1OgEY8AK7s7q9lgCl5UJypci3eA9e2337qZU5s2bcpyWFpyp5lLe++9t9ulT/1DfxvqF7rXToRalrdu3bqwx1KYpfpcWr6pFmuApWWjCh1VqD7cb2U1Ts0sUwH6H374wYVyCi4zNtX08mdrKQTt16+fm0lGgMX3HgQQQAABBFJD4PPPP7cFCxaErdEZ7Qg1u/2ggw5yOxIHbQRYQaXohwACCCCAAAJhBRREaUaQ37QcMOMyQH1OAVeLFi3SCnU3a9bMBUPaAU9NQYdm2FSoUCHTebZs2WKnnXZaWkjmF0NXzSW/bpKW1PkBWXa3KmMNrOz6RgqwdD4Fc2oKaIYOHZrpcAqUVAtKzR+jiqBq6d6vv/7qPi5DFWdXAKSZZlpWqbAntGnm1dlnn+0Cq0qVKrlPaYmgluSphpW/xNIPsHQszYDSbLglS5akO5ZmZCncqlWrllvCp+bvQqglhmoq7K5ZXX7TDKmbbrrJ/VWzpzQLzh+HdhLU8sUPP/ww3XkOOOAA046INWvWdKGlmorLK5zywyoFl5o5pkKu/nOk48pEyxz9AEu7PPqz07K7Z3wOAQQQQAABBPKnAAFW/ryvXBUCCCCAAAII5GEBhVFa5rd06VI3VV9Bn8I0LQ30g6DQy9OMpvXr15t+m6kgUMsi/aYgS0X2FZbp/xUqKZjyg6t4Min8UlimwLFGjRqmnSHD1Q/TrDCNR7O39NtXXRcNAQQQQAABBBDIToAAi+cDAQQQQAABBBBAAAEEEEAAAQQQQCBbAc3O1mxr1eTMadMv5OrVq+dmpAdtBFhBpeiHAAIIIIAAAggggAACCCCAAAIIFEABbSgzbNiwuNS/CuVT3UvtWhykEWAFUaIPAggggAACCCCAAAIIIIAAAgggUEAF5s6d63YNDrdhS05IGjVq5HYfDtIIsIIo0QcBBBBAAAEEEEAAAQQQQAABBBAooAIbN250OzNr12F/45icUGgJ4f77729XX321Va9ePdChCLACMdEJAQQQQAABBBBAAAEEEEAAAQQQQCBZAgRYyZLnvAgggAACCCCAAAIIIIAAAggggAACgQQIsAIx0QkBBBBAAAEEEEAAAQQQQAABBBAouALr1q0zLSWMVx2s0qVLW5UqVQKDEmAFpqIjAggggAACCCCAAAIIIIAAAgggUPAEVqxYYcOHD7dVq1bFLcAqW7asdejQwerVqxcIlAArEBOdEEAAAQQQQAABBBBAAAEEEEAAgYIpkKhdCBs0aGCdO3cOhEqAFYiJTggggAACCCCAAAIIIIAAAggggEDBFPjpp5/s0Ucfte3bt8cVoF27dtaiRYtAxyTACsREJwQQQAABBBBAAAEEEEAAAQQQQKDgCsyfP9++/fZb27VrV44RChUqZAceeKCdcsopgY9FgBWYio4IIIAAAggggAACCCCAAAIIIIAAAskQIMBKhjrnRAABBBBAAAEEEEAAAQQQQAABBBAILECAFZiKjggggAACCCCAAAIIIIAAAggggAACyRAgwEqGOudEAAEEEEAAAQQQQAABBBBAAAEEEAgsQIAVmIqOCCCAAAIIIIAAAggggAACCCCAAALJECDASoY650QAAQQQQAABBBBAAAEEEEAAAQQQCCxAgBWYio4IIIAAAggggAACCCCAAAIIIIAAAskQIMBKhjrnRAABBBBAAAEEEEAAAQQQQAABBBAILECAFZiKjggggAACCCCAAAIIIIAAAggggAACyRAgwEqGOudEAAEEEEAAAQQQQAABBBBAAAEEEAgsQIAVmIqOCCCAAAIIIIAAAggggAACCCCAAALJECDASoY650QAAQQQQAABBBBAAAEEEEAAAQQQCCxAgBWYio4IIIAAAggggAACCCCAAAIIIIAAAskQIMBKhjrnRAABBBBAAAEEEEAAAQQQQAABBBAILECAFZiKjggggAACCCCAAAIIIIAAAggggAACyRAgwEqGOudEAAEEEEAAAQQQQAABBBBAAAEEEAgsQIAVgWr37t22Y8eOwKC52bFIkSJWuHDhbE+5a9cu27lzZ24OK/C5GH9gqoR0DOK/bZvZlq1mu3cnZAgxH7RQIbNSpcyKFc3+EKn8/BctWtQK6UJoCCCAAAIIIIAAAggggAACEQUIsLIhUni1bds205+p2ooXL55liMX4E3vXFD7IP6sQQv5bt25N7CBycPRI49+23WztuhycIMEvVfZTYZ+sQyyFV/r6TdUWyT9Vx824EEAAAQQQQAABBBBAAIFkCBBgZaOuN796E5zKTW+CS5QoEXaIjD/xd04z4BRihWt5wT+78a9ea5aikw/TuEsUN9tn7/D3WeFhKofPGrVmwRUrVizxDypnQAABBBBAAAEEEEAAAQTyuAABVh4PsDT8kiVLhr2KvPAGPrsAjvEn/rtLdv5/rUq9pYMZRbSEsGKF8E5btmxJPGAOz5BdgJjDQ/NyBBBAAAEEEEAAAQQQQCBfCRBgEWAl9YEmwEoqv1v+mNUMPgKsxN8bAqzEG3MGBBBAAAEEEEAAAQQQyB8CBFgEWEl9kgmwkspPgJVcfle/LqslqEkeGqdHAAEEEEAAAQQQQAABBFJKgACLACupDyQBVlL5CbCSy0+AlWR/To8AAggggAACCCCAAAJ5RyBhAZaKJ+8IUAE6lbeSzwtFuPWoUQMreV9w+TmAYwlh4p8rZmAl3pgzIIAAAggggED+E1i/0ez3P822bDOrtI9Zjf2yvsYffzUrWsTs4AOjd/j8K7NvfzI7/USz/aoGe/2WrWavvGlW6yCzE47J+jW7dputWeddx86dZpUrmh1YPXP/f7eY/brcbMdO7zr3Kpe5j/Yd+3OV2e9/mRUvZlalolm1Kun7bd9utmKl2co1ZqVLmx1YzaxsmWDXlEq9Nv5t9tufZnKpuLdZzf2zHt0vyz3bQw40K1w4uquYv9Bswfdmp51gdmA2z1fGo45+w6xGdbNmjbM+3+7dZmvXe/dr6zbvfoV7hlXS99ffzLQ7/AHVzSrsFf7e/7XGe46KFPGOtd++WZ9bfosWmx20v1nVytGZpELvhAVYf/75pz300EOWXSFl1d7p3r277bdfFE9ELqrFEmCtXr3avvjiCzvttNNybXexeARYChy//fZb++qrr+yAAw6wxo0b58rSpngGQL/++qt9+umnbudIjf+www5L+NMSzfjHjh1rL774otWrV88GDBjgZt+EtrVr11rHjh1d8Hv44Yfbd999F3H8PXr0sOOPP94uuuiidDvuaVy6/iZNmthZZ51l5cqF+ZfOLGEzsP7+e5N1v/UaF67efc+DVqVKwH/xI15x+g6JKuL+zz//WM+ePe3nn3+2Xr162QknnJDuxFOnTrURI0ZYnz59rFGjRvbkk0/ae++9Z4MGDbKDDjoo8FUQYAWmoiMCCCCAAAIIIOAE3vrQ7L5h3m7Zu82scCGzBkebDeiROdzZtNnswhvMDj3Q7Im++tk3OsT7h5u9McNs8N1mJzcK9loFE2d2NGtzmtk9N2b9mideMHtxktnuXXuuo00Lsx6dvRBK7YefzW7oY6brUCtcxOySVmY3X7XnuApybulvtuA7M4ViukRdZ/drzNqd7fXb9LfZ9b3NflryX59CZtrNu183s2bHB7uuVOj16TyzOx8yU0jo3/vDDzZ7+G4vyAxtcrm6p1nxomYj7jMrXSq6K3hslNmYCWb39zA7/aTgr210nvesPHxn1q/RcYe/ZLZr557raN7YrPfNZqX+259t+R9mN/Q2+2utuU5669jqVLO7b9hzXAVb9zxiNnNO+nt/7SVmV10Y/nm/+xGzdz4x697J7OJWwa8rVXomLMBas2aNvfDCC6ad5DI2BQ1qenN7xx13WLVq1VLFI904og2wFDzcf//9NmvWLBs/fryVLVs2V64rpwHW/PnzrX///rZq1SoXqigAKl26tHXu3NnatWuX0GuIJgDKaiCbNm2ywYMH2/vvv+/GX6RIERecnnHGGS58SGSLZvybN2+26667zlasWGEDBw60Bg0apBvayJEjbfTo0S5wKlWqlH3//fdpn9drFHAdeOCB6cIoBV5HHnmknX322e7jhxxyiHuNvu7++OMP27hxo3vNrbfeascdd1wmikQUcd+0aYM9OLCXPTtyqFWqVMWmTJ1lNQ86NCG3IVEB1o8//ujulb4HKAx9+OGH041fX99DhgyxBx980Jo2beqev7ffftuGDh0aVXBKgJWQx4KDIoAAAggggEA+FfjsS7PbH/Qu7twWZvpZcOZcs6W/m11+rlnXjt7nFNgsX2H25odmr79lduyRZsP7p06A9dxrZk+/bFZhb7NzmnszxN78wOzP1WY3XWl2RVuzf/41u7KHNwOnZVNvhs57s73r6nGN2YVnedfa93Gzqe+bHXGo2ckNzTZs8kI3hVmP3GXWsK7Zjb3N5i3yZoQdXdtMs9JmzTPbu7zZ+OHRhzvJeLy+XGTW7T6znbu8cLBkCbPZ881+XGJ2bkuzXv+FhZv/8Yzem2X20mRv5t3TA6K/xkefN3txYvwDrFemmunY5cqYtT7NrHRJs7dmes9wxwvN/ne5N7usU0/v2hQwHlrT7JMvzL7/2ezGK7xwSm3Q097zffABZqee4L1u4rvenwre9DG/adaXzv3wSO8jeobat07GnczZORMWYGU1rL/++svNWlA78cQT7fLLLw9B3e3CE72pzjg7JfR46qMZQ+qjvlk19VEL7aPXqmV3fP94QQOs7du3m0K5iRMn2rRp09yubpECLI0t49g1tiDjyni9OQmwdI2tW7d2gcedd95pLVq0sBkzZrg37BrfO++8E3ZM8Rp/NAFQVvd5woQJ9sgjj7ggQUGcrunGG2+0n376yV2HAoiMLVnjnz59upt9Vbt2bXv66afTbBX4ahbVzp073Syt/fdPPxf2scces9dee83Nasw4G0ghlQIsfVyf95uONXz4cHv99dfd14ucKlasmI4ingHW1wvm2bhxz9s7b0+1335b6s6TMcDyv/503nBflxk/HunbW6ICLN0j3atixYq550n2oUE7AVakO8PnEUAAAQQQQACB+AvoTf3XP5i9MNjsiIO94y/7w+z86703+eMe8z52+a3em32/NTw6PgGWQiUt+VLwE/o2VEsaFUJpSV6kGViaTXV6B7Pixc0mPmm2z3/Lwr7+3psxpJlE00eZjXzF7MmxZi2amA3s6V2JrumK7mb7VzV7Y4S3HPCcTt7SsglPmpUp7fV7/1Mv6Kt9iFm3q8yu62XWqJ7Z8H57TDSTSTNxNDtJPqnebh9o9v5ss8f7mDU51hutlk22usZb4vfGcO9jMpSl3w4/JD4BlkIhzfzKeO8VGBYpvGc5ZnYzsPT8aEagnoFXh+5Z5vnDL2aXdfOehXdeMBs3xQuaTmpgNvge71nTMtKLbjKrWsls8jNmazTT7ypvPBNGmJX7b+6Mgi7NyNMS0inP7HHQEsMrbzP7e7O3HJUAK8ATrxlKjz/+uP3www927LHH2jXXXONmy+jN9TfffOOW3q1fv94FQHoDrzClTJk9C3PXrVvnZjmsXLnSvdHfe++97eSTT7aDD/a+e+ljWqalv+u4CxcudIGYwgIts9LyssWLF7t+ejOqN/06V1YtaIClmT+9e/dOO4zGnDHA+vzzz23evHnWvn17N1NIy8OqV69uzZs3typVqrg3yArBFDCceeaZbsxBW04CrM8++8y0DK1Dhw7WpUuXtFNqJskrr7xizz77rBvL7Nmz7csvv3Qhi8ave6h7pPFXqlTJXn31VTf+ypUru/HXqlUr0PBzGmDp2dEssX///ddeeukl90yoKSjVbDiNr23btm5W3IIFC+zCCy9049dzoKWSp556qu2zzz5u/EuXLnXj1wyoQw8NNmMo2vHra0DhiIJBeV9xxRVutthtt93mvgbuvvtuO/300zPZxRJg+QfxX3vVVVe5r7nQFs8Aa+xLz7plg6EtNMBatvQXu//+u92nT2hyinXocK0LsbZv32b9+91uK1f+ZfXrN7Drru8e6NlRp0QEWJqJePHFF7tlnLoXCkEzfn0QYAW+RXREAAGhgegDAAAgAElEQVQEEEAAAQTiIqBaRlpOpwBJQYy/1Gr1Ou+NfM39zF7/L8TQbCaFOwqTxk83q3d4fAKsOwaZvTvLbOrI9PWDTrzIrPbBZs8OjBxgLfnNrP3NZnUPN3v6/j00mmdxwoVm+nPmOLNr7jT7eZnZa0+YHRCyYKnDrWbf/mw29lHvXDfe681G63XTnmMpoGhyoVn5st6Ss0efM7vyArPzz9jT5/4RZm9MN3usl1nT9AtD4nK/4nkQmWjpm5bVKdBRnSe1dRvNWl7h1Xya9LT3sekfma1Y5YVEur79q8UnwOr7mNmU980mPuUFiH47+WKvDtcLj3gfyS7AUg2yDt3N9q1k9vxD3nsZNV2f7pdml+neK3ycs8B7PvTs+s0P50Y/ZLZ9h/eMqD7b/bft6aOvEz1Hmssz+3WzokW9WXk39TFbuc7s4nPMho0hwIr4fOqN+/PPP+9CKi11uuuuu6xChQrudXPnznVLpzT7SMvuNKNJy8IURGnpkwq9qyaN6ssomChfvrzrqz76s2vXrm7plAKnm27yvnI1c0JBkoINfVzBhGa56PiabaTQoGXLli7QyKoFDbA0XgVvavfcc48tWbIkU4D11FNP2ZgxY9w49Qa5ePHipkBO4ZVCGF2Llo1t2LDBXe9zzz3nApYgLScBlpYPamaOwg1/+Zmu595777WPP/7YBTtVq1a1YcOG2csvv+zq+2gpm8ao8SuEk5Puj8ah8es6tBxOn4vUog2AMh5Ps6w0dgUMl156qWmZnjw1lr322ittlo8f4tSsWdON2x+/jPUaPQ8KMzV+vU6zo/bdN5vqd/8NJJbx6/5fe+217ghy1XI1zUps2LChW1qo8DVjy0mA9fXXX1u3bt3cEkIteQud+RTPAGvlXyvsx8Ve3a7nnh1qb02bmG4GlsLkY+vvb3/9tcIaNDjBJk6eaUWKFLVVK/+0BsfVcF/3/e971Dpdc3Okxybt84kIsBROPfrooy5UrF+/vltKqDp9Ct/1bKsRYAW+RXREAAEEEEAAAQQSIqAC6JpN8tTLZu/MMmvfyqv7FNo0a+Wq28yOPDQ+AVbPB83e+9Sb2RJaJL1pOy/Aeu7ByAGW6hZpJpVmzvhF2xU2fPiZ2W0DvaWCCsIuvcWb2fPaMG+5nN+GjjIbPcHswdvNTjjWbPESL8Cp5L21dkXLx001G/KcWcN6ZiNCZl1pBpFCr4U/mt33hJl+tNXMJX/mVkJulJl99NFH7r2t3ktmt4Iq6Pl1Dbr3qiGm5ZKtTzXr0zX9q7Uh1dV3eLOa4rGEsM+j3jJPzXQLDRRPUoC1n9mYwd75swuwVLfth1+9ZYMKvfxZfFoaqyBSGwUomOx8p5mC2TGPeGGX3559xWzEWLN7u5qd1sRbCqoZWfv+V4xdQdjEt80UTmr23UuD/1tK+ozZ+Blm/buZFS1sdtuDBFgRn7UPPvjAhSEKnxRK+eGAwpD77rvPvV5vFGvUqGF///23m/2jN97nnnuumxGjgEszqFTXSMGTP8Nq1KhRbtaNah3pYwqw9EVxySWX2DHHHOMKkys4UzvvvPPccjLVBlLRZYUZGktWLWiAFfr6m2++2c1OyjgDyw+wdM5+/fo5B4UVmgGlEEv/r9lXWu6lmUQKkDQ7KEjLSYAVevxffvnFdJ9Ue0kzxjR7SeOQpx9gaWaVZpspCNRyPc0q073U+DWTSSGXrkGzn7SkL1KLJQAKPaaWbOpcmtmmsahWlIIShaOamXXBBRe47n4ApHpRmuWkGl+6Ds16UkCn8es5Ut22yZMnu1k3GWtUhbuWWMavgE1fC0888YQr9q8A67fffjM9I0cccURYspwEWDq2Zl5pxlzoskWdKJ4BVujAe/fqZs88/WimJYR97+1hT454xEqXLmNfLvjdypffy556crDd26e7lStX3sZP+MCOPvq/OcGRHp4EzMDS7EwVb9fsTS2/VAir5aianafZiKonpkaAFeDm0AUBBBBAAAEEEEigQJe7vMLlmrWiAOa5gWaH1Eh/wlQMsDKSaPyqY/Tsq14o0/cWb3aWZuqUL2f24mCv4LrfVJdJNZRU7F2hXWhTQDLsRbOXp3gz1GRyUMicCC3B6zPE7N//ylRf2sas29XR1waL9rZ+8skn7j2iJh7oF8Q5bTf39WYoaaaZ2vODvNpeoS0VA6yM163Aacp7Zk+P8wKr27p49c463eHNNBw1yKxiSHH6Se+Y9X/C7PrLzDpdlOHe7/SeoTETzYoU8mZvKVTVTpq3PWDW9P/LId97i9mnXxBgRXz+tFxLb8D15lAzZUJr+MycOdMFNlrOp7DKbwq2NEtLoY7+VNCkgOSBBx5Il9qqeLICI73p1Bt0BVh+OKRAS/WBNJNCs75UH0hv2DXbRiGGZmj17ds3yxQ4EQGWwis/mFKtIwVpKmTfqpX33Uch3e233+7eNCuUCdLiFWBpFzUVptZsKl27AkUtGdRsMT/AUlikZZtqCg8100rhoYJFNaXrstXukgoMI7VYAqDQYyow09jUtLufbDVL780333QzqzRrpm7dumkBll90W/2feeYZF4yG3hMZaDaUrkHBaaQW6/gVsmnmoJZlahahlhOG1oPLeN6cBFjaGfPKK690oZ4/09E/fm4HWB/PfM8uv+wc27Ztqw166Em77PLO1uzkOrZ48XdWq9aRNv3tuVaq1H+L9yPhJyDA0gw8LR/U9xIFivoeogBc4ZUMtbGBGgFWgJtDFwQQQAABBBBAIIECmg3z81KzeQvNFi32gpoXHt6ztFCnTuUASzOlflrqzZT64hsvqLi0tdnlbb0wQwGWZg+Nfjh9gPX8694SsLuuNzv/TA9YwdVnX3lFvbVMrXoVL5hqlqEUsIqbv/2xd171//dfb6dE7W4XTdPqKq1uCtqUA+g9m37WVv3lk046yU0oiLXpGlQ36stvvXpXWtKnmUuhOw2mcoCl4EpLSYe+YPbxXO8+n9fSrHN7r3h/pzvN/n9RlAvmVOjfb69PMxv4lNktV5ld/t9bbd17OTz8jNkvy70ZW/+7zOzs5ma/rTC75BZvuatmc2km3wefEmBl+9wpTNByHC3bUqCh2VOhhcr1RlD1gDRzSbNjQpuCHAVQ+lPBg+pm+Uuv/H56vepiderUyaW5CrCOOuoodzw1f1mhpisqKFLTEkIFFFoOpPAiq2mMiQiwxo0bl1age9KkSS5UGzFihB19tFc5T7WmFLhdf/31dtlllwX6mo5XgKXllvpGpHule6bleVdffbV74+4HWJo55C8N9N/E+3WyNFgtO1QxeIUzQXYwjDUA8mH8EFD1ihTy+DXT/CBQs/BUz8sPgEKLceteaBaUjqGZcWp+PTMFovrmGqnlZPyaHailfarHpnFkt2tlTgKs5cuXu+BFXwO6j6Fff7kdYK1ds9qanVLHVq36yw477HAb9cJka3qCVy+tV+9B9r8bQhZwR8JPQIClpbv6T8G5vNQUpmt2okJwLbfV1xsBVoCbQxcEEEAAAQQQQCDOAv/tx2WFC+85sHadu+U+M+1Sp2V1p4UsAokmwPp0vpmO1fLEPcceMMxswttmg+82O7mRWVZLCLVsrE6tYEsI/aNrF8KXJpn9s8ULGzpe4C0rU9v4t9klXb0aSeMeT7+E8KGnzV55c8+Y1PeBEWYz55hpeeI1F5tdcMaeJYVanqj/Qs3kqNDsf73NKuxj9vao6G7UsmXL3PuraJreg6tkiN6LZJzUEuQ44e69Cqv3eMCbZdS3q9k5IUFcNAGWwjztXNmi6Z7ZaBl3IcxqCeHx55vVqhlsCWHae9iJZs++5s24006BCq4O/W/2oK5Jta20TFLhpV/vS68d9oLZ8+PNHuhh1vIkb7fBR0aaTZ/pzdi67FxvVp4CK7URL3mzsrRL4UH/PVva6VKB76EHestVVcI4dJlikHuRzD4J3YVQM3m0ZEkFy1V/R2GIag+FNoUImrWjwEMhRGhTcKXlhJrNo/pXjRo1ckFVaHvjjTfcrnkKfBSAKcDSufyC5H6ApXpaCiXUkhlgaXmaX/vLD7Bk5Id3uR1gafmaQsI6deq4N+Z+k7tmhWl5ne6RH2BNmTLFzYRT89/Ea1aPXz8rtwOsd9991y1z1LOl//ymZXoKoPQNUqGDAiKFV1OnTk0r9K5lqgq3NIvLrzeWmwGWlvbpudWyWc0k1Ey3rFpOAizNKlNQq00RVKMtUTWwQsee1RJC9bm12zX28thnXfdbu/eywY/0tzJlytq8L5fbXnuF/IohwHfGeNbA0ow9f9Zgxvpt+m2Rapf5s/UIsALcHLoggAACCCCAAAJxFFj6u7e06uADzYb13VMAW6cYOtps9Btm99xg1jZkP6RoAqx2N3oztj56eU9NKNWk+mC22RP3mjU+Zk+ApR0A/fpVGtcF//OW/QWpgaXxvvaW2aCnvFpKt3T0wrHQplk12m1Qx1bNJT9g0Kwt7bCocaqYuIKKB5/yjnfMkWZ3Xuf5hDYtOZv2gdnQPmYN6u75jJYuqnZX4UJmH7/q1duKpmnyQ9CmFVB6P6m6z3pP0qxZM1ezOmhbvdarZ1WmlLc0rtyefd7suVfNhr9kdmsnMy2J9Fs0AZbqjame1Adj9xz73sfMpr6/Jyj0/67dA31j7ex37rVmRxwSPMCa+oFZv8fN9q1odlMHs9O9xU1pTfdYSyTnLTJ7/kGzI/7bW0wB3pU9zH5c4tUtU70szcQbNd6r8ablhwpRQ5u+JlQTK7Qp9NIMv73Km5UvYzbknj3BadD7kcx+CQuwNE1QS8zmzJnjajxp9lPojoL+RSuAULCg2Tp6mP2mOlV6s6jiyQqlFD5pporCitCm2kXa/U7L2HQeAqw9OgrqFORk1+SngEPLpfzdHNVfr1N9JtX80X1M1QBL4ahmF2mnQe2m6DeNXwGc6nNpRo0fABXEAEuzvLRRQrhlkbk9A0v3Z8mvP9sJjb3vxGXKlrPNf2+yc1pdYCOffT3q74XxDLC0nFnLlbWU+X//+1+6schPS0u1RFXfaxSKarmtvyRVAaRmgioQPeywwwJfhwLW7ILLwAeiIwIIIIAAAgggkM8F1m0wu6yb2ZZtZuMe2zMzRbNYLrrRbOVas5cfNTvMm0TvWjQBlmYjqa7S0HvNTjhGK3nMzrnGTOd940mzA6t5y/00a8qf6aWd4G7s4y1jDBpgaabPWVeb7VPe27lOy8fCtRcnmD06yqxxfbMn+no9NNNIOzGq3pOWl61cbda6s9mhNb1C5eGKsWsGjmbiXNI6fZF7zeLSbK7j65kNCyn0nojH6MMPP3STH/S+JPQ9Z9Bz/f2PV9j8j7/MnnnArNZ/91gZWrubzP5c5S0fPTLkx/BoAqxbB3gz2B7s6RVH133VM6Ullyqir9lLz4zzNgzoc5NZ6xZe/a27H/aK+gcNsLQ8UDtQaqbcqIfS72QZajFhhtmA4WbHHmX21ABvVtg3P5h1vN27di2X1CYGZ3faU/Q/NNTzj6Wi/ZqZFdpUMF47Ot5wubcEtWyZ6MPLoPctEf0SFmBpJpGWZqlppz/N5MnY9OZNyaveCCrcUhDh7xKnYtqqnaUZKlpepyVtKi6uoOKUU05xtWlUaHzs2LFu9o9maWktLgHWHuUgAdb06dNdEX0t7dSb9kqVKrllhKoPpTpS8lRNoFQNsFRL6oYbbnDPhsIEFV7XTBrVLVIwquWYbdq0KRABlr5O/E0JFCDrPqrIvWY4qg6YQpaMy02TEWDpCW19ThP74ovZ7mHV94FHhoy09u07Rv09Lp4Blp4fPfMDBgxw6/JDmwJ1LV/WsmM9W/q6IcCK+nbxAgQQQAABBBBAIEcCChFU8Fo7+GnnOe2ip937tLNbiyZmA29Pf/hoAqyRr5hpWV/1fc2aNzZbrDpRX5rVO9zs2Qe946pekZasVdzbCzp0fC3FU5gRNMBa+IM3k0xF1v0gJnTUWur35H1mmzabXXe3d23NjvdmyUz70AvUtAvdGSd7M4Q0M6jSPntmhIUeS0Xge1zjzdxZs95brnb4IWbL//CWnalm1PB+XrHvRDb9olgrHA499L/pRDGcTIXpBz9rVr6sd+8VvMya5wU7TY41e6x3+mL00QRYr00ze3ik5yij3/8y+2Sud39eHOINVvet811mKt115klemPb5Ai+MChpg/bLMu/eaZSVzfxdCn6NQYbOn7jNTYHfTvd61qfj6YTXN3p1l9tufZj2vNWt3tpkK8t8+0AtA/eWB6Z6jImZP9s8MPesLs6792YUwk4x28FqwYEHaG9RwdaY080CzZhYtWuRmNOiNrJYYKpTQ+li9IVeooo9rSZtmQCic8KcbKrDSG0qFFJqd5S8XZAmhdzuCBFiyVsF47fhYokQJ56npoHqtiqJrRon8UzXA0nVq7Apu9DwooFF4o2mq2nFSS0/17BWEGVi6ztAlurq3slBNuEceeSRsja1kBVhPPPGgDejv1aQrWbKUvfv+l3bIIRm2DgnwD1s8AyzNvNL3GX0v0kYQoU0z+vR1ou9pqlunQIsAK8ANogsCCCCAAAIIIBBHAS2jGjPB22nPr4mkw593utktV3tLzEKbluB16OEtrdIywIyBQWhf1ZJSnSOFVH5TYXXtBFetivcRFda+f7jZlP8PjtR0vjuu82Y4Va3izYJau8HsrI5eUe47rs988TNmmt0z2KtLFa4VKWL22XhvrBq/Zob9tdrrqVV3WnbWvrW39O+B4WbjZ2QNrPHPGOUFMpq5paLeflPw8fCdZvXCb4Iex7sWn0PpfqsemYIm3Qe/nX6i2Z3Xm5Urm/48MuvU0yuCrllMCgyzalpWp/v61kd7euh4oweZHbif9zEtuXz8ebOXJnt/V0H0rleZvTzVC9X0nKg1vsDs1OPN7s8QpupzmuHXtZ83wyvSvdesspv7mSn0UlMlps4XmXXUss/Ce+pbZXVN6q/nKGObPd/spr57grD43J3cO0rCZmB98cUXtmJFyFdImGvSm+0TTzzR7UAwb948VytLBcT32msvt3RQsyAUqPjt999/t1mzZtnKlStdqKIlg6qL5W9trzfsmkGhHcRUvNs9aDt3ulkoKsrcpEmTtI9p2ZyCsObNm2epHUsRd83MUK0czVoKXRqk6/vqq69cYXZ/Fox2T9SWonrjrJlPaqqLpJpeDRs2dLNmgrScFnHXWuSJEye6QtWq9aMaV5rVds4557h7oaYlVAqKtFOegi413S8VSz///PPT6mKpoJ+K8munyYxF+cNdS06KoIceTzOwtIRLBcsVPqgAt1xVeFtNs/UWLlyYbvwKTj/77DO3fNUPLJYsWeKWVOrZq1UrwyLiMBeQk/Gr9pi/pFG7OGpWYVbNH7/66fkObXpOx4wZk+mlKgqv+lr6WvDvWcZOiQqwPvxghpthVbp0Gbv0sk62994V0p36s89m2oXnn+q+Po9vfJK9MeHDdMXlgzz36hOvAEv3QjP2tOTU3xE04xgUXun7mmr1qY6dZplq5qLqp+n/temBvmb8GndBroElhEGU6IMAAggggAACCOwRUPCzYZOZZtgoVNi3sjcjKl5NIc+qtd7yLj+4ynjsjZvMVq83q1whfT2meI0h43E0Y0ozr/avln5XumjOp5lCCkW0hFHhTLXKXiCWl5oyP9krnFIIpALnugfxagr6Vq3xjqmZeOECTy1Z1fOhYGwv761mQpvqbGm5oJ7FyhUTeqo8cfCEBVh54uojDDKWACsZ153TACsZY/bPmZMAKJnjLgjj1w8FEUqoRX0LNJNpx47tNnXqeLvxf5e7WmuTJn9iDRt54XK0LV4BVrTnjVd/Aqx4SXIcBBBAAAEEEEAAAQQQyO8CBFjZ3GECrMQ//gRYiTfO7gyJmoGV1Tn/+H25XdPpQvvhh0X2zz+b7ZhjGtm06Z/HjECAFTMdL0QAAQQQQAABBBBAAAEE8pQAARYBVlIfWAKspPK7+mBZLS9MxAysZct+tfPPa2YbN6y3EiVK2sAHh7sdCGNtBFixyvE6BBBAAAEEEEAAAQQQQCBvCRBgEWAl9YklwEoqf64HWNu2bbWffvrBXfQ++1S0atX+q4oYIwMBVoxwvAwBBBBAAAEEEEAAAQQQyGMCBFgEWEl9ZAmwksqf6wFWvK+WACveohwPAQQQQAABBBBAAAEEEEhNAQIsAqykPpkEWEnlzzbAWrk6/fbEyR1p+LNr5xRtDxyubdmyJRWHnG5MFHFP+VvEABFAAAEEEEAAAQQQQCBFBAiwsrkRO3futO3bt6fIrQo/jKJFi5r+C9fywviLFStmRYoUYfxJesqy89cWsfovlVu5cmZlSoUf4Y4dO0z/pXLLzj+Vx83YEEAAAQQQQAABBBBAAIHcFiDAiiCeyiFQduGVf1mMP3FfUkHCh1QOUSKNf7eZbd5stvkfs936Swq1QoXMypbNOrzyh5qX/VOIm6EggAACCCCAAAIIIIAAAkkXIMBK+i1gAAgggAACCCCAAAIIIIAAAggggAAC2QkQYPF8IIAAAggggAACCCCAAAIIIIAAAgiktAABVkrfHgaHAAIIIIAAAggggAACCCCAAAIIIECAxTOAAAIIIIAAAggggAACCCCAAAIIIJDSAgRYKX17GBwCCCCAAAIIIIAAAggggAACCCCAAAEWzwACCCCAAAIIIIAAAggggAACCCCAQEoLEGCl9O1hcAgggAACCCCAAAIIIIAAAggggAACBFg8AwgggAACCCCAAAIIIIAAAggggAACKS1AgJXSt4fBIYAAAggggAACCCCAAAIIIIAAAggQYPEMIIAAAggggAACCCCAAAIIIIAAAgiktAABVkrfHgaHAAIIIIAAAggggAACCCCAAAIIIECAxTOAAAIIIIAAAggggAACCCCAAAIIIJDSAgRYKX17GBwCCCCAAAIIIIAAAggggAACCCCAAAEWzwACCCCAAAIIIIAAAggggAACCCCAQEoLEGCl9O1hcAgggAACCCCAAAIIIIAAAggggAACBFg8AwgggAACCCCAAAIIIIAAAggggAACKS2QsABr165dKX3hDA4BBBBAAAEEEEAAAQQQQAABBBBAYI+AspyNGze6D5QvX96KFi2aMjwJC7BWrFiRMhfJQBBAAAEEEEAAAQQQQAABBBBAAAEEshdYvXq1dezY0XUaMWKENWzYMGXIEhZgpcwVMhAEEEAAAQQQQAABBBBAAAEEEEAAgYgCf/31l51zzjkEWBGl6IAAAggggAACCCCAAAIIIIAAAgggkBQBAqyksHNSBBBAAAEEEEAAAQQQQAABBBBAAIGgAgRYQaXohwACCCCAAAIIIIAAAggggAACCCCQFAECrKSwc1IEEEAAAQQQQAABBBBAAAEEEEAAgaACBFhBpeiHAAIIIIAAAggggAACCCCAAAIIIJAUAQKspLBzUgQQQAABBBBAAAEEEEAAAQQQQACBoAIEWEGl6IcAAggggAACCCCAAAIIIIAAAgggkBQBAqyksHNSBBBAAAEEEEAAAQQQQAABBBBAAIGgAgRYQaXohwACCCCAAAIIIIAAAggggAACCCCQFAECrKSwc1IEEEAAAQQQQAABBBBAAAEEEEAAgaACBFhBpeiHAAIIIIAAAggggAACCCCAAAIIIJAUAQKspLBzUgQQQAABBBBAAAEEEEAAAQQQQACBoAIEWEGl6IcAAggggAACCCCAAAIIIIAAAgggkBQBAqyksHNSBBBAAAEEEEAAAQQQQAABBBBAAIGgAgRYQaXohwACCCCAAAIIIIAAAggggAACCCCQFAECrKSwc1IEEEAAAQQQQAABBBBAAAEEEEAAgaACBFhBpeiHAAIIIIAAAggggAACCCCAAAIIpIDA7t27bd68edagQYMUGE3uDIEAK3ecOQsCCCCAAAIIIIAAAggggAACCCAQF4Ht27db2bJlbevWrXE5Xl44CAFWXrhLjBEBBBBAAAEEEEAAAQQQQAABBAqkwA8//GDjxo1Ld+07d+60/v3727333pvJ5LrrrrN9990331kRYOW7W8oFIYAAAggggAACCCCAAAIIIIBAfhGYNGmStW3b1gqXLBPxknZt2WwLFiywunXrRuyb1zoQYOW1O8Z4EUAAAQQQQAABBBBAAAEEEECgwAj4AVadibsiXvPCtoUJsCIqxb9Dod2qSkZDAAEEEEAAAQQQQAABBBBAAAEECqgAAZZ345mBVUC/ALhsBBBAAAEEEEAAAQQQQAABBBBIfQECLAKs1H9KGSECCCCAAAIIIIAAAggggAACCOR5gc6dO1vXrl2tTp06UV8LARYBVtQPDS9AAAEEEEAAAQQQQAABBBBAAAEEohUoVKiQTZs2zc4666xoX2oEWARYUT80vAABBBBAAAEEEEAAAQQQQAABBBCIVoAAK1qxzP2pgZVzQ46AAAIIIIAAAggggAACCCCAAAIIZClAgJXzh4MAK+eGHAEBBBBAAAEEEEAAAQQQQAABBBBwAiNHjswkkVUNrKOOOspOOOGEbOVYQujxEGDxBYYAAggggAACCCCAAAIIIIAAAgjESUCzrYK2m266yR5//HECrABgBFgBkOiCAAIIIIAAAggggAACCCCAAAIIBBFQgLV79+6IXWvUqGHnnnsuAVZEKa8DAVZAKLohgAACCCCAAAIIIIAAAggggAACkQQIsCIJxfZ5AqzY3HgVAggggAACCCCAAAIIIIAAAgggkEmAACsxDwUBVmJcOSoCCCCAAAIIIIAAAggggAACCBRAAQVYy5cvj3jljRs3tvPPPz9pSwi3bt1qq1atyjTOIUOGWLdu3TJ9vHLlylaiRImI15WoDgRYiZLluAgggAACCCCAAAIIIIAAAgggkKcExo8fb82bN7cKFSrEPO68UsR95syZdsoppwS+zg8//DCq/oEPHLAjAVZAKLohgAACCCCAAAIIIIAAAggggED+EYgmaOrdu7f17ds35iomrCEAACAASURBVIvXuaZNm2ZnnXVW1MeYNGmStW3b1upM3BXxtQvbFrYFCxZY3bp1I/b1A6ygxyXAypq00O4gZfsj3hI6IIAAAggggAACCCCAAAIIIIAAAukFFCq9++67EVnatGljPXr0IMBiBlaWzwoBVsQvIzoggAACCCCAAAIIIIAAAggggEAsAkGLrZcvX97VhGIGFksIs3rOCLBi+QrkNQgggAACCCCAAAIIIIAAAgggEFGAAMurgcUSwoiPSsQOBFgRieiAAAIIIIAAAggggAACCCCAAAKxCOS1ACvoNVIDK6hU/PoRYMXPkiMhgAACCCCAAAIIIIAAAggggECIQG4GWCtXrrS9997bihcvHvU92Lp1q23YsCHd63bs2GH77befaWe+jE07KBYtWjTieXKriPuECRPsuuuuCzvWiIMM6cAuhNFo0RcBBBBAAAEEEEAAAQQQQAABBPKFQG4GWPEG2759uwvDcrL3XSICLO20uGjRonSX+9VXX9nYsWNt0KBBmRhuu+22wDQEWIGp6IgAAggggAACCCCAAAIIIIAAAvlFgAAr/jWwOnToYGPGjAn8iEQTwBFgBWalIwIIIIAAAggggAACCCCAAAII5BeBvBxgKfiZPXu2NWnSJObbkYgZWAqwVINL/2XX1q9fb/vss09UM8gIsGK+1bwQAQQQQAABBBBAAAEEEEAAgfwlsG3bNtPytDJlyuSvCwtzNXk5wIrHzSHAioeidwyKuMfPkiMhgAACCCCAAAIIIIAAAgggEFFg2LBh9vLLL9snn3wSsW9e70CAlZglhMzAyutfGYwfAQQQQAABBBBAAAEEEEAAgRQX6NWrlw0dOtS0xCu/NwIsAqx4PePMwIqXJMdBAAEEEEAAAQQQQAABBBBAIIBAIgKs8ePH20EHHWTHHntsgBHkXhcCLAKseD1tBFjxkuQ4CCCAAAIIIIAAAggggAACCAQQSESAVbVqVbviiivsoYceCjCC3OtCgOUFWEHbhx9+GLE/RdyDatIPAQQQQAABBBBAAAEEEEAAAQRiFiDAykxXvnx569atm/Xt2zdm11R84d9//20//vhjpqEdd9xxNm/evEwfr1WrlpUtWzbbS1GA9frrr9sRRxyRbb+dO3e6nQq1m2LQxi6EQaXohwACCCCAAAIIIIAAAggggEA+FyDAKjgBVlaPctCZaeFeP3z48EwbACxdutQ+/fRTu+SSSzK9ZOzYsYG/ogiwAlPREQEEEEAAAQQQQAABBBBAAIH8LZCXAqxRo0ZZ9erV7fTTT4/ppgQNavLrDKxEBFjhjqldLS+99NKoZluFOw4BVkyPOS9CAAEEEEAAAQQQQAABBBBAIP8J5KUAS8vUmjZtaiNHjozpRhBghWcL6hIUfcWKFfb111/bGWecEfQlYfsRYOWIjxcjgAACCCCAAAIIIIAAAgggkH8ECLAy30tmYKXG802AlRr3gVEggAACCCCAAAIIIIAAAgggkHQBAiwCrBYtWti7776b9Gcx4wDiEWDpGJ9//rmtWbPG1q9fb4ULF3aF6bVTZoMGDWzfffeN6boL7Y6mHH1Mp+BFCCCAAAIIIIAAAggggAACCCDgC+Q0wFq3bl0mzNq1a9vFF19s/fr1S/e5IkWKmGY3xdpYQhirXN58XU4CrF27dtmMGTNsypQpph0QFVzpP8VO+pz+1PN4wQUXWPPmzd3nomkEWNFo0RcBBBBAAAEEEEAAAQQQQACBHArkNMBS/aSg7cgjj7RFixYF7Z6pHwFWzHR58oU5CbA+++wze/HFF911H3PMMVa/fn0XnirM2rRpk3311Vf2xRdfuODqrLPOstatW1s0zzIBVp58pBg0AggggAACCCCAAAIIIIBAXhA47rjjbP78+YGHGmSRlN701+z3rpWte2q2x/196NVWbcWcpAdYQS++d+/e1rdv36Dd6ZcAgVgDrO3bt1v37t1Nf7Zv395OOeWUsKNTiKUNAUqWLGm33367ValSJfBVEGAFpqIjAggggAACCCCAAAIIIIAAAtEJKMBS/Z8ePXpk+8LvvvvOevbs6ZZZRWp5KcDScrKMbdy4cdayZUurWLFiuk/VqlXLtBSSljyBWAOshQsX2tChQ+3444+3q666KsvlgZqNNXr0aJszZ4516dLFjj322MAXS4AVmIqOCCCAAAIIIIAAAggggAACCEQnoABLoczYsWOzfeGsWbPsxBNPTGqANXPmzExjvOKKK+zoo492s2VCW/Hixa1x48bRYdA75QViDbAmT55sb775pnXq1MkaNWqU7XV++umnLsRSLazTTz89sAkBVmAqOiKAAAIIIIAAAggggAACCCAQnUBeCrCiqUdUrVo1++OPP6LDoHfKC8QaYGmm3dSpU+2WW24x1U3LrmkZ4YgRI+zcc8+1s88+O7AJAVZgKjoigAACCCCAAAIIIIAAAgggEJ1AXguwXnvtNbvwwguzvUjVOnr55ZcJsKJ7FPJE71gDLM0gfOGFF+ycc86xNm3aZHut/mytK6+80po0aRLYhQArMBUdEUAAAQQQQAABBBBAAAEEEIhOgAArOi96J1cg1gBrw4YNroZbiRIl7NZbb7UaNWqEvZC///7bHnjgAdOfqgt3wAEHBL5gAqzAVHREAAEEEEAAAQQQQAABBBBAIDoBAqzovOi9R2DXrl2melFff/21LV682MqVK2cHHXSQtWrVyipXrpzWUaHT22+/bd9//73royV8J510klWoUCGtz44dO+yjjz6yzz//3P755x9TwXw9m0cddVQ68lgDLB1k4sSJNmPGDHdeFek//PDDbZ999rEiRYq4wOrnn392n1+6dKn73PXXX+92IwzaCLCCStEPAQQQQAABBBBAAAEEEEAAgSgFCLCiBKN7moDCnnvvvde2b9/ugh79qV38atasaa+++qrb6W/dunVuN78lS5a4DQD0Mf3ZvHlzGzRokDuW/j58+HBXOF2hmProT4VLY8aMsapVq6YLw7QMUE11qho2bBj4jmzbts2efPJJW7RokXtN0aJFTXXV9J/Op7FrLJUqVbJ77rnHSpUqFfjY6kiAFRUXnRFAAAEEEEAAAQQQQAABBBAILpCoACvoCI488si0QCHSayjiHkko9z6vsKpt27a2efNme/DBB93OfgqrHnvsMbfbn2Yvacc/1SIbMmSIm5XVtWtXN8AnnnjCJkyY4JbotW/f3jSrSvWmtHOklu8ddthhNm/ePLvrrrusdOnSNn78+LSZUDmZgaVzK6TSjDHNHFuxYoUbs2Z/lSlTxipWrGj169e3E044Id3ssKCqBFhBpeiHAAIIIIAAAggggAACCCCAQJQCiQiwwg3h8ccftzp16tipp54a5Qiz767laE2bNrWRI0fG9bgcLHsBLQe8/PLL3U59vXr1Suu8du1aVyhdS/Cef/55u+SSS+ynn36y6dOnu4DIb3oOihUr5sIuLS/s3bu3XXvttda5c+e0Pv3797dJkya52VkKyNRyGmCFuyrNzFJ4ltNGgJVTQV6PAAIIIIAAAggggAACCCCAQBYCuRVgJeoGaKaPQqybb745UafguGEEtCTw9ddft9NPP93q1q2b1kPL866++mo3i0nLC/V5zbIbNWpUuqMoqFIIpmMo3NRyRM3W0uwrv+lzAwcOtDvvvNMuuOCCHAVYWhr4559/Br6Xmu2nwE0hW9BGgBVUin4IIIAAAggggAACCCCAAAIIRCmQ1wOsKC+X7gkUWLZsmV133XWmWVj333+/HXjggW6J4Jlnnmn33XdfujNr+eDs2bNdjSvNtPrmm29s5syZbsmg3zQzS7WoFFJ27NgxRwGWZm5pllfQpvpYt912m6vnFbQRYAWVoh8CCCCAAAIIIIAAAggggAACUQoQYEUJRvdMAtrB78UXX7TJkye78Oqaa65x9a8USmk2Vrt27axnz57pXnfHHXfYxx9/7JYZ3n333abwSzsQhrb33nvPzb7S8VQIXi3WJYRr1qxxBdwzNn1cdbyqV6/uirr7Tf/foUMHq1atWuA7ToAVmIqOCCCAAAIIIIAAAggggAACCEQnQIAVnRe99wioIPrixYutb9++rs7VoYceajfddJNbPqgleAqlzj//fFcTS31Cm5Z8zp8/3y0b1OwsFW1XYfXQWlSqj6VliN26dbNLL700RwFWVvftrbfesokTJ1q/fv1s3333zdHtJcDKER8vRgABBBBAAAEEEEAAAQQQQCBrAQIsno5YBd555x0XPvnL7Zo0aWLly5dPO9y///5rJ510kqtRpqWCoU2zm1RHa8qUKfboo4+6PzWLS8Xf/aa/63M6h5YhqsU6A4sAK9a7zOsQQAABBBBAAAEEEEAAAQQQSAEBAqwUuAl5cAg7duywNm3amGZhDRkyxBVqD9e09O+rr75yM60OOeQQ1+WPP/5wRdkbNmzoCrh/9NFHrt6UZllpZlbhwoVt165ddsMNN9gXX3xhb7zxhh1wwAEEWHnwOWHICCCAAAIIIIAAAggggAACCMRFgAArLowF7iAKpVSbqmXLlnb88cdnun7t4KfZV9pdsFevXnb00Ue7ZYRbtmxxSwJXrlzpZmXVqlXL1q1bZ1dddZVt2rTJ1cpq2rSpDRs2zAVXJ598sg0aNMgtSVRjBlaBe9S4YAQQQAABBBBAAAEEEEAAAQTMCLB4CmIRGDp0qI0ePTrLl9arV8+effZZF1hpGeCkSZNs+/btrn+xYsXsyiuvdDsW+k0F3QcMGGCrV69O+5iOMXjwYNtrr73SPkaAFcvd4jUIIIAAAggggAACCCCAAAII5HEBAqw8fgOTNHwFU34gFW4IRYoUsdKlS7tPaZmhdvubOXOmaelh8+bNrVKlSqY+oU27GS5cuNC+/fZbO+qoo+yYY45JV9RdfXMSYOncGdv06dNd/a3evXunK+KuGV8ZxxeJmiLukYT4PAIIIIAAAggggAACCCCAAAIxChBgxQjHy5IiEGuAtWrVKrvnnnsCj1mzxFSXq0aNGoFfk7AAa/fu3YEHQUcEEEAAAQTiIdCnTx/r3r17ut1Z4nFcjoEAAggggAACCMQq0KBBA6tdu7aNHTs220PMmjXLTjzxRFdcm4ZAsgQUYLVq1cqdfsSIEa4QfJCmAOuBBx4I0tX1UYB14403phWPD/LChAVYK1asCHJ++iCAAAIIIBA3gerVq7udVPQnDQEEEEAAAQQQSAWBM844w+rUqRM4wNIOcjQEkiWgGlkdO3aMOsDKjfEmLMDKjcFzDgQQQAABBEIFtJZ+2bJlUf0mJ4jgxo0brUyZMlGv0w9ybPoggAACCCCAQP4WYAlh/r6/+e3qYl1CqFV4//77b2AO/dxeokQJK1y4cPDX7GatX2AsOiKAAAIIpIbAhg0b0u2q4o9q3Lhx1qZNm7SClv7HtQXxaaedFvPgtS3x+PHj3TbENAQQQAABBBBAIBoBAqxotOibbIFYA6y1a9e63RCDtqJFi1qnTp1sv/32C/oSS8oMLGVm2s7xqaeeCjxQOiKAAAIIIOAL6B/WqlWrum2pI7V58+bZk08+addee22krll+Xr8hWrBggdWtWzfmY/BCBBBAAAEEEEhtAe3OtnXr1sCDDPJziA6mfpUrV7YBAwZke2z9rKE39MwxCXwL6JgAgVgDLL1OOw2WLFnSrVyI1BRgdenSxfbff/9IXdM+n7QAS9PE+MIMfJ/oiAACCOQ7ARUyPfLII61+/fpRX5sfYAX5d0ThEwFW1MR58gXTpk1zPzCdcsopeXL8DBoBBBBAILkChxxyiP3yyy+BBxHk5xA/wJo/f37cjxv4gHREIAqBnAZYJ510krVu3TrQGcuWLRtViY6EB1hvvvlmWgX7IFeg4rtBk+wgx6MPAggggEDyBRQiBW3a6WTOnDnZdk9UgLVt2za3Fj9oGzhwoPXs2TNod/olWKBx48au/tlrr72W4DNxeAQQQACB/CigAEsF14cPH57t5fnvcYMGWOEO1qtXLxs6dKitX78+P1JyTXlYIKcBVosWLaxdu3YJEci1AOuwx7+JeAGLbz7a7R5FgBWRig4IIIBAnhJQgKUZV5GW4HXv3t20fj7ZAVagf7O61rOBD9xPgJVCTyIBVgrdDIaCAAII5EEBAqw8eNMYctwFCLBatbI6E3dFhF3YtjABVkQlOiCAAAJ5T0AB1uzZs00BQ3bt4osvtl9//TXpAVagf7POKxpzgKUfDFQLcsKECXnvZqbwiAmwUvjmMDQEEEAgDwgQYOWBm8QQEy5AgEWAlfCHjBMggAACqSxAgJX+7iikO/jgg6kFGeeHlgArzqAcDgEEEChgAgRYBeyGc7lhBQiwCLD40kAAAQRyRWDx4sX2999/2zHHHJMr5wt6kkQFWEHPH7SIeyJqYA0bNsxuvPHGoEO11atXW8WKFQP3p+MeAQIsngYEEEAgbwhs2LDBtONf06ZN4zrgzZs321dffRXzcQmw4no7OFgeFYg1wFq5cqWpPmyzZs2sTZs2Cbn6XKuBFWg5BksIE3KTOSgCCBQcgY4dO9rcuXPdD4Wp1OIdYGV1bTrPsmXLXCHveLa+ffu6JX/77rtv1IclwIqaLNALotkYQNuW33XXXYGOSycEEEAAgcQLfPDBB3bqqafmaCby/fffb3fffXfgwW7fvt2KFi2abf9E7UIY7qQUcQ986+iYywKxBli5MUwCrNxQ5hwIIIBALgkkIsDSb0dvvvlmU32qWFteD7BivW69Tr8Jfvfdd9MdYt26daYfvB966KFMh77hhhusVKlSOTllyr129OjRmUJV/XD0888/W5MmTTKNN5xLxk4zZ87MVCtNxf9LliyZabMAbed8/PHHB3K57bbbAvXzOwUZa1QHpDMCCCBQAARSNcAaOXJkpl0Bv//+ezc7+sQTT8x0Z3r06BHz3dK/jZMmTbI33ngj5mPwQgQSIZDTAGvXrl2u9q1+BtbPvNppUwFy+fLlrUKFCla/fn074YQT3M9s0TYCrGjF6I8AAgjEQWDUqFGmae4KK+LZchpg/fnnn5mGU61aNdMMpC5duqT7XIkSJWyfffYJNPzcCrDKlStn3333ne2///6BxpWsTkuXLrU6derYpk2bkjWEXD3vBRdcYFOmTIm4NHLnzp22atWqHP1GPqcXpme1cKlyVrhEmWwPtWvrP7br340xj1VB2WWXXeZ+iKMhgAACqS6g71n9+/eP6Q1nuGuLR4D1+OOP2wMPPJDu8HqTvGbNGqtatWqm0y5fvjziDKxUvw+MD4HcEMhJgKVSJs8++6x9++23VrhwYdP7hSJFiriflxRsqVyHft6rUaOGKQAuXrx4VJdEgBUVF50RQACB+Aicd9557o36J598Ep8D/neUnAZY0SzLatmypb399tuBxp9bAdbXX39tRxxxhBUrVizQuJLVSf946ze6devWTdYQcvW8CrBWrFhhn376abbn/f333134qB9yktX0rFa96iGr1LZ7tkNYM3WorRjZNeax6jxjx461Sy65JFmXynkRQACBwAL6nqW6VZpBEY8WjwAr3Dg040N1QJP570g8fDgGAskUyEmApZ9tNEtevwA/++yzrWbNmlamTBn3Nalf3qvUh1YmaEOjBg0a2JVXXhlViEWAlcwnI4+ce+PGjS4prVSpUh4ZMcNEILUE9JsHfQ0FbUF/6Dr66KMD17q65ZZbbMiQIRGHkMgAK+LJ/+vQsGHDTEvDgr6WfqkpQICV+b4QYKXms8qoECjoAj/++KPVrl07MMO4ceMilhi4/fbbwy6Zz+okQX8OIsAKfJvoiEBUArEGWFrJ0adPHxdY9ezZM8vasQqyVIJh7dq1pu8P0aycIMCK6lamTufzzz/f/vnnn8ADmj59euC+GTv27t3bzRJ5//33Yz4GL0SgIAsowLr00kutffv22TJMmzbNNB0+6A9uS5YssR9++CHdMR955BHTD59PPfVUuo/rtx9BfiCdMWNGpjGeeeaZdu2115pmjYU27ZSn35wEaeGOq+Ppe9kVV1yR7hB77bWXaTc5Wv4RKOgBlr6GMjZ9TWgGnn5DGdpOO+00i7YOV/55UrgSBBBItoAfYAV576DvbQRYyb5jnB+B+AvEGmCpFqmWD7Zt29bOOuusbAemVRyq/3b99ddbvXr1Al8EAVZgqtTqqDd4evOonTKya1qysWjRosBviBVUbdmyJd0hH3vsMZs/f76p0GDG1qJFi9SCYTQIpKCAAiwFwZF2ylHopJ3uggZY4S5Vv8XQMrogP3gGpdJMkcGDB1u3bt2CviRQP9WruvXWW119LVp8BPSLDf0gEO77dXzOENtRCnqAFc3Mxg4dOgS+fxk3B9DdGTNmjCtYX6tWrXQ3q3LlylH9gBjbneZVCCCQ1wX8ACvIzyL63hYkwHr66afttddeS0ejws7z5s2zcO8l3nnnnZgZVQezVatWbpMQGgIIxCYQa4D10UcfufII2vzpqKOOyvbkKqWh1SH6ZfYZZ5wReKAEWIGpUqujAqyuXbtav379sh2Y3sRcddVVgd8Qq5ia1qUGbUH+cQt6LPohkF8FcjPAUn0KFTCN55JfAqy882RqlxcV1k+1780EWIUCP0TRBFjRBGOtW7e2yZMnBx4HHRFAoGAKJCLACieZqBpY2RVxL5h3lKtGIHqBWAOsBQsW2PDhw61du3Zhw+nQkahe3YgRI9xKjHA7fGY1agKs6O9nSrwikQHW5jqtrVqXodle56Y5U2zp/eem3JuklLg5DAKBDAK5GWAlAl/Te7XU6dBDD43r4ZmBFVdOd7BEBFjaOlyzeVVzLdZW0AOscG7xqIGlY9R++hcrVqVmtrfm17ub2akH70WAFesDzOsQSJDAN99842q/BN3RN0HDSHfYvB5g5YYR50AgvwvEGmBpZmWvXr3cZg833XRTpjIJvpuC5meeecbV8tVqjGjeYxBg5dGnjwArj944hp3yAlrmN2rUqMDj1K5pkVpeD7AiXV+sn5f1ySefHNW04VjPlR9fN2HCBLvxxhvTXZq2J1YBzerVq2e65FmzZrmdYKJtWkauH0a0oUesjQArsxwBVqxPE69DIP8I6E3esGHDMtWCTOYVEmAlU59zI5AaArEGWBq9ypjoZ1TlFaeeeqo1a9bMSpYsmXZh+qXo66+/bt9++60r8q7yJ6VLlw584QRYgalSqyMBVmrdD0aTfwQUCKiGTKdOnbK9KC3RevTRRwPNQlSApRoPkWrGzZ4929WISLXlX/nn7uavK1GNgcsuu8wqtrkl4oWtmfyoLV68OOJvuPQDxfLly9MdT8s8pkyZ4uqgZWxB66LltQCrXKM2VrZOs2xdN3/7sW38bELMX68EWBEfWzogkO8F9H1ABY+vvvrqlLnW3AqwVF/3hhtuMP3sQ0MAgdQSyEmApR0GX331VZs7d67t3LnTTjrpJLv88svdBeo9jr7n6XOafXrxxRdnqtkZSYIAK5JQin6eACtFbwzDyvMCCrDefPNN+/XXX7O9Fs10KVKkSKA3rwqwtm3bFtiGACswVYHu6AdYdSbuiuiwsG3hQAGWdsCLZsfZoM9qXguwIoKGdAhqkPGYBFjRKNMXgfwpUJADLN1R/SxVuHDh/HlzuSoE8rBATgIsP6jSRgqajVWhQgW3G7v/8UmTJlmxYsXc7KxSpUpFrUSAFTVZaryAACs17gOjyH8CiQiwwimdd955tmrVKtPOnzQEYhFIVIClwHXatGnZDkm729apUydQgKsD5aUAK9yFayto1WsIt+tfLPdOr9HXfu3atU27A8bacqsG1nvvved+0IymaHys18TrEChIAokIsPT1ql9GxNr8GVhBXx9kF8Kgx6IfAgikhkBOA6zQq9Av+uL58wMBVmo8I1GPggArajJegEAgAQKsQEx0SgEBAqzcuwmJCLDiMfrcCrB0Hs0i1W9M49n+/fdfVxcjnj/YxnN8HAuBRAskIsDSMWOdGZrd9Q4aNMhuueUWK168eKJZOD4CCCRZIJ4BVrwvhQAr3qK5dDwCrFyC5jQFTiC3AqwHHnjANmzYYAMHDixwxlxwfAQIsOLjGOQoBFiJCbCOPfZY02yRVNqBLcjzQB8EYhG45pprMr1MtWBUH6ZWrVrpPtegQQO77rrrYjmNC4QTEWDFNBhehAACeVKAAKtVKwtao+OLL76w4447LuYbre0ahw4dGvPr88oLCbDyyp1inHlNILcCrLzmwnhTT4AAK/fuSSoHWDX7vWvFKmbedTJU57chHazFEdVs8uTJ2aJt3bo1bP2/I444wr755hsrWrRouterAGvZsmUj3ggtv1QtjIxNx9XumKqPEdqqVavmdi+iIZCfBBQsaav4jF9HGa9xyZIl1rp1a1cEObumGYxLly4N+3X13Xffpfu4zlmjRo24z6LMT/eHa0EAgT0CBFhhAqxNH71s5U65JN1zoiKzOQ2wCspvHQiw+BaTlcDLL79szZs3t6pVq4IUgwABVgxovCQpAgRYuceeygFWUAW9IY4UYC1YsMDq168f9JCmQqxt2rSJ2H/ZsmXuzXPQNmrUKLvyyiuDdqcfAnlCQO9RtH18pJ/Pjj/+ePf1EinAUijcpEkTW7lyZcTr11b1CosPOeSQiH3pgAACCBBgtWoV+CkIGmB9+umn1rRp08DHfeeddyJuYR/4YHHouGXLFtODEc0PdKGnJcCKw03Ip4fQD0gzZsyw008/PZ9eYWIviwArsb4cPX4CiQqwErUL4RtvvBH44lNt+UuqBljhQPVvwPDhw+36668P7O13THSAFXQ2PgFW1LeOF+QBgXgHWFldckH5ZX4euOUMEYE8K1CgA6z169ebdrMI2o466igrU6ZMxO5+gHXIQ59F7PvzbY0t1QKsjz/+2C655BL77bffIo4/XAcCrJjYCsSLCLBydpsJsHLmx6tzT8APsEod1ijiSf9dPMcWL17slq9k177//nvbpWQLzAAAIABJREFUuHFjui5ff/21zZkzx8LVb2nUKPK5dTCde926demOq9lAAwYMsM8//zzTkIIeN+KFx6lDXgqwunTpYpdddpmdcsopUV/9P//8YwsXLsz0Os0I0eyNjEufVLdn7733jngefwYWAVZEKjrkYwECrHx8c7k0BPKZQIEOsBJ1L/0AK+gPQ6kWYGkr7pYtW8ZcZFEBll5/8cUXZ0v80Ucf2bBhwwKfRzPCNtdpbdW6ZF9HbNOcKbb0/nMDH1f+CjNDm35I1vTnc889N9M1tGvXLlGPTr4/LgFWzm4xAVbO/Hh17gl88skn9vjjj6c74c6dO00hlH4ZlLGpb6SlK7k3erPx48db7969bdGiRbl52pjOlZcCrJguMMKLcroLIQFWIu4Kx8xrArkVYOn7f174vprX7h/jRaAgCRBgJeBu51aApd8aT5s2zbp27RrXq4hHgJXxt+TZDTDocoxEBViqqaGlCUFb0PFmPN7TTz9tRx55pJ144olBT5Xv+hFg5eyWEmDlzI9XJ1dA3zu1u2WQWTHJHanZtm3bTDN+8sJYCbBytgshAVayv9o4fyoI5FaApV8Y54Xvq6lwTxgDAgiEFyDASsCTkVsB1muvvWYXXXRR4JlGQS81pwFWuPO0b9/ezWiaO3du0GFk6pfIAGvp3nVs/25jsh3b5kUz7de7m8XsXblyZevUqZMNHDgwZoO8/sJ4B1i7du2yefPmWcOGDfM6TaDxE2AFYqITAgVKoKAHWPpFngz070ssjSLumdWWL19ua9asiapofiz2vCZ1BHIrwEqdK2YkCCCQVwUIsBJw5/JSgNWzZ08bOjT9kjyFAtquulSpUpl09BvpWNorr7xia9eujalwq38+BVjLf//DChUplu0Qdu/aabt3bAscNGkGFgFWLHc1+9eULl06Uwdtq1yiRAkrXLhwus8pmBk0aFDUg9DxtGRVsyUKQiPAKgh3mWtEIDqB0aNHm/7d7tixY3QvpLcT0MxAbV6TsenfMIVblSpVSvep4sWLW5EiRfK13u23327aNVhBFq1gCBBgFYz7zFUikB8ECLAScBf9AKvKxb0iHn3lK/0DFXGfOHGiffnll+mO9+2339rrr7/u6nRkbH379o14bnXo3r27PfPMM9ajR4+I/fv06RM4FIp4sBg6PPbYY275SWibOnWqm9kVbhllOJdwpy3oAZbua8am+mTHHnuslStXLt2nmjdvbs2aNQt09/TDUJDn8JFHHrGrr77ahgwZEui4oZ0UYOlNRqzLOqM+YQ5eoFprKgr94YcfxnwUAqyY6XghAgggEJWA/g1buXKlafZ0QWv6mfCll16yFStWFLRLT7tebQxRs2ZNu+eeewqEAQFWgbjNXCQC+UKAACsBt1G7FqmIeca2adOmTIGA+mi3o0ihgJaePff8KCtcMtIuiLtt179/B35DrwBLv2X7448/Ikqk4ta32opbwcBPP/0UcfxZdUhEgKV7nbEddNBBdsUVV1i/fv3SfUqzkYLsbpnV+AcPHmwHH3ywtW3bNiYD3deMQVW4A+ma7r33XgsXeIXrr+MGqYVWu3ZtV/A/UoC1Y8cOU2AV2vRb8ypVqoQ9j0wzzvSKCSiGF2lc27dvT/dKzULs3Lnz/7F3JvA2Ve//f1x3NM/zFMmUodC3aB5FkkQakdCshMxlSqRUpIhGUaiQBkkaDZlDiMwz13QNd3Dv/f8/W/v+juucs5+979nn3HPvZ71eXspZe+2132t61mc9ay2vedXwR2IUsBwUBh8hARIgAQcEYmNjjduYM3tgOUjKeATeXBMmTDAWMrJ7yG0CljebrWnTplKrVi2ZNGnSecUF26ZAgQLZvQht548Clm1kfIAESCBEBChgBRF8VgQgCFif/rBYqo/zfyNSWuIp+bt9QQpYNsrVDQHLzlkcdevWFVwF7zTgqnB4RsEwdhK09RKCELYV2BGwtPl59tlnLQWsL7/8Utq0aaNN0rhu3dttZ+oEshAR18RPnTpVnYLWg8ybgAUPAZwt16JFi4z3YTsRtrho01VnlBFJgARIIJcQWL58uXEGVGRkZEC+ePHixdKkSZOw6Jdzm4Blx2YrVqyYcT6Yk/DNN9/IlVdeKcWLF3fyuKvPUMByFS8TJwESCCABClgBhGmVFK4Jf+aZZ6yief2dApZ3bNnVAwuGwEXDFkr+S6/zW9673+wgFQ+vzpEClrcPz8oh7qaAdemsNMs2tO6uiJALWBs2bJCVK1f6zSuMYKzua4UmCFhvv/225febEbTpqhNkRBIgARIgAUsCOMJg6NChlvGya1+dGwWsKVOmCBaf/IV+/foZi4VOBSzYQAsXLrTcdaGuOAGMSAErgDCZFAmQgKsEKGC5ijdwibspYI0fP16aN29umVkICNltQhwoAevvPUck7uJGfhmkJsQLbiLUMKCA5R0lbqOEAVivXj3L+pY5AgUskdWrV8vWrVvV7O6++251XEYkARIgARIIDAEIWMNHjZYKz02xTHDnK21UdoVlQg4jYGF1z5495z29du1a4wB3b7bhF1984fBN2fcx2GyBFrC8eYzDjrnmmmsuOFcNR0DgiIlQBgpYoaTPd5MACdghQAHLDq0QxoWANWXuT1Lh+U/95iI9OVG2DbxJbQzBK+yzzz47L00clI4D4q+66qoL3oUD6rNTCISA9fDDD19whhbOqkDjaNy4sSMGMATKdRsnsVUv84vr0OfDpErKbrUHFrYgZA44PwoHruNGSc+Am5IaNmxoWVxubSG0fLHNCBSwbAJjdBIgARIggZAQMASs196U2lOPWb4fHsOahTHLhBxGqF27tmzeGy/RZar5TSH19HFJ2vV3SPPq8BMtH3NDwEKa+WpcaEdnzsyZLcul1/PPyciRIy3z6WYEClhu0mXaJEACgSRAASuQNF1MyzjE/f331W/IijH0448/GofQZyUNdUazGDEQApa3LATCTVz7aXbOwLJzTkOFChVUV2BTwPJeUmhvuB3RScA2BDe2EDrJC58hARIgARIILoFgCljHjh0TLPA4Ha8gYO0vd6WUf3qyX0gn1yyQ7S9mzTZcs2aN4UncoUOH4BaIxdvcErA0Rx5sfLi09HisEwWsbFUjmBkSIIHsTIACVnYuHYu8zZgxQ9q1axdwoQmV4ueffzZuhsvuwS0BC4eq//vvv9K6deuAIfjqq6+M2wLr16/vOE0YWZX6fiWF/tfKbxr7JnWXuNVfUcCqUydLrJ2KuBSwHGPngyRAAiQQ9gSCKWBhsQQilNPxKpgC1rBhwwR/cFNvdgoUsETsLJC2bdtWpk+fnp2KkHkhARLIRQQoYIVxYbslYIUTEgygGzduFBiLuSFQwGoj0WWrWxZ18r7NWT7EXeuZ5i0zFLAsi4gRSIAESCDHEnBLwPrggw9kxIgR53FLTk6WHTt2SPXq54+N8O7GERFRUVF+OVPAOifeBPoMLKQZTh5YmzdvvqCe4JZr1LfM53kVKFBAypYtm2PbLz+MBEggexOggJW9y8dv7rDVr0+fPoKrnhlyB4HcLGCtWrVK3n333fMKOi0tTfDv3s76evHFF6VcuXKOKwYFLMfo+CAJkAAJ5GoCbglYuMQj81lJR48eFSxodu3a9TzmlStXNs7GzJs3r6WAtSO9qBS90f+2vsTdGyR+zhuOPb2QCTc8sB599FHjvNJu3bo5rnMUsLyjA5fJkyc73p7quED4IAmQAAn4IUABK4yrBybvKSkpEhMTE8ZfwazbIZCbBSxfnJKSklxpAxSw7NRMxiUBEiABEjAJuCVgeSMciC2ESEMbnG5VdEvAqlKlirRs2VLGjh2r/YQL4oW7gPXKK68Ibh2Gx1QgAwWsQNJkWiRAAoEiQAErUCSZDgkEgYCdMwrsHOKuzfpLL70k8GzKSeGnn36Sm266Sf1Jv/32m1x99dV+43MLoRonI5IACZBAjiMAAWvo0KHq78qKKJRVActbJnv27Cmffvqp7Nu3T/0NmSM2bdpU7NxcrWFgxwbCmaM4y1QTwl3AQv5xkH8gz20FNwpYmtrDOCRAAsEmQAEr2MT5PhIIMAGsuN1www0yYcKEgKU8fPhw6dSpU5a24AUsMy4nZApYmrMqcN05BSyXC4TJkwAJkEAOJLB48WJp0qRJlrbgecNy+PBhY/zv379/wKhlZwGr8oC5UrBRc7/fuvfdJ6TIPz9QwMpijaCAlUWAfJwESMAVAhSwXMHKREkgeATcELCCl/vQv8ktAWv+/PnSvn17vx945swZmTRpUsAnNKGnyhyQAAmQAAl4EnBLwHKDMsYl3EaNg82dhpkzZ17gwQWPKPy59dZbL0j26aeftnwVBJWCje+Q6FJV/MY9te5nKZf3tC0BC3mqUaOG33ThUbZt2zaJj49X5VWzMLbx4dLS47FOF5xt5usFzzzzzAU/Yftk8+bNpVq1auf9dtVVV8l9991nmVdfEShgOUbHB0mABFwkQAHLRbhMmgSCQYACVtYomwJWjfe2Wya0qUsVlQcWDMzZs2efl96pU6cMo7dSpUoXvAc3SDGQAAmQAAnkXALhJGBl11LAwfSZw969eyUuLk6KFi163k8Ya+ExrQne0t2/f79xg2Px4sXPS6JIkSKyZs0ay2TduoUQ6VasWNHY3ucvgAs86SdOnGiZV18R8K3jxo2TBx980HEafJAESIAEAk2AAlagiTI9EggyAQpYWQPuxhlY3nKEleyHHnqI3lZZKy4+TQIkQAJhSYACljvFFohD3L3l7LLLLpM6deo49kJzU8BKTEy0vLwGtuH111+fJQFr/fr1xlESmcVBd0qSqZIACZCAjgAFLB0nxiKBbEuAApY7RZOVWwi95WjLli2ycOFC6dKlizsZZqokQAIkQALZlgAM7jlz5nAMCHAJTZs2zfBsxqHxgQwUsAJJk2mRAAmQQOAIUMAKHEumRAIhIdCnTx+pWbOmdOzYMSTvz6kvDbSAlVM58btIgARIgARIIKcRwE2S5cuXl27dujn6tJzggeXow/kQCZAACbhMgAKWy4CZPAmQQHgSoIAVnuXGXJMACZAACZBAqAlQwAp1CfD9JEACOZUABaycWrL8LhIggSwRoICVJXx8mARIgARIgARyLQEKWLm26PnhJEACLhOggOUyYCZPAiQQngRwi2CrVq3CM/PMNQmQAAmQAAmQQMgIWN0S6Jmx3r17y8iRI1V5tZMuztzMyi2EqgwxEgmQAAkEmQAFrCAD5+tIgARIgARIgARIgARIgARyLoHDhw9f8HElS5aUWbNmXXDgfFxcnOTPn18Fw1u6r776qtx1111SvXr189KIjY2VAgUKqNJlJBIgARIIFwIUsMKlpJhPEiABEiABEiABEiABEiCBsCRw9dVXy9ixYwU3HDKQAAmQAAk4I0AByxk3PkUCJEACJEACJEACJEACJEACJEACJEACJBAkAhSwggSaryEBEiABEiABEiABEiABEiABEiABEiABEnBGgAKWM258igRIgARIgARIgARIgARIgARIgARIgARIIEgEKGAFCTRfQwIkQAIkQAIkQAIkQAIkQAIkQAIkQAIk4IwABSxn3PgUCZAACZAACZAACZAACZAACZAACZAACZBAkAhQwAoSaL6GBEiABEiABEiABEiABEiABEiABEiABEjAGQEKWM648SkSIAESIAESIAESIAESIAESIAESIAESyPUEkpKSJCEhQUqUKHEei/T0dMFvaWlpFzCKjo6WyMjIjH9HnOPHj0tKSooULVpUoqKiLniGAlaur2oEQAIkQAIkQAIkQAIkQAIkQAIkQAIkQALOCEyaNEl++uknmTp16nkJHDt2TPr27SsHDx68IOGOHTtKy5YtjX+HyDVq1ChZvny5nD17VgoWLCj33HOPtGnTRvLkyZPxLAUsZ+XDp0iABEiABEiABEiABEiABEiABEiABEggVxKAd9WpU6dk/fr10qtXL4FH1Y8//ngei507d8qjjz4qsbGxUqpUqfN+u/fee+WWW24xPK4GDx4sP/zwg9SpU0fKli0rmzdvlv3790v//v2lWbNmFLByZQ3jR5MACZAACZAACZAACZAACZAACZAACZBAFgl89tlnMnnyZDl9+rThQVWkSJELBKy///5bunXrJj169JDmzZuf90ZsH8ybN69A5Lr//vulatWqMnbsWClUqJCxHRH/Fh8fL99//70ULlzYeJYeWFksND5OAiRAAiRAAiRAAiRAAiRAAiRAAiRAArmJwO+//y4LFy40PnnevHmGl1VmD6zFixdL9+7dBVsM69WrZ5yFFRERcR6mTz/9VMaMGSP9+vWTu+++O+O3N954Q6ZMmSKjR4+W66+/ngJWbqpc/FYSIAESIAESIAESIAESIAESIAESIAESCDSBFi1aGF5YmQWs6dOnG2db4SyrX375RRITE6VBgwbSp08fKVOmjJENCFx//PGHzJ07N+Pf8O9ff/21DBkyRHr27CnYbohAD6xAlxzTIwESIAESIAESIAESIAESIAESIAESIIFcQsCXgAXxCiIWtgVeeumlcubMGVm9erUUL17cELbglfXAAw/IP//8Y4hYOEfLDBDD4JXVtWtX4xwtCli5pDLxM0mABEiABEiABEiABEiABEiABEiABEjADQK+BKxBgwbJihUrjLOtcMYVwoIFCwxhCqIWvKwefvhh4xysJUuWnJc1ClhulBTTJAESIAESIAESIAESIAESIAESIAESIIFcSsCXgAUcuK0wT54855GBVxUOeMcZV6+//rosWrTI2GKYP3/+jHjcQphLKxM/mwRIgARIgARIgARIgARIgARIgARIgATcIOBNwEpJSZG9e/dKgQIFjC2DnuG5556TZcuWCQ5wnzFjhuBGw/Hjx8sVV1yREW3ixImCPzzE3Y0SY5okQAIkQAIkQAIkQAIkQAIkQAIkQAIkkMsIeBOwTpw4Ic2aNZNq1arJhx9+KHnz5jWo4N9x2yBuI5w9e7Zs3bpVOnfuLE2bNpURI0YY52BB/MLZWNu2bZP58+dLkSJFjGd5iHsuq1j8XBIgARIgARIgARIgARIgARIgARIgARIIFAFfWwh79+4tCxculBtuuEHuueceSUhIkNdee02OHTsmgwcPlltuuUVOnjwp8MjClkLEadiwoXzyySfy119/GcIWthuagQJWoEqM6ZAACZAACZAACZAACZAACZAACZAACZBALiPQsmVLSUxMNLylPEN8fLxxxtW8efMMjyvzPKyBAwfKHXfckXE2FoSpnj17ysaNG404CG3btjWELc+bCXOlgIVT8BlIgARIgARIgARIgARIgARIgARIgARIgATcJQAha//+/VK4cGEpU6aMREZGXvBCCFcHDx40/pQuXVpKlSp1QZyjR49Knz59jH9/5513pHHjxu5m3EbqedJN6c3GQ5qoFLA0lBiHBEiABEiABEiABEiABEiABEiABEiABLIHAQpY2aMcmAsSIAESIAESIAESIAESIAESIAESIAESIAEfBE6fPi1z5syRkiVLSvv27aVSpUrZhhU9sLJNUTAjJEACJEACJEACJEACJEACJEACJEACJBB6AjjoPbsFCljZrUSYHxIgARIgARIgARIgARIgARIgARIgARIIIYFcJWCFkDNfTQIkQAIkQAIkQAIkQAIkQAIkQAIkQAIkkIMIuOaBlYMY8VNIgARIgARIgARIgARIgARIgARIgARIgARCSIACVgjh89UkQAIkQAIkQAIkQAIkQAIkQAIkQAIkQALWBChgWTNiDBIgARIgARIgARIgARIgARIgARIgARIggRASoIAVQvh8NQmQAAmQAAmQAAmQAAmQAAmQAAmQAAmQgDUBCljWjBiDBEiABEiABEiABEiABEiABEiABEiABEgghAQoYIUQPl9NAiRAAiRAAiRAAiRAAiRAAiRAAiRAAiRgTYACljUjxiABEiABEiABEiABEiABEiABEiABEiABEgghAQpYIYTPV5MACZAACZAACZAACZAACZAACZAACZAACVgToIBlzYgxSIAESIAESIAESIAESIAESIAESIAESIAEQkjANQHr5MmTIfwsvpoESIAESIAESIAESIAESIAESIAESIAESMAOgdOnT8ucOXOMR5o3by7lypWz87ircV0TsPbv3+9qxpk4CZAACZAACZAACZAACZAACZAACZAACZBA4AgcOnRIOnXqZCT4zjvvSOPGjQOXeBZTck3AymK++DgJkAAJkAAJkAAJkAAJkAAJkAAJkAAJkEAQCRw4cEBatGhBASuIzPkqEiABEiABEiABEiABEiABEiABEiABEiABGwQoYNmAxagkQAIkQAIkQAIkQAIkQAIkQAIkQAIkQALBJ0ABK/jM+UYSIAESIAESIAESIAESIAESIAESIAESIAEbBChg2YDFqCRAAiRAAiRAAiRAAiRAAiRAAiRAAiRAAsEnQAEr+Mz5RhIgARIgARIgARIgARIgARIgARIgARIgARsEKGDZgMWoJEACJEACJEACJEACJEACJEACJEACJEACwSdAASv4zPlGEiABEiABEiABEiABEiABEiABEiABEiABGwQoYNmAxagkQAIkQAIkQAIkQAIkQAIkQAIkQAIkQALBJ0ABK/jM+UYSIAESIAESIAESIAESIAESIAESIAESIAEbBChg2YDFqCRAAiRAAiRAAiRAAiRAAiRAAiRAAiRAAsEnQAEr+Mz5RhIgARIgARIgARIgARIgARIgARIgARIgARsEKGDZgMWoJEACJEACJEACJEACJEACJEACJEACJEACwSdAASv4zPlGEiABEiABEiABEiABEiABEiABEiABEiABGwQoYNmAxagkQAIkQAIkQAIkQAIkQAIkQAIkQAIkQALBJ0ABK/jM+UYSIAESIAESIAESIAESIAESIAESIAESIAEbBIIhYJ06dUpWrlwpl156qRQtWlSduzzp6enp6tiMSAIkQAIkQAIkQAIkQAIkQAIkQAIkYJvAkSPJcvBAkiQlpWY8GxOTV0qXjpGixaJtp8cHSMANAm4IWJCdEhISZM+ePbJs2TJZsWKFnD17Vnr16iVVqlRRfwYFLDUqRiQBEiABEiABEiABEiABEiABEiAB+wRWrTgqkyZuk6NHkiUlJS0jgaioCClePFq6PF5N6tUvbD9hPkECASYQaAFr9+7d8uOPP8qmTZvkxIkThnCFAOGqa9euUrx4cfUXUMBSo2JEEiABEiABEiABEiABEiABEiABErBH4MD+ROnbe60knEjx+WChwlEyYlRdKVU61l7ijE0CASaQVQErNTVV9u7dK5s3bza8rbZu3WrkMC4uTipUqCDVq1eXhg0bGv9tN1DAskuM8UmABEiABEiABEiABEiABEiABEhASWDC+H/lxx8OWMZu1rysdO56kWU8RiABNwk4FbDS0tJk6dKl8sMPP0h8fLwkJSUZ2cQZV7fddps0btxYYmJiJCoqynH2KWA5RscHSYAESIAESIAESIAESIAESIAESMA/gX6918rmfxIsMdW5tLC8NKyOZTxGIAE3CTgVsPDcoEGDjKwVLFhQrrnmGqlbt65cdNFFkidPnoBkmQJWQDAyERIgARIgARIgARIgARIgARIgARK4kEDvHmtk29ZTlmhq1Coow0bUtYzHCCTgJoFACFjIH862atGihTRp0oQClpsFxrRJgARIgARIgARIgARIgARIgARIIBAEKGAFgiLTCBYBpwIWbhrEge0bN26UtWvXGmdgYVshzr7CuVeXXHKJ1K5dW8qXL+/4U+iB5RgdHyQBEiABEiABEiABEiABEiABEiAB/wQoYLGGhBMBpwJW5m88cuSIfPPNN7Jy5UrjPCwc7o5Qrlw5adasmdSrV09iY2NteWdRwAqnmsS8kgAJkAAJkAAJkAAJkAAJkAAJhBUBClhhVVy5PrOBErBMkAkJCbJt2zbDK2vVqlWC/0coUqSIdO/e3RC0tIEClpYU45EACZAACZAACZAACZAACZAACZCATQIUsGwCY/SQEsiqgIWthKdOnZLk5GTBf0dGRhrbCKOjo41/w02Fv/32mxw7dkyeeuopqVSpkvp7KWCpUTEiCZAACZAACZAACZAACZAACZAACdgjQAHLHi/GDi2BrAhYp0+flrlz58r69esNEQvbBrFNsFixYnLzzTdLgwYNjC2DZ8+elcOHD0vRokUlJiZG/cEUsNSoGJEESIAESIAESIAESIAESIAESIAE7BGggGWPF2OHloBTAQti1SeffCKLFy82tgdCtIL3VWJiohw8eNDwvnrkkUekcePGjj+QApZjdHyQBEiABEiABEiABEiABEiABEiABPwToIDFGhJOBJwKWFu2bJHRo0cbtw127NhRChUqJHnz5jWEq61bt8q4ceOkZMmS8tJLLznGQQHLMTo+SAIkQAIkQAIkQAIkQAIkQAIkQAIUsFgHcg4BpwLWvHnzZPbs2dKnTx+v51p9/fXX8u2338qYMWOMbYVOAgUsJ9T4DAmQAAmQAAmQAAmQAAmQAAmQAAkoCNADSwGJUbINAacC1i+//CLTp083BKyKFSte8D0QuL788ksZNWqUFC5c2NH3UsByhI0PkQAJkAAJkAAJkAAJkAAJkAAJkIA1AQpY1owYI/sQcCpg7dixQ15++WVp2LChtGnTRooXL57xUXv27JHx48cbh7ePHDnS8cdSwHKMjg+SAAmQAAmQAAmQAAmQAAmQAAmQgH8CbgpY6enpsuj3ePnqiz2yb+8ZSU8/l5cyZWKl5V3l5PobSxq3vjGQgJaAUwELdfGjjz4yDnGPioqSqlWrGp5W27dvl/j4eONGwtatW0uzZs20WbkgHgUsx+j4IAmQAAmQAAmQAAmQAAmQAAmQAAmERsCCYDDp3W2y4McDkpr6n3LlkRXoVtdcV1KefOZiiYigiMV6qiPgVMBC6ieTUECZAAAgAElEQVRPnpT58+fLn3/+KUeOHMl4IW4lvOaaa+TGG2+UfPny6TLiJRYFLMfo+CAJkAAJkAAJkAAJkAAJkAAJkAAJhEbAWrwoXl4ftckS/5PPVDc8sRhIQEMgKwKWZ/qnT5+WQ4cOGVsJCxQooHm1ZRwKWJaIGIEESIAESIAESIAESIAESIAESIAEnBFwawvhm6/9I7//dtgyU3XrFZZBQ+pYxmMEEgABpwJWWlqabNu2TQ0RW1vLly8vMTEx+mfS4XfIQAIkQAIkQAIkQAIkQAIkQAIkQAIkEHACbglYQwatl7V/HbfMb4WKcTJm7GWW8RiBBLIiYEH4GjRokBpiZGSk9OrVS6pUqaJ+hh5YalSMSAIkQAIkQAIkQAIkQAIkQAIkQAL2CFDAsseLsUNLwKkHVkJCgnH+lTZERETIddddJ0WLFtU+IhSw1KgYkQRIgARIgARIgARIgARIgAScEcC+l4MHEuXEiRRJSz2XRp4Ikbi4vFK6TKxER0c4S5hPZXsCFLCyfRExgx4EnApYwYBIASsYlPkOEiABEiABEiABEiABEiCBXEsgJSVNPnp/uyxdHC8nTpyVtLRzp7jglri4fJFSs1ZBeea5SyR//ry5llFO/nAKWDm5dHPet2VFwDp79qxs3rxZ/v33Xzl16tQFcHADYcuWLR1Do4DlGB0fJAESIAESIAESIAESIAESIAFrAvO+2y/vv7ctQ7jy9kSjK4pJj56XSBQ9sayBhlkMClhhVmC5PLtOBSyIV9OmTZM//vhDfB21XqRIERk5cqRjwhSwHKPjgyRAAiRAAiRAAiRAAiRAAiRgTaDHM6tl187TfiPmLxApw0fWlfLl46wTZIywIkABK6yKK9dn1qmAtXXrVhk1apQULlxY2rVrJ2XLlhXcNOgZcO5V6dKlHTOmgOUYHR8kARIgARIgARIgARIgARIgAWsC7dssltRU/5e/Y5434tV6Uu3iAtYJMkZYEaCAFVbFlesz61TAWrx4sXz44YfSvXt3qV27tiscKWC5gpWJkgAJkAAJkAAJkAAJkAAJkMA5Am3vWqRCAQHr4uoUsFSwwigSBawwKixmVZwKWOvXr5e33npLOnXqJFdeeaUrJClguYKViXojsGP7KZnx2W5Zv/64nEw4mxGlYKEoqVu3sLRrX1HKV6TLNGsPCZAACZAACZAACZBAziJAAStnlafdr6GAZZcY44eSgFMBC2dgQcA6ePCgtGrVSmrVqiVxcXGCbYNmwJbCyMhIx59HAcsxOj5ohwBuXnnm8VVy+HCSz8dKlYqRN96+TKKieIWwHbaMSwIkQAIkQAK5mcCRw0ny/qTtsnrVUUlKSjNQxMRESKMrikvnrlWkYMGo3IyH355NCFDAyiYFEaJsUMAKEXi+1hEBpwLWiRMnZNCgQXLmzBmf7y1WrJiMGDHCUb7wEAUsx+j4oB0C0z7dKV/O2G35yH0PVJa725a3jMcIJEACJGASwFXkK1cck00bTkhiYqrxzxEReaR48Ri5sklxKVU6hrBIgARyKIE/lxyRd8ZtkZMn/8+z2/NTCxaMlO49LpH6lxXJoQT4WeFCgAJWuJSUO/mkgOUOV6bqDgGnAtaRI0fk3Xff9ZspHPD+5JNPOs44BSzH6PigHQL9X1gr/2xKsHwEBuaAF9058M3y5YxAAiQQdgSSk9Nk/Ngt8sdvh73mvVDhKBn0Uh2pfFG+sPs2ZpgESMA/gbMp6TKw3zrZstm/fVGnbmF5aWgdWzjhOY7jDs6e/b9Dt7EDIjYur+TP73zrA/KccDJF8LcZ8kSIxMXmFdxAx5BzCVDAyrllq/kyClgaSoyTXQg4FbCCkX8KWMGgzHdIz2fXCM7Asgq16hSSIcMvtYrG30mABEjAIDB/3gGZPHGr35udihaNlpdH1ZUSJemJxWpDAjmJQOKZVHm043JJSjrneekrxMXllY+n/U/96RCuxo/bIhvWn5BTp85K+n9aE444KF0mVu64s6zccFNp8TjSQ5X2qZNn5d3x/8q6tccF/+2ZLjxFmzUvI7c2K2N4kDLkPAIUsHJemdr5IgpYdmgxbqgJOBWw0tPT5dChQ36zj/OvsI3QaaCA5ZQcn7NFgAKWLVyMTAIkoCTQ/YlVsnev7332SAaTwed6XmJsJ2QgARIIDYG01HRZv+6EzJi+S7b8c1Lg4YQQEx0hl9YvIu3vryiVKuezJd6cOZ0qD9+/VPVBM2Y1UcXDNuQ+Pf+SPbt99yvwwoJHV7WL9TfFQWR7sf96+XfLSZ/5wLldfQfUEniMMeQ8AhSwcl6Z2vkiClh2aDFuqAk4FbBwePvAgQP9Zr9IkSIycuRIx59IAcsxOj5ohwAFLDu0GJcESEBL4N67FwvOwLIK3Z6oJjffWtoqGn8nARJwicB3c/fJlI93CLb9eguxsXml+/PVpVFj/aqsGwLWsqVH5NVXNmZ4R/nCUbd+ERk0WH/kwV9rjsuIoX+ftyXRW9q16xSWwcPtbXd0qciYbIAJUMAKMNAwS44CVpgVWC7PrlMBC4e4f/XVV+fRS01NFZyNtWPHDklJSZHGjRtL586dHRMOewELK2W7dp6RkwkpYs5h8ubNI8WKR0vFivkkD72wHVeOQD5IASuQNJkWCZCASUA7Iej6eDW55TYKWKw5OgLY2nXwQKIcPJiUIbjAnMBWtHIV4qRwYd5qpyN5Lha24eEsTH9eTYhn96wqNwQsCG3vT9pm+XnRURHy6YwrLeOZEX5ZeEjGvbVZxEJvxzbFqTbSVWeAEUNOQDtejXi1nlxcXe/dF/IPYwZUBMJNwMI4uG9fohw+lCgp/53Zh3l1vri8UqFSPinAM/tU5R6ukZwKWP6+d/v27fLmm29K/fr1pWPHjo7RhLWAhRtnRr28Ubb+e9IwMM2zBIzGlT9SGl9RTLo+VlWioiMcA+KDgSFAASswHJkKCZDA+QS0EwIKWKw5dgjM+3a/TP98l3FOUWrq/ykO5hlIvV6oYQhZDDoC8fHJ8vRjKzO2Dfp6ClvopnyuF4XcELDmztkrH72/XfVh2m2JSGzhgoPGhROaYCddTXqMkz0IaMcrCljZo7wCnYtwErDg2Y7b47/9Zr8xDpqe7phjYxwsXyFO+g+qLYWLcDEn0PUku6TnhoCFb5s5c6YsWrRIXnvtNcnj0NMobAWspKQ0w8V7zapjPssZ55507FxFbm9RNrvUhVybDwpYubbo+eEk4CoB7YSAAparxZCjEt++7ZQM6rdOzpzxfTB40WLR8sroelKsWHSO+na3PubwoSR5vMsKVfJ2xBsKWCqk2SISFplxG/Xsr/bI+rXH5fTpc+0Ltnrx4tFy3Y2lpFXrcoKtpDk1aMcrClg5swaEk4CF+fWoVzZKcpL3Ld8ooVKlYmTE6HpSqBBFrJxYY50KWDjEPSHhwpuB8e/YXjh16lTZvXu3IWBFRzuzocJWwNq187QM6LM2YwD0VXGgEL8x7rKcWK9c/yYcsjp1yk7ZufOUpP53jTSupL/+xlJy513lBFs1tYEClpYU4zkhgK0+Uz7aKRs3npCU/85XwSG7VzUpIQ88VFHyRtr0wkwXWbPmuHwxfZex5cVcecLW5Ftuwy1RuH1KX/+dfBOf0RHQTggoYOl4MpYY4tWGv09Youj06EXS/A4ukFmCEhEKWPTAOno0WXo/t0aOHUvxWmWwEF+jZiHj/C+74ysuCPju2/2yYP4BOXok+ZwwljePVKiQT9q2ryCXZpND8bXjFQUsTa8SfnHCScDq22utbNl8oQjhSR1t9tnna0iTq3lBTvjVRuscOxWwcAPhsGHDvL4gLS1NkpOTpXbt2tK9e3frTPiIEVQBC5NAHGIJ8ensf4JI3ggxrjavf1kRyZ8/Uv0hWMWBgGVuG/T1IESWz764Sp0uI4rB9Ptv9xniFa6o9hZq1S4kvfrWkIIFdaq7mwIW8rt712nZtDFBEhLOZmQXe7Or1ygolSvzLLScXK+XLIqXCe/8K7j23FsoXTpWeveradxupQlYIZj5+W6Z9eUen4cNX/G/YvL8CzVsG9ma9zOOPQLaCQEFLHtcc3Ps+9susdzqBj533FlOOjxSJTejUn87BSwKWGPf2CK//nzQss5gW1KDy4tYxjMjnE1Jk1dHbpKVy496fSY6OkLatKsgrdtUCPm5uNrxyomAhTnWurUnZOeOUxnnFWGOVbR4jNRvUJheMuoa5V7EcBKw7rtnseWFEyDFhRz36kuoU3YqYOGw9kmTJl2Q/aSkJIG4hUPcu3TpIpdffrnjTwyagJWUmCbDh/4tG9Z7X9XEJHP4yLrqvbQQKyBgaYIdd3RNejk9zo7tp+WF59ecd+6Ht2++u21Fue+BiiocbgpYSxfHy5uvb/Y64YCA+diT1QyvMbsBwhjEDE+RFKsN2K/rcMuu3SyEPD4MoswiMb7d7uqo54dkThN+TAZTm05SSPPE8RQZ2G+d7N3j+7pzxLv62pLSvUd1FU9c8/7SgHWWcR/pUlVub1HGMh4juEtAOyGggOVuOeSk1LV1Ct5XMN4ZrAlQwKKA9VD7pYKLl6zCw52qSMtW5ayiZfz+9ey98vEH1meWDR1RV2rWKqhO142I2r7FroCFc4BfH7VJVvgQ8eAoMGJUPSlSVLfo7M9mw29ZtQPdYBsOaYaTgKWtq1jEwWJOdghuzFmyw3eFKg9OBSx/+cUthCNGjJA6derI008/7fjTgiZgzfhsl8z4fJdfjym4+L7Qr6Zg649VoIBlRcj577gp5+23Nlt6t+HsjwnvN1K9yC0BC2eVvNh/nd+tpLg16sWhdaTaxbobXdLTRBYvOixz5+wzVrJw3hpCRIQYK1gNGxcTGFj58lnXUxWcbBgJHpLwwsOhsxCHMjwm8+Ksihi5qmlxaXtvRYmJ1atOMFw/+3SXLFkcb7j4m9vyzMMgcUPcTbeUtrU1Fd6cfXr+5dNTykQLT8H3P2msIv351F0yc/ouy7gQ3cdNcL56YPkCRlAR0BpZFLBUOBlJRLR1igKWvrpQwKKApW1X9z9UWVq3Ka+uXE90WSGHDiVZxrebrmWCDiJoGdgVsObO3iuffLQjw67yljXYwANeqq2+OQ62L2yhRb/HS/zhpIxF7cjIPFK2XJzccFMp44xh/D+DjgAFLB0nu7FSUtLk26/3yS8/H5J9e8+fs0C8bXp1Cbm7bQXBJSEMegJuCFh4+8cffyzLly+X119/XSIj9bvvPHMeNAHria4r5NBB/wMMhAZ02ji3yipQwLIi5Pz377/dL5MnblUloPVuc0vAmjB+q/z4w37LvDa5uoQ81/MSy3iIANFqQB//B/hWuSi/vDyqrnETR04MP/907rYkf1t0ITZ1fbyqyhsLt3iNGf2PwFvOV4AR1KNXDWn8v2JqpNu2nhIYBJqgrauo+2gDVgErkNO/amIVjb+7TEA7IcipApaxbeSv4/LpJzuNvssUm7GFuuk1JaVd+wqCswsZ9AS0dYoClp4pBSwKWNp2ZVdo0qbbqnV5ebBDZX2ldSGmNq92BaynH18p+/cl+s0xtlJiMfeSGtZeaBhXJk3YKvPnHfCZJmygbk9UMxYeGXQEKGDpONmNNe+7/UZ99Rduh8d054ts7aDBHOjY0WSZ8vFO+XNJfIYHKeZ+NWoWNPqTqtUK2ErT7reFMn5WBCxsE/QWcAbWmDFjBJ5Yb7zxhsTExDj6xKAJWPfevdjvygByj85w5Gv15aKq+S0/xm0B68SJFFm44JBxttLZs+c8cKKjIuSSmoXkhptKqibtlh8RoAi7d52R3345JIcPJ2Uwxnli9eoXkUZXFLWd13ASsIYMWi9r/zpuSRJ1atTr9S3jIcKIoRtk5QrvZymYCWALXd8BtWyd04BnYRQsX3ZU/lp9TE6dOndmE9IqUSJGrr62hFSspDunSfUhWYgEr6Z/t5z0m0LRotHG7SO4PcgqwFMKByOfPOn9nCrz+Zq1CsnQEZdaJZfxezgKWDt3nJbffztsrGiaXmgQG+o1KCING9lvr2pYOTSidkKQEwUsGFfTP9slc77yfV5bufJx0ndgLSlTJjbkNQD53bL5pCFkHzmSbGzRRihcOEoub1hM6tYv5PhK5UB+nLZOZRcBCwdY//rLYdn49wlJSj63RSsyb4SULR8nN9xYUnBjYqgDBSwKWNp2RQFLjMX8i6vrdg2gbWvnWP1frC31G1ifL4YD92EHHok/dyC+r4DJ+8jX6oW6ewmb91PAcqeoej23RrAjx1/APAvzwIKF9B4/GzeckNEjN8lxHxdP4MbUhzpUlltvz5nHiTgVsI4fP+71DCyUz5kzZ2TXrl1SuXJl6devn+MKETQBSztwoSNEh2gV3BSwMNkePmSDMcH0FnAYNAYBJ9dnwxMl/nCynDlzVtL+u5kUW9Py5Y80RAy7Zyth5R2NyxRDMucXZz91e6KqRNq4hS2cBKyXBqyX9eusBSyU2WtvNrCqVsbvD7RbYrklDfG6PFZVbm2m77TgGTHxnX+NbXneAkTH53vXkLr1C6vy6WYkzeGNEN5ee6uBVFB4TP79/8++w7lSVpcuYFVj6owr1Z8WbgLW6lXHZMzoTXL6lPdzQG6+tbQ82q2qrW2UaljZICLKH4YxDtxHX4iAPi8mJq8hhEY7cO/Wji05UcCCGIqzIM/4uGzDLHKskOMswFAHeHa+9+5W7/1rHpF72lWUdu0r2h4H8V2nT6caW5OxlcDsZ+DVCXHMrgeatk45FbBwdt/x4ykZ3nJoA+j7sCiQL7+9relIa9SIjcYlJt4CxKt+A2pJFcXCoJv1gwIWBSxtu6KAZV/A0rIdAAHrMmsBC95c3Z9cZel4gD522sycfVEWtlJiPohzxsyxBefrQggpUiTa1nhFAcudUUY7Zxk/saEUL6Ff0Bn58kZZ/ucRv5kuUzZWho3Qn+HtDgF3UnUqYOGg9lGjRnnNVFRUlOTLl08efPBBqVLF+SU4FLAy4cVEAB44VldoN2teVjp3tXd4K270w21puIkREzjT+wJCgLEC3aioPPLoRepJ3J49Z6TP83/5PRTz3CHmF8v1N5ZU1+7cLmBpDQGUFVxStQFni70zbovfw/Gh5r8yWreNVvteJ/G0DF5/q4HKa2zd2uMyeOB6VVa0W/2QWDgJWPCU7NvLur0+2b26XHNtCRWrcIoEweqrL/bIT/MPGN43ngJWXL5I43Ddp5+trj6fw/x2bV3NiQLWn0uOyGujNllOMgoWjJT3P7kipNVl8z8nZfDAdRlnCnrLDEScXn1rymU2biBDOnt2nzH6VlxAkpiUKnJOG5Wo6AhjYeje+ysaZ2Bog7ZOORGwFv8RL599utPwmMaEyAzo+7HQAqHRjicuto7O/nK338UBbHkfNLiOrZVnLSttPApYFLC07YoCVugFLJwj9MwTq1TN247NpkowG0XCzeZvvv6PbN6UYCwUeS6OFCseI82al5EWLcuqd7pQwHKncLV9yzvvNRSciaUNHe5f6veMZcPOiIowPLsqVLQ+/kj73uwSz6mAlZqaKriJ0FuIjo6W/PnzOz77ykyTAlYmugcOJEqvZ9dYrmhjVXOi8gBzvAJiFVaef/zB935yxGv/QCVp07aCqu5ibzo8eqxC+fJx8sbbl1lFy/idAtYiFSu7AtazT60yJlpWwY5nF+oVto18MXOP8bc5IUKHCk/Gu1qXk8saFbXt0aMdDChg6c/A+nbuPvlg0jar4pcKFfLJmHE6b0HLxLJRhGV/HpExr/7j9bZQM5s4m2Pg4NqCybw2aOtqThSwfv/1sGFca4LdSQY8Rv/47ZDMmbVP9u7BVvpzqhDKBttd776nvK2zHz6cvF2++XqvZVZxmQvOadEGbPfv3eMvnx7TSAdbdOHdXaq0bhultk7ZFbAOHkiUF57/y+9W6uIlYoy8YlFLEx57dIXfb0caOPsGW7M13u2adzqJQwHLPQELXq3fzNknv/96SOI9tnxhl0DTa0vKHXeWdbRjAN59GLew+BYfn5QxeYenIC5ywU2BdiaD2naVnQQseCLNnrVXli2JN7wmEeAxWbJUrNx0SylpdntZW16TWgZ2txBq09V6YFHAEjlzOlX691kr2JXjK+BQ8D4DagnGLU2ggKWhZD+Otv7bFbC06Y5+o4FUrqI7Aga21OI/DsucWXv/O6bonG2FulS3/jnbChcuZOW2d/sEvT/hVMAyUzt58qSxXfDgwYOSnJwsxYsXl1KlSkn58uWzfFwEBaxMZQaB4dmnV2Ws4PqqBHYPcMbZPz2eWW1scfAXcLPHW+N1YtMXM3YbK7lWwW5eKWC5I2C1a73IcgsdyvLe+yrKPfdWtCpW43d0guPe3OJzyyOErPserGTrSmqkq+20KWDpBSy0VbRZq2C3vVqll11+79d7rWz+x/s2JzOPmGjDwK5Vp5A629q6alfAOnP6rMycsUc2rD+e0b6Qv9qXFjYWGXDpSKiDWwIWVpkhts6ftz9DuMr8rbiRte/AmnJxdesDgfHsayM3GTeQWgUIOO9OamgVLeN3TNw/fN9aGG58RTHp3a+mKl1tnbIrYGG7v7+LLMzMPdSxitx5l+5acu24MuTlS6VWbX27UoGyEYkCljsCFjxZcRPzP5sSvNoXGE/QRiFgwiNfG7A4Bq9p7EbwtfUfgigus9Gmq21X2UXASk1Nk17P/eVTwMAEs269wtJvUC31ZFPLgAKWtqb+Xzyc2/r1rL2yd++ZDK/kgoWipEnTEobYaFcQWLn8qGALmblbxleO7JzdSgHLfrlqntC2q1ALWOhLp3y03VgYMBcFM38fFtxgq4RyvDbzlBUBa/fu3TJ58mTZv3+/4OB2M8TFxUmtWrWkQ4cOEhurW1T0VgcoYGWiYghYTwXebfbY0RTp1nm5ZUcIQ+CzL3T7yWdO3y2fT7UWsPCJdlbfKWC5I2BpO9h291WUtkoBa2DfdYJDBv0F3Or58qh6ki+ffsKtzSsFLL2ANe3TnfKlQsCy2141g7uTOBho9+9PNIx3bH82A+pRpSr5pVQpvRs2ntWcUYDJVo/eNeTKq4qrs6ytq3YELBw0/uorG30eYFuseLT07lvTWCULZXBLwMI4iL4lIcH7LTLmN19xZXHp1aeGCsHoVzbJ0iXWAhbYTpjcSJUmIsGz+YfvrW8NhVH4wRTdNkptnbIrYD3acZnPw2A9P/jGm0vL40/pzizT5nXI8EttCcPqAlBGpIDljoD17dz98sEk61ujOzxykeGJpQ0L5h+Ud9/eYhm9/QOVpU3b8pbxEEFbV7OLgPXJRzuMCzKswnO9akiTproxS8uAApYV9f/7HbbKLwsPyvvvbfO5e6bRFcXk2R7VJcaGdzd2zEwYb73Lxc7ZrRSwzpUbygy2JcTG5KRz4gbsP5wFDGG8SFGdB7JZC7TtKtQC1oH9iTKg7zrjZkN/oWGjYtJngG7BTd9S7Md0KmAlJibKq6++Kni+bt26Urp0afnuu+/kuuuuM24fxJ+WLVtKixYt7GfqvycoYGVC55aABRfvrp2WqwpKKzZRwBJx4xB3bUdodwuhNl07ApbmwHkcsjn+vYbGAcHaoM0rBaycK2D98dth41piHI7tuQJpHF5aMFKefvYSqddA5zZvZ/LSo9clclXTwJ9XpBWwsFD08pC/Zc3qY36by2WXF5V+A2uJ6J0atM1PHc8tAWvtmuMybPDflgsu2E74yWf/U+XXLQELZ1/99KP3izE8Mwb3/Cmf6y6I0PZ/dgUszXkayPN1N5SUp7pXV3HV5pUCln4hb+6cvfLR+9tV/LX2GhLDBS7jx1qLQoirTXf44L8Fl4NYhTqXFpaXhum35o4Z/Y8s+v2wVbLGreHaG561dTW7CFhdOi6TYz5uH/MEgzOQOnbWnYmrZUABy7LqZUTYvu209Om5xu/5shBHHu54kdzRSi/iYmEECySaoG2vFLDOiVdYzJ2F25OT0i6wL0uWjJGBg+tIqdL6RVJtuwq1gIXLVnAju5VXnx3bSlM/ncZxKmCtXr1a3nnnHbn33nsN0erYsWPGjYPDhw83zr8aMmSIREREGP/vNFDAooB1Qd2hB1b4eGBpO214NMCzQRu06VLAypkCFm63wyDr63ZT1COIWMNG1pVy5XQHV2rrVKgFrNSz6dK5wzK/347vx0ohPHrs3hyrbYOaeG4JWKtWHpWXh2zQZEE90aaAJUIBa0VA6xQSwzk1D9+/NKDphpOAhVtIfd1A6QkFXg04W00bRgzbINhCZRVKl46VcRMut4pm/K4dA7KLgHV/2yV+z2w0P9rOLa9aBjlZwMJNsTjDd8H8A7J3z5mMrVRYbK1UOb/c2qy0XHdDKcH/a4JWaCpVKlbenqirq3ivNl3EpYCl2/IOVrg5Hpel4XZHXwEL7q+8Vk99dp+2XYVawNqw/oQM6r9OU63VdUqVmMNITgWs77//Xr755hvp06ePcd5VfHx8hoBVokQJ47e5c+fKW2+9JbiV0EmggJWJGj2wRChgUcDSDgYUsHKmgIXD1hf9Yb36fnuLsvJIl8CuPIdawMK5BNjuqAnTv2pCAWuWrg1QwAo/ASv1bJp8+sku+fmnAxkHz0dGRkj1SwrKI12qSOUq+TXNxIjDLYTueGBRwNILY61al5cHO1RW11kKWIE/TgXwNeeB2rnM6MuZu2XalMAfp0IBSzcX6vBIFbnjTr2A1afnX4LzyqxCtyeqyc23lraKZkscp4ClwpkRyamA9fvvv8uUKVPk2WeflZo1a14gYE2cOFE2bNggY8aMsZchj9gUsChgXVB5KGDpOu3ssIVQKzTRA0u/QjZ54lZDxLUKdg9bD6czsJ5/ZrXs9HPzjsnG2EY3qJYVKlsGBgUsFU4jEj2wRLiFUDde2d1CiNvXcIDx7l3eb+DCJQYPPFxZbm1WRiXiUsCigKW1V+iBJZJTPbDOnEkVbKND/+IvXFS1gIx6XecxSAFLZMig9T5wgT0AACAASURBVLL2r+OWxkOFinEyZqzuojBte7UrYGnOQ8WH2DlORZtXCliWVeS8CE4FLNw+OGzYMCOtu+++W6pUqSIDBw40Dm7H4e4LFiyQyy+/XLp162YvQxSwfPOiBxY9sLQdIQUsEXpg6bxP0OOEk4DV/clVhmu/VahXv4gMHFzbKhoFLBUh+5EoYFHA0o5XdgWsCeO3yo8/+BfyCxWOkuEj60qZMtY3CVHAooClrasUsHKugJVwIkW6dFru97wqjITYPjhtpu5CKwpY4SVgafsB3MaOW9k1QZsmBSwNzf+L41TAQgrLli2Tjz/+WEqWLCmPPPKIDB061Eg4T548ki9fPunZs6eUK6f33Mucc3pgZSJCAYsClrYjpIBFAQtbyLSBApbOU4QeWNoaRQ8skKIHlq5d2RWwcA7cieP+b6HEhQ64yKBegyKWlZYCFgUsrW1FASvnClgnTqRI54eXWfYXiKA9V4oCFgUsbd9CAUvV9DIiZUXASktLk61bt8revXulTp068vnnn0tsbKxUrVrV2FZYpkwZe5nJFJsCFgWsCyoQtxDqJgQUsChgUcCiBxYPcdeJuDwDK7zOwNJOCF7oV1NwRb1VoIBFAUtbpyhgUcCigFVQho2oa9WtZvweTlsItf0APbB0tpW6kjiImBUBy8HrbD1CAYsCFgWsTAS0nSsFLApY2UHASk9LlxUrjsnSxfFy/L8rvyGqFC8RI9deX1Jq1CyoOqPGsxlwC6F7h7inJKfJd9/ul00bT0hKcrqBPSoqj1S9uIA0u72M5C8QqR7EuYWQHlja8cquB5Y2XQpY+knGwgUHZfzYLar2rfU+4SHuPMQdFUrbXge8WFvqX2btMblv7xl55onAH+JOD6w1sm3rKcs+oEYtClgUsPRji2WFchiBApaNzhXX/OK6X6uAa4MxcGuC1hBAWtxCyC2EWkOAAhYFrFALWOnpIp98tF2+nrXXa1cYHR0hHR+5SG6+rbQtEYsCljsCFiYFwwdvkAMHvB9gW6JkjPTpX0sqV8mnGdp4iDu3EKonrhSw9FuS5s7ZKx+9v13VBu3YlxSwdN7t9MCiBxY9sChgUcCigOVvEKYHFj2w6IFFD6wL6oBWxOMh7voBxo0zsP5cekRef3WTpJ4958njLURFRciLQ+sYnljaQAHLHQHrjdf+kT9+O+y3GOo3KCJ9BtQyDrG1CvTAogeWtq+mgEUBCwvE2jBi2AZZufyoZfTSpWNl3ITLLeMhgrauUsCigEUBiwIWBSz9/ELVAWeKlJycLGvXrpWEhATjRsBChQpdkAw9sGwMXPTA0htZM6fvls+n7lTVWzurhDwDS7dKSA8semCF2gNrYN91snHDCcs+4I47ywmuOtYGCljuCFg4vBZbKPyF/Pkj5e2Jlwv+tgoUsChgaUUBClh624oeWCIUsETub7tEUlLSrLphuemW0vLYk9Us49kR8Ua8Wk8urm69G8V8qbYf4BZCvSjww/f75b13t6rKVTvH6t2DWwi1dZUClr6uopKeTUmX3345JN9+s0927zotZ/9b2MZOjBo1C8mdrctKvXpFJCJvHlm3bp0MGTLEOGQdtwIi3HrrrTJgwACJi4vLqPMUsChgydGjydK10/KAdoQUsEReGrBe1q87bsm1UuV88tqbDSzj2TEwKGBRwAq1gNWl0zI5dtS/III63eTqEvJcz0tU9R+RKGC5I2C1bb1IxLezXEb5vP/JFVKwIAUsTYXlLYS6BRcKWBSw6IFVXh7sUFnTrRhxKGDxDCwKWNbNBYujWCTVBgpY61SotKIoEsNxIp9+skPmzt4rqanejUwIWc/1ukRq1oqWxx9/XLZs2SJPPPGEXH311TJt2jSZNWuWNG3aVMaMGUMBy7OEtBWWHlh6I4sCFgUsbbuaMLmRFCsereo07Yh43EKoXyFxYwvhox2XZRzc7q9wr2paQnr0ooB1y22lLdsAVq3uu8clAesundhAAauRZTmZEShg6eoUBSy9bUUPLHpgUcDiIe70wNKNLRSwREa/0UB1dumG9SdkUP/AC1hHjiRL/95r5fDhJL+2U526haXV3cny2GOPyU033WR4YUVGRkpaWpp07dpVVq9eLTNnzpQqVc7t2KAHFj2w6IH17BrZsd365o1adQoJDG1toAeWboChgKWfvEyeuFWwjdYqwOs21B5YFLD056p0fbyaUMCyqtXnfl+18qi8PGSDKrJ2lXD0K5tk6ZJ4yzQhtKO/0gYKWLoxgAKWfgyggEUBiwIWBSwKWLqxhQJW6AWsXTtPS6/n1vj0vjLtKXhhNbxykUydOlXGjh0rV111VYap9eGHH8q4cePkxRdflJYtW1LAMsloPUXogaU3suiBRQ8sbbuigKVvVxSwuIWQHlgUsDQCWvM7ykqnRy/SRDXidLh/qZw+nWoZ/7obSspT3atbxrPjLUsBSz8GUMCigEUBiwIWBSwKWNo5Vqg9sHZsPy09n12tshmKl/lYli9fLvPnz5eiRYtmPPPdd9/JoEGDpHv37vLggw9SwKKAdY4Az8CiB5a2I2x3X0Vpe29FVUekTZMCln7yQgGLAhYFLApYmg6YApbIC/1qSqMrilniOnwoSR7vssIyHiJovfoQ98zpVHn4/qUBTZcCFgUsClgUsChgUcDSzrHCScCSqDGyY8cOWbp0acYB7ujvFi5cKC+88II88sgjxhZDBG4h5BZCCljcQqi+QpoClv5cqW1bTwluddEE7aSIAhYFLApYFLA0fQoFLApY2nHFmCAsOCjjx27RVC21iDegz1rZtDHBMs2q1QoID3HnIe68hVBvX1LAooCVEwWsuELvysaNG2XJkiUSERGRMXbMmzdPBg4cKE8++aR06NCBAhY9sOiBBQI9KWBRwBq43tLItrv6TgGLh7hrDQyegaU33HkGls5wp4BFAYsCVqyMm3C5amzX9tX3P1RZWrcpr0oTkbTptmpNAYsCln4cpIClGwd5Blboz8Cys4Wwao3ZsmDBAvn++++lRIkSGf3sl19+KS+//LL0799fWrduTQGLAhYFLApY5+qA1siiB5bewKCARQFL264oYOnbFQUsneFOAYsCFgUsClg33VJaHnuymkpw045XI16tJxdXL6BK0459SQFLPw5SwNKNgxSwwkvAanXPVnnjjTfOO6wdfciwYcNk1qxZMmnSJGnQoAEFLApYFLAoYFHAWrf2uAymB5Z8OWO3yiDVTop4C6FeGKaApTfcKWDpDHcKWBSwtH01txDq+2p6YIlQwNKfhfflzN0ybcrOgNpWSIwClm4cpIAVXgLWW+9cJPfdd5+UKlVK3nzzTePvf//9V5544gnJmzevzJ07V6KioihgUcCigEUBiwIWBSyRaZ/upIClMDF79LpErmr6f27NVo9oV7QpYFHAmvL5lVbVyZa3LAUsClgUsOiBRQ8s/dhy4kSKdH54maof1rYtClgiQwatl7V/HbfkWqFinIwZe5llPDtefRSwwkvAmjbzCnnrrbfks88+k7Jly0rhwoVl9+7dkpycLG+//bbUr18/o37wEHcb26dwyCQOm7QKOLQSh1dqgrYTRFp7dp+RZ59apUlWfcgmEuMthLyFUDvR5hZCvTHELYTcQqhtVxSw9O2KHli6lWcKWBSw7NiXPMRd167ogUUPLMybtG2LAhYFLK0d+M57DaVEyRjVHN+OiBdOtxCiXaWmpsp7770nq1evluPHjxsiVtu2beXGG28872ZCClgUsChg8RB3noHFLYT0wFKYDfTAEnn/kyukYMFIS1q//3pY3nz9H8t4diYDiEsBSzfRpoBFAUs7yeYWQm4htDMh5hZCCljDRtRVje2IRA8s3ZhNAev8dgWvK/yJjo42/mQOFLAoYFHAooBFAYsCFgUshTlGAYsC1oTJjRQ15VyUd8ZtkZ9+PGgZPyYmQriFsJAlJzOCdkX7hX41pdEVxSzTPXwoSR7vssIynl2x9czpVHn4/qUBTXfunL3y0fvbA5omBSwKWBSwRLiFcI1g54BVqFGroFDAqij33lfRCpXxu3a8ooClF4bBNVcKWNdee+15lS7xTKqqEkbHREhERB7LuGlp6ZKclGYZDxFi4/Kq4iGSW+mmp6dLUmJg83v2bJqcTUlXfZsdBm6km5SUKumKz4+IEImO0ZdXclKqpCnSzRMhEqNMV1tXI6PySGRkhIo/IqnTjcwjkVG6dLVpxsRGnOcWapVpbbra9pqami4pyYqCygbtNSUlTVLPBr5duZFuYmKqiCKrEXnzSHS0rk6hbqjbq410tXUqKjpC8ua1HgPMOqxNV9te09NFksBVEez0q3b6AG17datduZFucnKapKUqKmsekdhY/Rigblc20tXWqbyReSRK2Vcb5a9sr6j/aAeaoM2rtq+226607dUNGwh5dSNdN2wg5NWNdLV9tR0bCHnVttc8eURilO1VW1e1fbXduupae7XRD2gZhLq9ci6UQ9trGM2F7LRXbbvS2lZ2+xZte3WrXbmXbpokJibKr7/+KrGxsRKBSXo2CXnSMfq7ECZMmKBO9ejRozJz5kzp0qWL+hlGDAyB77//3tgL26JFi8AkyFT8Evjll1/k0KFDcs8995BUkAlgv/dtt90mlSpVCvKbc+frwBsLGTVq1MidAEL01XAH/+ijjziehoD/b7/9Jvv27ZN27dqF4O05/5Vbt26VBQsWsG6HoKinTZsmlStXliZN9GfphSCbOeaVuM6+YMGCctNNN+WYbwqXD4Ht0r59e4M/g/sEwLtVq1bGbXgMwSMA76o5c+aoxtNu3boFL2PKN7kmYCnfb0TD9Y333nuvLF++3M5jjBsAAt27d5ekpCR59913A5Aak7AiMHjwYFm3bp3MmDHDKip/DzCBRo0ayZgxY+Saa64JcMpMzhsB8B4wYIDcddddBBREAgkJCXLDDTdwPA0ic/NVw4cPN7h/9dVXIXh7zn/l/PnzpW/fvqzbISjqli1bGmNn7969Q/D23PfKDh06GDeEvfLKK7nv40P8xbBdZs+eLeXLlw9xTnLH68H7gw8+kLp19Wd+5Q4y7n7lmjVrpHPnzmE7nlLAcrd+ZPvUKWAFt4goYAWXt+fbKGAFlz0FrODyNt9GASs03PFWCljusqeA5S5ff6lTwAouewpYweWd2VakgBU8/hSwgsfa800UsALAnR5YAYDoMAkKWA7BOXyMApZDcAF4jAJWACDaSIIClg1YAYxKASuAMG0mRQHLJjCb0Slg2QQWwOgUsAIIU5EUBSwFJJei0APLJbA+kqWAFVze5tsoYAWAOwWsAEB0mAQFLIfgHD5GAcshuAA8RgErABBtJEEBywasAEalgBVAmDaTooBlE5jN6BSwbAILYHQKWAGEqUiKApYCkktRKGC5BJYCVnDBWryNAlYAioMCVgAgOkyCApZDcA4fo4DlEFwAHqOAFQCINpKggGUDVgCjUsAKIEybSVHAsgnMZnQKWDaBBTA6BawAwlQkRQFLAcmlKBSwXAJLASu4YClguc+bApb7jH29gQJWcNlTwAoub8+3UcAKLnsKWMHlbb6NAlZouOOtFLDcZU8By12+/lKngBVc9hSwgss7s63IM7CCx59bCIPH2vNN9MAKAHcKWAGA6DAJClgOwTl8jAKWQ3ABeIwCVgAg2kiCApYNWAGMSgErgDBtJkUByyYwm9EpYNkEFsDoFLACCFORFAUsBSSXotADyyWwPpKlgBVc3ubbKGAFgDsFrABAdJgEBSyH4Bw+RgHLIbgAPEYBKwAQbSRBAcsGrABGpYAVQJg2k6KAZROYzegUsGwCC2B0ClgBhKlIigKWApJLUShguQSWAlZwwVq8jQJWAIqDAlYAIDpMggKWQ3AOH6OA5RBcAB6jgBUAiDaSoIBlA1YAo1LACiBMm0lRwLIJzGZ0Clg2gQUwOgWsAMJUJEUBSwHJpSgUsFwCSwEruGApYLnPmwKW+4x9vYECVnDZU8AKLm/Pt1HACi57CljB5W2+jQJWaLjjrRSw3GVPActdvv5Sp4AVXPYUsILLO7OtyDOwgsefWwiDx9rzTfTACgB3ClgBgOgwCQpYDsE5fIwClkNwAXiMAlYAINpIggKWDVgBjEoBK4AwbSZFAcsmMJvRKWDZBBbA6BSwAghTkRQFLAUkl6LQA8slsD6SpYAVXN7m2yhghYY730oCJEACJEACJEACJEACJEACJEACJEACJJBLCORJT09PzyXfys8kARIgARIgARIgARIgARIgARIgARIgARIIQwIUsMKw0JhlEiABEiABEiABEiABEiABEiABEiABEshNBChg5abS5reSAAmQAAmQAAmQAAmQAAmQAAmQAAmQQBgSoIAVhoXGLJMACZAACZAACZAACZAACZAACZAACZBAbiJAASs3lTa/lQRIgARIgARIgARIgARIgARIgARIgATCkAAFrDAsNGaZBEiABEiABEiABEiABEiABEiABEiABHITAQpYuam0+a0kQAIkQAIkQAIkQAIkQAIkQAIkQAIkEIYEKGCFYaExyyRAAiRAAiRAAiRAAiRAAiRAAiRAAiSQmwhQwMrGpZ2eni7x8fGyadMmSU1NlYsvvljKli0refLkyca5zhlZS05OltWrV8vBgwelUqVKUqdOHcmbN2/O+Dh+BQmQAAmQgCMCGJfxJyIiwtHzfIgESIAESIAESIAESMA5gaAJWFOnTpVx48ZJ6dKl5csvvwyqCLNo0SJ5/vnnZcyYMXLllVdKQkKCfPfdd/LPP//Inj17pEyZMlK3bl25/fbbJS4uzqAJAePHH3+UdevWye7du6Vo0aJSu3ZtueWWW6RYsWLOiSuf/Pvvv+Xdd9+VpUuXGuIVAgzmWrVqSYcOHeSGG24ICsPBgwfLH3/8IT/88IORh0OHDsm3334rmzdvlhMnThiC2rXXXitXXXVVhkGfmJgoc+bMkY0bN8rRo0elZMmS0qhRI7nuuuskJiZGSSA00fB9H3/8scydO9eoJ2aIjo42RKwnn3xSGjRooM7c8ePHZeXKlVKlShW56KKLvD4HXvfee69UrFhR3nzzTUMoQ91csGCBbN26VdLS0ozfmjVrJjVr1sxIA+Ia8rllyxZJSkoy6vH1118vjRs3Vucv1BFfffVVoz9AvX7nnXcuqB8vvvii/Pzzz0ady58/v2vZPXDggNx1110ycOBAad68uZw9e1bmz58vf/31l9H+ixQpIjVq1JCWLVtK4cKFM/KBtrFs2TLZsWOH5MuXTy655BKjjyhXrpxrec1Kwk8//bQsX778vCTQ56Fu1q9fXx5++GHjW90OaGd33nmn9OzZU9q0aSNnzpyRr776yqj3R44ckVKlSsn//vc/ufHGGzOEY7SDr7/+WtavX2/0Q+iT0RbB2+y33c53oNPv16+f0cejr69evXqgkz8vPfQz999/v9FPvPXWWxIZGWn04+hn/v33X2OcMfsZtEdvAdyHDx8uVatWlWeeecbV/AYycYz/sAN8BdR/2CiaMH78eJk2bZrMmjVLihcvrnnEiLNq1Srp3r27dOvWTR544AGjj5k3b55grN+5c6cUKlTI6GPQD+G/vQX0hZ999pl06dJFGjZsqH632xExTuG7Tp48Ke3atZPnnnvugleiXT/44IOGTXDPPfcYNlmgw8yZM426jfYEey0lJUVmz55t2CIYL2G7XXbZZdKiRQuj/mcO6GNQtr/99pu89tprro45gf52z/TefvttmTJlirH4hvri5qLnsWPH5JFHHpFq1aoJxnMw/P333436jn4FfTP6ldatW0v58uW9fjYWaTE/aNKkidx3331uonGcNuYKqLcIV1xxhVE/Mtehffv2yd13323EsdOnOM3UF198YdiMsJ1gn2alvo8ePVoKFCjgNCshe+6jjz4y2js4oFzcDJjz3HbbbUZd7t27t/Eq2FMYW7Zv327UB4yNrVq1MuZG3gJsRbCGfYP+MJwD7Em08xkzZvj83szfh/nVpEmT5PXXXzfmhd5C165dZf/+/cY8EgHzcPTJ6E/Qv1SoUMGYr2M+5K1vW7NmjUycONEoh1tvvTWcERt2ydixY43vxNhUuXLloH2PWd9hk7zwwgvGe1esWGFoAmZ9Rz+H333Vd9g2GBfQNh966KGA5j1oAhYyvmHDBiPzEJKuueaagH6Iv8TgSfPoo4/K5MmTjUkaRBlMhBBgKKKQENq3b29MqBAw6KOBobGgU4KxiXDTTTfJyJEjXc07xLPOnTsbkzlM7tBZQqD45ptvBAMWDAJ0GJjkuR1Q8X766SdD8INxigkuKiTENHBBXhFQudu2bWtMgjCxwaQMDQ5/wBChY8eOhgDkpjGVFR4o42effVaWLFliCCnIL4Q5iBuff/65IUQhDBs2zBCTNAF1D5MNGHiPP/6410fADB0tBj60DRhzECnNVX4IWjBMwO3DDz80DBVMJDEJwqQAAeVhcoYhCKE2HMKIESOMOo2A78k88cEEf+HChYaY5KZxdfr0aUOIRZvH3++//75goooA4ezUqVPGf8PoeOONNyQqKkr+/PNPo66j3qCMTKEZnpLvvfeeFCxYMNsVwWOPPWYYXOhXIMQh75jcYcBHH4MJD+qYrwl0oD4IghXGAIghELY7depkiCmo4xCLkRcECC49evQw6jbETPRDmes7RK5XXnklLD1iYAQvXrzYMOggXrgZUD8xucJkEnUYwjfGZW/9zAcffCCXXnrpBdlBeUFoRDvAJDlcAoQjcG7atKnXdomFNYxNmoD+FeOBXQFr7dq1AsMcYwwWLGBg4w9CbGysMZainkMI8CY6oI9CH7lr1y55+eWXs5VhjokFbBbYCOgbf/nlF6Mde4bvv/9eBgwYYPwThIA+ffpocNuKgwUd9AWw9TCe9urVyxBTEDCmm/3K1VdfbYy1mW0RLFhgnEY8LGAGQ8y39YHKyBARISoiYBxzc2KPRTr037BLhg4dKr/++qtRtqjPYI4xBn0PhHNMSL15LsJGwkTYrXqhxOY3GhayMFFDgO0NGwHf5Blgo2OcQsCiJQRVNwPeBxsK9gbsDtjh4J+5vqPfQ5+fub6jT0J9x+IGFqmDsTgfaB5o6xDwMMmHve5mQJ2GyIpxE2MKWEOIxxiKfg913RxPsTALocUzwO7BXBQ2PhbwBg0a5GZ2XU8b9iTmRRgLtYu2sC0mTJhgLDT46pcwFmOOM336dGPhAXYghHIwRsB8CPOBTz75xLBnPAPmRHfccYfR/zz11FPGPC5cA9ol+kZTO8EiEf4/WMGs7+bczFd9R7+C+p65LDzzj8V/s28MVP6DImChk8QEHhNDKHdQEKEqZmVLFsCiMmvEEHQW6HBgFGIQwoQIHR0mx1ANMXGCUYkGAsMU+cIED/nEgAxDCAYavDO2bdtmTKbdnOAhj3g/lH4UuMkJRgBWGtABoIHDaPAM6DjhNYSG7W97A9jhj0YQwMCIVWIIZhCzIDZAXIGQhYk9KnTfvn2NwRplCk8ZdMpQxyFGIA4ME/wbjEHk3U1Pmqw0DAglMAAwiccKCb7JDJhYmEo4/j3zBANlg44W3wbhwqyXGgEL74DhBiUb4igmtVhtgBGIlWKzczBXmFAO6LgxaKMOoIPG+yG8QVxDJwIRwtsKc1b4uPGsKWChjkOYxTd5en/4ErBQ1zHAwUD29IjKSh4h+qG+gzeYYgV/yJAhRn1A2aI80Jdg8AVjdMgw+DCpR56x+gojEWWHdnr55ZdnJTuuPGsKWBAhPAebw4cPGyvgMIghmONbM/chmJyifvvrc1EmeA7eUVZbrMAbdRorOajT4Il+GH0rJpLoV0zRFn0i+rx69eoZZYK+BAI/6jvyDiM2mCtTgSocXwIW6jc8VdAu0J/4Y4nJNgxnTb8K4QRG9ahRowy+8OhBWcPgA2sYopjYw7sHHgaeIgQWMtCPwygJRwELgvOnn35qjOeagO9EgLjkGTwFLLR/1HnU2czxMr8D9RX9CrhDdMUEBmWGug/PTaSD/h/iD2wNLGqYAXlBX2hOTrOrgGXWRXwHvtEMqM+wwWA/IY43oQL9CyZ4aNvmRMVbOWExAel5s18whmOBEv0B+mzYeljlR70tUaKEsfgG/vgbfbSnSIv3o4+BhydCuApYWCFHPw/+aN8YhyA2++pDUB4md1/tAv0LhCpvHoewOTEpB2f03xg/wBJCIiao+G+wxmQUHieIYwaki4ms6f0YDgIW2jkm0LARMy/Ev/TSS4ZXPOovvM0yC1iou2ANm8VfHdf0T4iD8sU7sQCC40bAFn036jt2PkDsRn2H1w9sK+w0MQPygvoO7xaE3CxgoR6ij9XMiSBgQazHHA31Hg4QsEnAHXY4xgfMDxAn86I15j9oC4hHAcu3gIWFB3CF+A7HEtjW/fv3NxxI0Pdjno5+A30cbBnPgEUSLJYghLuAhfES2gn6Cwhz8DhD/cq8OKTtLxDPFFm1/Q/Eb9gtWBRBfcc4YNZ3zIuRH3iGYS6aeREQ81DUd7wzLAUsVDZURghXMI7RmWJyAkPSXHGGcASxA5MeVEZz4g0DAoMEDGxsjUJa6JBhoCANrFTCIMeEESuo8J7yJopBfILggkkbJp9YBUID8DRk0bFgkIfhiAkDjEUo6/AqMoPplYFVUzcnp2AFdd/02vGcMMJYwHdi64zZOWIwRYNFRcIghtUhGAJQTTHBhyGHuFBvoZbDpR4VCgYHWPrz5IJghfiY2MNdFAMhOHi6gsPQxjvgRos8wFAxXWTBzjReEQdCWKAEBzuN1iouGMKrCnx9iQ+IA/d2TLhhoKMzxUCEeoXOFCvkKCvUVVPsQKeLNGH0gDMMDW+rXBjssIKBjgE80UnAoDC3XKJcEQedDtKAcQhjHTxNIQLvRxwYSHDTdVNkteKp/R0CFtojtoFB/ITIjbpjGtuZBSzUJfQL4I9+A7xhlEHIgBiNOoj/hvjraShjUGAwTQAAIABJREFUMEQHDPER5estYFsuuKH9IQ8wAmFkmAHeP+gfsAKCTh2dOVZkPT0JTAEX+Ta3EmhZBCOeLwEL7967d6/R56APBQdMVlC/wRv1G56IqFPgiMHKrJsoE3h1gQ3EJASsxkPYy7wC6fmNaD8wqtEXw+hHuWB7jxkw+URZYHCEcIi+CmMJDEczwHjHFjik481jKBhMs/IObwIWFkggUJhbmMEQdRltA+0CIgZ+Rx1F+8cCA8oA4yn+zV9/Dg8gTOTRRjDRRL8CfmZZwkhCvUa7gghgeqDAkMJYiDaCficnC1iwF1DXUOcQsNgFuwVcwcWcoEDoQ/8FMQT9MhYbUGexldhbwNiJlWTUWXDFmAzWaJNmwHZkGN3odzB2mAHbweBhgDoA/tlVwMKkGeM82jb6A9N2gbcfJiKY8MNe8xQq4CmEcc+cSGMhA3UNbEyW+H9MELGYgL4Ifau5hceTNfoh9MeouxBcYdNlZoV/g2GNf8e4g4B+DhMfeI7DIxQe+uEoYKEfgA2Augv7AQyxFQf9uWknwH7B2GYepwHbEX0NbFrYFaZ9Alscnrmop6jn6P9RPzMvYMDugG2JMRHlDhsJ2/BRpmYAX5Q97HTYS2ZAeaFvw8IEbHoI6W545mWljzafNT2w4L0Hb070heBlBkzm0AeAH+w32HymgIUJOBhikRHxwBDjKOx8TEbBAF4WqLeeYyZYYVzExNDTFvHkh0VXPAfhG31E5h0CGBths2M8NrdToTxQB/AdZn3PKQIWvhdzTcxDPOca6H+wyGXuoEEdNXcxwAaBgAWBAJz8LYbhOcwnMS5gYg9bxzz6A+WCcoRYj3qCBU0zmMIyfkN7zGkCFubvqMfog9DHmgIJ6jz6AoxrYKfxwILjBsoDugD6BPT9mLt7BoyFaEsYT9Ce8F7UYdRr2DmoB+EuYJm6BBxp0IbRj2A+7rmQAC7wfrKq75gXon/AIjVYwckEDPE8xmpfR1igzLDwgPoM5xUs7GMMNrUW7ODA7+j/0Q4y13e0MdgvYSlgATgmO5hcoiOG5wj+RkU39//CaMbECYUCmKaAhUkNDElzQgrxxTRa0Hmg0sKYwwoSKjgKx5vXCQYeNAS8G8Y6RDAUhOe5Kaj0mHzCKMVEAKulmBCZBjwmZk888YRhDCCeRql3Omhi5R2dGyoIxAxUHAzw3s6PQkVEnqH4Q5DCFkkYglhtRuVEZ42JqXmuBhjj38EELLDyi8HP1xkycL/H96Ic0EjAGsakGR+rOJgIQRBDepjowNCBqGAyAksMwDBeIIRlx/NqYETDoEDZQ1z1FUyBAnFRFzEQoT5jwMNqAOoWOlGs0qATRcOFgQgeMBgxeHmb4JheJdiSBkZg53kWBM5fQBvBBAFtBJMhtBu0A7MjQVlBOEEHgwEkKx6OTuuu3edMAQuTQrCEAAWupnCcWcCCQQfPEAio6IDRLlEmYIpyQJ+AfgWTTU8vOXT6GARgMPrahw2jBIMezqTBRAYdrqchg/QhHiJPMNThWYoJFf4gYIDAQADRBWWENpvdgj8BC0Yt6iwMMAyGMKTRp4IjBjeIFpiso8/Fyjp4wkBEu0f9hfAP4RB9EoRv/D94Zd5mYTLBuADBBX0VRAOUm9nfwkMUfQYGR7RHGPmYBMPTzRy8Ib5gcoXJQmZRPbtx95WfzAIWJhT4NwitmGxgLABffCvaNPp39C+og6jjMBIxCceEFc9abXHHWIq+Be0AZYN2AwPDDBiv0c/AGMVCDeKiPDFew5sUYwUmAjlVwAJHfCsm5ebWfQgZqH/YXozxAX0VBBD8G2wEsICRDj4wtn25ycPDCu0PE3S0G4wLiO+5kGbaPGgLKCME9PUQzTF+4HxDjMXZVcCCAA3bAv0wxj5zpRiGOOoTxjf036aAhT4TggvGTYx3qI8YA+C1DXvL9DKHWABBAN48aBuwZzyFbLP+oo8AH3i1oU/BpBGLnLA9EFCXwQ6LJogDWwgBojGERfR/yBPaRjgKWLBjUHdQTzB5hgiFvhhMMF4iwB7Dd6KPRV8KAQMLPOjXUS8xzqHvx1iGvgd9DPoBbFHznKCYzGETQvzDBAY2KOxEiFWeixEQzVAOaC/oQxBgJ0L4wtwAQhvaHQSg7C5gYUKHb4a9hXpkjkcQkMyzdmHXoC5DwII4iG9DfYTwCsYQ67AQgUVTjKMQW9Hvow14ng2HtoG4EGS8nR9m1neUM2xvCIKe9R2cUd9h/yAOyhoB5Yo5D/oVCAWo7zlFwEK7hiCV+XswTqKvNYUQ2DCwN7AohHKA8I5nIPTieV9eLhBFMDbAiQDxIHp5eptiHMZiP9LEeIsAWx19PzxuMSdDHcppAhZYor+GqGTabPh2tAvUbfxBn60RsGCHo6+GrYFxBHOam2++OcNOQVlhbozFOPM4ILQTMEYfgvk9xohwFrDQx6CeIWDeAzsc9nhmzz7Y0PjNqr6jX0W7R7+MeT/6H9jOmMOj/fs62xkMwRoaC+o7noWdaQbYPogD2x/iLwLsVpQFxmy0R9T3sBSwMCgCHCaHmJDAMEGniYHO9ITQCFjofLDSYHpHQCBAMMUVrB75ErD8TWYgvJiqLTxgMHHz3AqAiSw6PBi2qFCZV0zdmCih4Zou1zDY8P/oTPGNqAgwmM1BEw0ZnQIqFdwtTZELxgc8RpAOJpBozDBEIBKYSitWjzDAOm3kqPjoXGCQYGBERfUMMPKRB/MsBs8VIDe4ZSVNlDPqp9UEEJMJ8EYnAKMQXMEXLvAw8lBHUL8xEYThiG+3OgPLKt/oDDDowaBGhw4Dx1wFRf3FRAcTAAiV6NAhgGXei2z1jlD9bgpYmNxAnEM/gbqOb4Bh6ylgYWKBCR+Ma/A26zomfZh84Df8jfqM8kSnj7gYUNEHQShBW7Z71hCEHfRbGIBh7MAjCHk1Ayam8NDAxAATX9QhCDrZ8cICfwIWvgdeH/DogSCEfhAGCYQ4GBQIYAGDGP0uVmHMSyVQR9HeTTEPojoGOxjN5iRRW8dgUGNyj2fRV0Ew8DxPDH0WDHrwNsUVTxFG+57sEC+zgIX6i4UaGIDmN5uef2YdNwUstA/05xCbUO8wRuIZ033e7vehDMEck3kI9PD0BV/UBZQtxldMQDH2hqOABdvBW8DEEEY1+m9M/tGe4dmGvhQBNgw8/zAxxN+mgIUJO+o5+gT0TaiDEG/Q79vtf9FHQTjGRBfjKsZyGJTwMkWfjzJGn4eyRxvNrgIWRDZM6CC2wqiGlzy+DWMU2ism6xCmTAEL/SrqGb4bBi4CvhmTFfNMQvwbBCzYQogHLzbN0RGZyxqCjbkICnEBdgvKHuMmyh2eFOjTMBZh/AlHAQt9I2wFeAJCDIHIYnpvQoBFMAUs1Fss6prCCMoM7QAiI8Zh04ZEe0e/YLVF1ld/A/EKthVEeJQ/+inYSej7YFejHCDywE4KBwELwgTscHBF3UVfiTqOiSXscYhFqMsQK1AeWPTB96M+o/8wA+ocygKCB8Y8pIMFeLRzPItFS9iX4O9NOLTq31Hf0b7wTiwam95dZn2HKIA+HXUddT43Clio0/h+0yaEbQ3BBeMq+NgJ5rEWsAXhuWh68MNGx9wHIiWEAtikEHgpYPneQuiPO8ZnzL1gz2MBEzYq6jpEQwi6aD/YLRPuAhbGH8xbTM0B4x9EIvTbaKumI4hGwIJTCzhBtDXP8IXuApsGdp8/ActXWZj1HXM0LN6Zxx6gvsM+Qf7NPgf1PSwFLHg+wcUPkxkYMxi4MEjBSEPnjsFTI2BhWxYMF1RUiExm4WHAgEcFlHW7AhYGVhigWKWDuAMBJvOtCHCZhgGPuGg4EC5gILh92CEqAd4JDwRMxrGygvcjoANEXjG5Q0cLowuTG88VL8RHpwklGuqpORAirhkwsGIQxTebxo22w0b6MHjgrYJyhRhmTl7NNCBuYY8+OhVMsEzjJDtO7LHqC8MNeUTn6CvgvDQYhvCKgyGDlUd4LMAoNwPKDauLEBxxnoZTAQtGEcQZ3LKCssIKKow+T+8/1BMYKDAOMQHCb5gcYIVVu8dZW+ZuxPMUsDCBQIcHYworlTAEPAUsGGPoTyDCoFM3AwYrrIBhZRO8wBz13hS0UPdgHGL7Gwx0O/UPnTv6FUxiYWTCKEG5e06g0C7R/mAYQkjESjX+3/PGSDfYOUnTSsDCBAMGOAQLiLX4DrAGSzPAcEDfAoMdAyrqNwR09C1mnQMTrDijb/AU+6zyjPYFYx39LsYGDISZOSJ/cINGv4JBHQY+JvV23mOVj2D9nlnAQr+BNo0FCoghqE8Q6yC+mAaxKWCZooqZV5QT+MEAtxPQz4An+hmUOeo3FovQl2DswWQYK4GYrJmHeoajgIWJIgSWzN7TGMvRLmBLoN+AcOTpBYLygI2B/gP9CwQsTPxh03iek4jVTXAzhUZtGaCPwUITyhVlgTqBcQjBNE4x1oI5xOXsLmChz8YEHxN2tF9z7Ec7hRENQc4UsPAbuEOMhTct6jzqHOwazy0JELBQbvDucTKuYUEJth5WndG20M9hfIYdinoNsQBlgEVMLHKEq4AFjybYs+YZhxizUBb4G+yw2GYKWPDm9LxJD/8OGxt2BvhgQoJxDyx83Urqr46jbFGO6K9RthgvzO2yyAtsWPRh6FsgZIWTgIVFMnwP5h2wnVG/wA52CPppTwEL9glsA9gnKAf06ZhQor/F+AUPBtgTaDfoo8wbNDGewoZ2cp6meR4nxgL0byhPeFCgTFDfkQekizHWvEwiNwpY8FREf27ac+CNCb7diw+wsIe6jrkp5rMYL1CfsRgLIR9liTEFczHzAhsKWPYELDBGX4IyQv2FhzrGQoiQ8HTD+Iu+Craoud3XqXOGdux2Kx6+FfMf9A0Yj8z+F20Xc2r0nRgTPW0Efx5Y5uU7sCU9tyhDuDJ3lvjywPL2jcgfbCDUd8w9oSP8P/bOAryuKmvD32mSWpK6O3WhQqEUaHEGZtCBwXXQEfjHGcaNgXFXHAZ3GxwGh5bSFuoOdfckbfT8vPtkp7eXG2tyk3uTdZ6nT9vk3nP2+fbaa6/17SXIO3OBvGPDYwvBO3h5TzsCC6OAzQmjLPb0xhdHxUlFaVdGYBEaSCQDwokxBACcbOKE+guF7AvT1pTAwmghggCj0OfmIxhVkVIQbz6dhoWDYZasi3Bu2M3Y/G3+j2OOkkSAOR3GmAY/mE7SxRKdSiJACBd/xzv+OJnkcGPUxKZuVvVezBVKAvIRQxBjB/KmKqMSA52TDUI8U7VDniemEuVax+KB4cXcQxBBhPA+GAeVdSWsaRH3eMxxJDGMINYwMiDNWC9V4cx64xSCOcIoQZGn+hVLYJFmibEHIQgZx6aPjPsuhL42EA6id/D8+3FizHcwADnFxJiEQOE7kKxsZGx2PiS3OlxwWjkxY6NAx0AOI8MU2q/sQpcQnYUBFBthWt2zGvL3VRFYvDM4sU7ZmHCWibzixCdRAWB0CvPAPYmYYF72JTKC90cnE3WEbkHvcWJD1EZVXcAgU0jXYo5x+iEpU/VCfxOujWzGEijxBBaGF0aF77ZIpAhrnjUdT2DFd/OF3OVggQOjml7oGe4DQYaegVwgwtTrGfQOqSkYJMwF65M9g0gsDCxIw2Qf5tT0Xar6HLJUXRF3HH/k33cVjb8f+h6HEJ3P/kekVWwtCm8017RTEFhC1qADmV/0H4covpYbKcqQkpBu/oCE/QC7hXFC8JDiXJeCrvWBLffwXQgZK4dZyCLRP+gQ9CgRPJDiYIi95gksbEGw5OACZx47kfVPqYZ4Agsi20eC1nTc3J80L2ScZ6PHsfV81BG/w75kTJ6kZzwQQDyL+a1p0f+ajilZn2Mtk3pfmb3ti+x6AgsHKDbdlSgofuZtIAgs9lPs7dpEFLIPcvCKncSziG5hj2A+2R844EOvYJ9gv3KhY7CjOBhk/4fQTLUann59Y+txyIlOQe5x5DhwAUswwyaOJbDYp7Bj0OuQtV7G2Q+QT5xU9gUfSY6dAdHBfKEjatMVmPtxH2xHdDgkLffzTiu/w6dCTnxNLfQYdi2kDX5FKss7Mop8xdoF8V0IK0shJDKew8XYFEJs6tjDCrBAH9fGTyHaiu8gw9iH6H9PLjBe7BJ0DzLD3DNHkJ/4tHyWtVVZ3cRk6Yra3hedgl+KTMU2i4ntQlhZCiH+KmRGbVII48cHtpDt7JfghU+LLY8+4WdEQ6I7/ME2B4EcvIE9a4mDptocXNcWn/r+PPYAPg37IPu7t7/hIbAlsb19R9/KIrBi5Z2DOTD0TWD8eH1n4NpEYOEfIO9kF4ErMuxTaNnDwRw5Qd4JNEqmvCe1CyFGA04JhoEPx/fAoShQ2pxiciWqgcXvUEa+1TqThuHhc+j53r5EYLFRQo5hELHpEDkUSwwwmRAaKP7YgrgYtkwUSgi2M1kXGyObJc5wvHHKGBBGTqwg4TCyeBec/UQRCBiDbKBgF587y+JgkbBhsXlV1zUM4URBILhExEGWMB/+eywsnHfmBLIg1lHzUQMQP/xJtYt3Y26RA9JHErWEBUccPNh/jBacRRw7FnNsfjZKBtIDhc7mVtsILBwXZA8Dx3d/iO/+g4PAvDEHsRfRgawtnBxOl1L9iiewGC9ELSH3bFSkzmAcQlL4DlPxHbr4DpsZTL9Pn/Kn6MgjBiARbBhvNXX2IAD5HnOIjuC0OpaExynjNAO9FXtygXEFwe1rZKQa/lURWBCg6AiMKaJO0SvIN051ovbU6BZIcDYw3jm2JTSGN8Ybxk51hgPzRig4BCTOOwYlkVux+ojxQAZDksUSJpASOPfMf2zR61TDnbWM7uQkzRc3xigkAgH5Zs/BaWN+0K8QsKRlex2CMRBPYMW3Da8tgUUUAEYeY2MfQLfF6xmvQ7yBjY5HtzE3GCeMN7ZWX6rh7sdTEwLLF6zGEE7UqhpjGQfI1+vjNJg58xeGHfoAfeHT4arCA5lm3tFxGKOQK7E6BtvJEy++tif7P7qFNYVssP/HRz43xhzEE1g4xOh25Ja9CFuAk1lkO5bAQj/znpAmpGDiaKOjcTrqSmChg9AJGO3cl3khLSi2NqQvowDu/ufs83wX+ca+YdzpcPk6ruAbW2fUk3gcVCJzRANhg6FfYg8diJKCnOHwALnbVwILAt3vBTitrKfYFHAcWkhEbC2/H7NvMk7kHNnm2bE2VSrgH0tgQXpyyMB7Qs5iD/B//rCeYwksbBJw9uQG65V9kX0OW88TWBzisI+y9yGr7BesAfaL6mxz8EFmwQ18K5N37EPs23SVdzDDN8PG9ZdPffVRqokILPZaIkCx42IJLJ8qH+uX1obAIuoHWcCGwWZn/cTKOkQEUersHX5N+j3UyzpkI/ovlS9sQ0gob5/5sWIvIsPshdiDiWpgIf/IJXNX0xpYsVhARrGv+kZWkI7YgP6w1BO/sfqE+WZO/M/Qe6yrdLl8qQBS/mKjX9n7kX34FA5fuBIRWPHyjn3NQX58dD4HxqyHmhJYsfKO7Yi8xx40EKyCDksk7+yv6B2IyPhMt32dl6QRWL61LsQAjmA8uYLhzkbHy5A6hLJm4wJQjGUWuS86BoEFo40zD0AYPN6J8UWfOb2sSQSW3zz96VOiYuyMCSWPccWJor/YwDg5xNCs7UlgbSaIkysMQE64ccxiNy8WJUqXRY1Dzx82RwwCHBB/cXKG4YUxw4YJgQVhx0L2RgOGHfOAcsAJrepiPtgYOJlkrvhOfLQFn0GJQ+zE5pX7Oipg5rv31QaPhvosId04J2x0GN7x0R8QFhi8fv6RX5xGcAd/b0SwsFHqfJ7TxtoSWHwfuUbuY4vlxeIAKYzBg/L2JyIYgRjsRFMQFsq6SvUrEYHFeyAnyBqbPoYZBBYEB4o49vSB94PMxfmJbanrI9845UJp+/o1NcGDuWMjhpjCOE0UYeI3zfgQZQgdTjYxVn1r8Jo8s6E+UxmBBSnBmiU8m/H71E3+BovYdtDIJrqFUzAceIwYdAwGpCeruBd/0GXVOSIcVLAJo1txeBJFcaGTIfQh1DDq/cUmjoEPkQuxn6oX+LKxsw/6Llw4ypCDGOQYELw3WBKxwHv6QxWf4lHfBBY6Cx2GAe67scXjh0OG/vYXhhH7DeQ5+zF7Siqf2Ptx14TAwkiHjAN/ZNdf1GTi0Iv3hFj3NbBi91xw8dGArPvqMEEecHIxRHFgEhVoZu/A6Iy9IPdZL6wVnB72qtgT8caS/3gCC5lmPaIH0c/8mzXK5zyBhe3B3oljwl7pDWFPBNaVwMIGYi+FQGEvTXR4AZ5ELsVe2EVEtaOLKP7uC183FrY1eS77DmlLyEJsfUi+i9PDPsU8YIOhVyCwcOhi66b6mivoevTQvhBYEKzsz/yNvYhdHn9huxLtGHuR8sbBNAQD6wIbK5YcrgkGyf5MPIEF4UYEMlGQyBC1IiH+fMt4XwOL/Yl9ikg2jwf+EY44/ownsBi/J19YI6zz+Cjbqt7RR6KwbpD3RAdH6BP0SiJ5Zz0i7xxOp+pFpA2RnTjxvsEO6xQCkchJIkKQcWQpto6VP0CPzbCAHKgLgcW+wDpBlzNPiUpGsMfj9CfaQ7EvkYHYmsapirtvIsWhsrfzeCcIKX6HfY5ewdfB5/dd0PkMvhT2Mv5sbQksfAH2CMh17B8f2RaLE8/n8Cn2IloMmxL/Cf0NKR9LLKYqzozLlyxApyDT8cEUHNhycOujBH0KIP6r9/mYD/D28o6ex/dnbfhDSeaJfYGDzJoQWMg7vj9+JzZLorTyquQd3c7816e8J43AIoQYkgOmjcUd3xHNR1cRygoJwKTgoLJpAjqbMH8QYF/82+eEw/pBuBCejJAS8cOk1ITA4qQTZcdCSyTQgIvwY3DhuOJI+85+CATPQhiSGd3CZo4hjVGMocH7wm4jaGxwvLfvVgKhxQJHGBEqxkqtINhyfoZh6COwcJDADccDJx3jjk2YdKHqQsT5HHNE9FGiTnrML2SbzyHHAGHjJoINwwjihw0VJ5QTqlS8wBJnHSOb8HYcdPDEOOQUgVMGsPRGBf/G0CCSDdnAmEG2UNg4QcgJ90KWMCp8+/Tq3p0QdN8OO96ZRw4wMCBXWUMYe8wjmwfYYySBOaRxbApqdc9srN8nIrAYC/KGXGM08m4oZOQHx401yDujDDnhQn+AM0rYF95kE2A+MBAhgJmzRFFEid6bzZfNAXlO1FoWIxSSnd+jQ5hv7o1hjv5ibUG+M9ZUuzyBhV5BvyFnnMhDemLY8jPIKchbsPXvAIHEmmZTxYgkagdiBQcVAxKjEr2CzsegYGPESEeHV6dbMExINfJRuLGYMXeQK76IPgYqpCIOPwWZwR59jVGVyFlKJfzBEvzQMex7jB8didOAcYEhzO/QpegOIiY4oEB3YjSg0/meN8brGoFFbRzWCUZJ/Ak/ZAJ6Jt7pZ0/C8E/HGljVpRB6cg5d71vc+3bzzANkLms+tgshP0Nfc+CFjkHPs1aqS6X1Hcv8wVK8nEIuxNa09L/33cpSuYg78gqWyCryjjyzX6EjYwksdKQ/wefgBX1NhBb7JDZObBo2jkttUwi9YY+9Ek8QMj8cTiYiDtk7meN0KuKO/mZPBEP2oHj58xHJrHUOeny3RbBBb6NDIWfZw9Ar2OD7QmD5wx90R+zhr5df9ApEfvzFfDM2dFKqdyGM7S7na8vwPt6BjCew8FuwKThkg8QllQc/hLXAxSGCj86hriPRsNwDOw6bs6bdpP1BB3ZrbJ0bnoE8oLPjf+7HzZynQw0s74hzKMYBAgQ0ugN7DL3NPsYBOnYO+oP5QSbRSZAg9UlgMY+sHQ4r4ktagCu6JZHN6ffQdKqBhR3N+uSwAdsOYgg9iT+Hr0RGCu/FnEDIQoaiA/BR+Jyv6VRbAgt/kz0XYiZRVDO+AdG68ZePJk3HGlgcvvvoy0TNG7x8YyOAL3Yk+hzZxi5IJO/Y4sgb64MDSw5SWUs+pbAmBBb+gT+Uiq2J67GvTt7TqgYWTgbECCeXvn1vrJAhmLDPpCyQqoKByHdg+bhwDHFGMToBnDBMFhETShQV5AxKi89AliHg/M6H2idyXHCKUe7xJxCxn8UhQhnhULAh4ThwTzYUTlR8sbJkOkY4lZzY+OLdbD78QUGACw4dTqN/Vwwt3h3iizHiCMHaEg1FBIo/OcLB493BzmOMwsFoqO7yhQkxcBJdODpEZrBQIP0wtCF4WDCMm42TRQm21Rn31Y0lmb/H+WZhI2OcXMZeKGoM7tioKE6aMbg53WQ+UNSQHswPJyzeKcUw9ydy8em0idZF7IlN7O/ZLFE2rBOUFSeZfBac+Zv1AKFTm4J8ycSzunt7AouIB1/7xX8H5QoxiPxAYBEtidEA4QHZTTgqMsbfKFaM8ViHG+MP/QPe6KKa1NQAQ+7vaxAlGr8/oWaN4iRBqGFkMveMBeWOoZoKkRHx42fspKzFXsgtxBUbIBthLOGE/sUhx9jGyIbkxbDGcMNBZS3z/hiKRDzwf3BA/2A8JHJW4scEGc86SnQxNgg1SB6cSjBnDF6vMBZIZPRyTQ396mQyWb/HOUHfoo/9BUkFMcUJIXKOEwIRzV6FLPt0KmSZn+GkcgDAuoiv08HvMG7i6xwkeh+//1amZyAm0TPxJDhjxBHiD89Pl6smEVi8C/s9kVTofwhz9n3mAJ3P3KGDIEsx3Im4wNhEB3GxP7AX1KT2oO/2WRl+GPrMcfzlOyKiNyuLmmuMOfERWDhsjI3LR6mCmU8xYR+EHER3IPdEW4EFtgvOCPKFc4qNAinDnoAtxs8gsNiba3qhyzDuE13oKZzaRBHO2F049EROpMMhEO+HzNKIgUPMRF1fmR8OhNCX2NmQVeyH2GvIPLjzf0gWSHT0KwQWziiHYomIj0S4+qLAlc0RBxBEFcRf6H9sq3QgsHyRe96Bgxv0AtFi6AT2f3QGziL7P8RT8A67AAAgAElEQVQ25QuwySBzfUQ5+pN/Y7tD9Hldynwgt+CBPieVvKaXL+BfmbxjLybSGb4RFDZWqh4u+3dCT2BbY//5C8whTDyRgTz7TBA+gw2BXsJPJGoLm42LOUAX8Vl/+Rq3NamB5Q8TKpuf2C6qsZ/xeygywhpLl4tgCHDxPjrjJgoHf89HCXEwgy2Iv8iF7mefxI5k3vD50SfYORC71QWC+P2uMozgABLZO57ASvXI/Pj3wh7Dl+fgF1uiMt8cWefgGdsY3YMMe7seeUencChAZoSXd/Zj/CzWEBc6HTuPOYuNDq0M6+rmojp5h8CKLTNSH3KftAgsnBgWKmBWRliQGsTlUyUgDGDUUUA4Uygm7oNjEltniQ0CpwnH1NfvgMBiY67OieG7lRntjMU/yxfdJTSRDQjigBNRNp2GImAwjFHURF7hvFB/gwWfaAy+ZS5OEkoaAfYElyewfHFIiCbmBqWOgqnp+1SHnZ9HsGORgB3zg+GJoquuFk59CHR93IPxgzdMNgYwpCGbHYs9kXwhoziEzBWsOLISS6Tyewx33h9yoCq8eTY4V3bxXX9v5hBChzHyM8grnl8ViVsf+NTnParSE2DB7/k7tkYd+EAYIl8oaMg6jMVEKa18Nhazmozdj6myz8bqIxwt1ifzCxnBWDACa7qmajKe+vxMZe/GeCtrBIFuQS+DOQ4QuiW+6CiyiNGAQw/ZRARiTduuV6dX/B6CHHACyDPQ/+hD9H4qEoWVzRnkG04hxgcHCuAUqxd5R0h0dDTvh/HHvGA0gr9/X+Yxfm/1a6Um6782eib+Xdi32Y+r22vrU27req+a2CP+GcgyeyZkIO+IvCP3fk3ze/6AAYdqkF1E6la2PyQae3UyXxm+ft5idVBdsamP73td7fUI9/RjjdW//mex70f0D+lPYEq6hycOIbeIBGVP83q8NjJXHcaVYcg4kJd96XZYH1juyz38u9bE3sZmgCThUNhHTDAHyHlsbRmvTyrbFxKNs7q9s7K9OJFc7AsOyfxOojEmknHG4G04r4uxJzng4UATuxu55jPYMGDu6/Mge0Q4k+oHcVub+nbNRd6RMWxebBL8CmyueN8CHMmM8DY5OPIzLj8nifYxv/arWkex+wRjqeyqao9Mxz2U98SfQ46xR4jExteM18neb+UzNBHAPov14+sT46psezBOtX2yJvqpJrZKvL6vibzzbO6NzcLehu8Pec2BHMRtdbrGz1sqyXvSCKyaTFRtPgPwpAvCKvrC63yfUycYX07x4wta1+b+TfmzsQRWOhTcbcpzYe9mCBgChoAhYAgYAoZAYyDguxBCYCWK8muMMdkzIwR8IxUONvB30olEtTk0BAyB1EQAopyIYyK3fK1sCF6yJCDViZBOR12TNgQWYkFhPnL5OQ0lXI2oB5h4/k/Yd3wHpdQUpYYflRFYDY+5PdEQMAQMAUPAEDAEDIFUQsAIrFSajWgsOJGkDBIxRLQWaT+JauCl3shtRIaAIZDqCBA9RToiqZ3UkyQqjtRBdA0BQKncuKEqbNOKwCI0kWK/5GLCHlKIjBBSiryRtmJXYgQIGaSODbV5EhXWNNwMAUPAEDAEDAFDwBAwBJo2AtjO1KryHf+a9tumx9tRPoUICYgsHEwKxdtlCBgChkB9IQA5TgdsSlFwEeVJOjPBQLVJza+v8dTHfdKKwKqPF7Z7GAKGgCFgCBgChoAhYAgYAoaAIWAIGAKGgCFgCKQXAkZgpdd82WgNAUPAEDAEDAFDwBAwBAwBQ8AQMAQMAUPAEGh2CBiB1eym3F7YEDAEDAFDwBAwBAwBQ8AQMAQMAUPAEDAEDIH0QsAIrPSaLxutIWAIGAKGgCFgCBgChoAhYAgYAoaAIWAIGALNDgEjsJrdlNsLGwKGgCFgCBgChoAhYAgYAoaAIWAIGAKGgCGQXggYgZVe82WjNQQMAUPAEDAEDAFDwBAwBAwBQ8AQMAQMAUOg2SFgBFazm3J7YUPAEDAEDAFDwBAwBAwBQ8AQMAQMAUPAEDAE0gsBI7DSa75stIaAIWAIGAKGgCFgCBgChoAhYAgYAoaAIWAINDsEjMBqdlNuL2wIGAKGgCFgCBgChoAhYAgYAoaAIWAIGAKGQHohYARWes2XjdYQMAQMAUPAEDAEDAFDwBAwBAwBQ8AQMAQMgWaHgBFYzW7K7YUNAUPAEDAEDAFDwBAwBAwBQ8AQMAQMAUPAEEgvBIzASq/5stEaAoaAIWAIGAKGgCFgCBgChoAhYAgYAoaAIdDsEDACq9lNub2wIWAIGAKGgCFgCBgChoAhYAgYAoaAIWAIGALphYARWOk1XzZaQ8AQMAQMAUPAEDAEDAFDwBAwBAwBQ8AQMASaHQJGYDW7KbcXNgQMAUPAEDAEDAFDwBAwBAwBQ8AQMAQMAUMgvRAwAiu95stGawgYAoaAIWAIGAKGgCFgCBgChoAhYAgYAoZAs0PACKxmN+X2woaAIWAIGAKGgCFgCBgChoAhYAgYAoaAIWAIpBcCRmCl13zZaA0BQ8AQMAQMAUPAEDAEDAFDwBAwBAwBQ8AQaHYIGIHV7KbcXtgQMAQMAUPAEDAEDAFDwBAwBAwBQ8AQMAQMgfRCwAis9JovG60hYAgYAoaAIWAIGAKGgCFgCBgChoAhYAgYAs0OASOwmt2U2wsbAoaAIWAIGAKGgCFgCBgChoAhYAgYAoaAIZBeCBiBlV7zZaM1BAwBQ8AQMAQMAUPAEDAEDAFDwBAwBAwBQ6DZIWAEVrObcnthQ8AQMAQMAUPAEDAEDAFDwBAwBAwBQ8AQMATSCwEjsNJrvmy0hoAhYAgYAoaAIWAIGAKGgCFgCBgChoAhYAg0OwSMwGp2U24vbAgYAoaAIWAIGAKGgCFgCBgChoAhYAgYAoZAeiFgBFZ6zZeN1hAwBAwBQ8AQMAQMAUPAEDAEDAFDwBAwBAyBZoeAEVjNbsrthQ0BQ8AQMAQMAUPAEDAEDAFDwBAwBAwBQ8AQSC8EkkJgrVq1SlOmTEkvJGy0hoAhYAgYAoaAIWAIGAKGgCFgCBgChoAhYAgYAho/frwGDhyYUkgkhcDauHGj5s6dm1Ivuq+DKS0tVVFRkdq0abOvt7DvGQJpicCuXbuUmZmprKystBy/DdoQqA4B0+/VIWS/j0WgoKBAHNB17T60yQFTWFikzKxMZbRo0eTezV7IEEiEQElJicrKQrVsaTaOSUjTR8DkvenPcX2/YWlpibZsWqaTTz5ZvXr1qu/b1+l+SSGw6jSiFPvy7t27tXXrVvXs2TPFRmbDMQSSi8C6deuUnZ2t3Nzc5D7I7m4INBICpt8bCfg0fezq1av1zDPP6JAjrkrTN6h82Fu2bFVOTrZatmzZ5N7NXsgQSIRAfn6+SkpK1b59OwPIEGjyCJi8N/kprvcXLCrM04yp9+mqq1LP5jECq5rpNgen3teD3TBNEDACK00myoa5zwiYft9n6JrlF43AapbTbi/dRBEwh76JTqy9VkIETN5NMGqLgBFYtUUshT5vDk4KTYYNpUERMAKrQeG2hzUCAqbfGwH0NH6kEVhpPHk2dEMgDgFz6E0kmhMCJu/Nabbr512NwKofHBvlLubgNArs9tAUQMAIrBSYBBtCUhEw/Z5UeJvczY3AanJTai/UjBEwh74ZT34zfHWT96Yx6Rt2SS+sChWGUtc2gQ7pJnVslZx3MwIrObg2yF3NwWkQmO0hKYiAEVgpOCk2pHpFwPR7vcLZ5G9mBFaTn2J7wWaEgDn0zWiy7VVl8p6eQgBRFUpqEUTjf3iZNHerNDBXWrQjVOuMQN8YJeUkoXylEVjpKTNu1ObgpPHk2dDrhIARWHWCz76cBgiYfk+DSUqhIRqBlUKTYUMxBOqIgDn0dQTQvp5WCJi8p9V0qSyUFm+X3t8k7S4JNb5LoAG50p9mS5cMkfrkSHnF0gNLJbitcwdJO4qlbYVyn+tQD1FZRmCll8zsNVpzcNJ48mzodULACKw6wWdfTgMETL+nwSSl0BCNwEqhybChGAJ1RMAc+joCaF9PKwRM3lN3ukrKIvJpd4m0vVhatkOau0XaVhyqe2upTWagFXlRFFbvttIXh+15l/W7pNsXhtpVImW2kDKCKKXwKyMCtcqUCkrk0g2zsyKiqzaXEVi1QSvFPmsOTopNiA2nwRAwAqvBoLYHNRICpt8bCfg0fawRWGk6cTZsQyABAubQm1g0JwRM3lN3th//SJq5OdTu0kDZmVKf7ChFsH+u1L2NlNFCWpUnrSmQhrSTOrXe+12IutpWJLXOkDID6e4l0tB2oTq2CjRtU6jSkP8H+lw/qW1mzXEwAqvmWKXcJ83BSbkpsQE1EAJGYDUQ0PaYRkPA9HujQZ+WDzYCKy2nzQZtCCREwBx6E4zmhIDJe+rNdnGZ9Ooa6e310pkDpEHtowiqul4Lt0tPfRy6iK3RHYm+CjRlQ6gdxYFatpDaZEgHd5OO7BlFbVV2GYFV15loxO+bg9OI4NujGxUBI7AaFX57eAMgYPq9AUBuQo8wAqsJTaa9SrNHwBz6Zi8CzQoAk/fUme51+dJ7G0Mtzwu0PD/UOfsFGtO5/sZHyuDO4ijlMCcrui/1snYUSbtLpc27pf+ujEizg7olfi41uBZuytP2+ffpqquuqr/B1dOdgjDkNe2qDAFzcEw2misCRmA115lvPu9t+r35zHV9vKkRWPWBot3DEEgNBMyhT415sFE0DAIm7zXHGfJmeZ5UWBql8RGxVB8XJNKrq6WpG0kNDNWhVaCDukgD29XH3Wt3jynrpRdXy9XYIuqLLoYjO0g92kapiq+vkUqL83T0LiOwaodsinzaHJwUmQgbRoMjYARWg0NuD2xgBEy/NzDgaf44I7DSfAJt+IZADALm0Js4NCcETN4/PdsQVUQj0bEvKyaVbvYW6f6loSiu3qlloC+Pkjq0rJm0UI9q2gZpVYGUnRnq5P6Bqzu1cZd060K5YuvnDZb6Zkfpe/WQMVizgcV9indfWxCNi/dctwtiLXRkVkkondAn0JjcPC37wAisfQK4sb9kDk5jz4A9v7EQMAKrsZC35zYUAqbfGwrppvEcI7CaxjzaWxgCIGAOvclBc0LA5H3v2V6dL92xUCosC1VcGqhLa6l9Szr+SUt3SBO6SiM7Sk8vjzr5HddbGt1ZroZUomtdgfTGWmnOVqlr69Ddiw6B7VoGOqSb9OxKqUsr6dQBNSfDGlo+80ukLbujIvEUk6cG1tz3jcBq6Hmol+eZg1MvMNpN0hABI7DScNJsyLVCwPR7reBq9h82AqvZi4AB0IQQMIe+CU2mvUq1CJi87w3RXYuk9QXSV0bJdelbviP6/45iqW+OXE0qakhRZ+mlldLr60Ltlxvo4iFSbkw01s4iyKlQ72+S2mYE+uJQqWd29KyiUumm+aEjssZ1CnTmoMaLuKpWQBJ8wAisfUEtRb5jDk6KTIQNo8ERMAKrwSG3BzYwAqbfGxjwNH+cEVhpPoE2fEMgBgFz6E0cmhMCJu97Znv5Tun2hdJVw6UubaqXAkisFTult9ZH0VnjyiOxVuVH9aL6ZEtjOkmjO0mt4uplUTQ9vzhKU6yPDoPVj7b+PmEEVv1h2eB3MgenwSG3B6YIAkZgpchE2DCShoDp96RBm/Y3njJlimbNmlXj9zjkiNTr0lPjwUvasmWrcnKy1bJlDQt91Obm9llDIAURMIc+BSfFhpQ0BEzeI2iJtvrNTGm/dtIZ+9Ue7vlbpRdWSUVl0thO0mE9pNzyTn+1v1vqfGPTuvlaufTNGg/ooosuUps2NWD/anzH2n3QuhBWg5c5OLUTKPt000HACKymM5f2JokRMP1uklEZAhBY8+fP1/jx46sFaerUqTICq1qY7AOGQEohYA59Sk2HDSbJCJi8RwCvyJP+NjfUJUMCDWmfZNDT6PaewJo4cWK1o8bmMQKrWpga9wPm4DQu/vb0xkPACKzGw96e3DAImH5vGJzT8SkQWIsWLdLpp59e7fDvv/9+I7CqRck+YAjUDgG6ZNGhK0hSmy5z6Gs3H/bp9EbA5D2av7fWSU+vCPXDAwK1qqQge3rP9L6N3hNY5513XrU3wOYxAqtamBr3A+bgNC7+9vTGQ8AIrMbD3p7cMAiYfm8YnNPxKUZgpeOs2ZibAgKFpdKra0Itz4uKKHfICjQgV9q/U9QhjIu27xt2STuKpNYZUo/s6O/aXObQ1wYt+2y6I9Bc5Z3OeqvzosLs6I+7FkotM/YtfTDdZaCq8RuB1cRm1xycJjah9jo1RsAIrBpDZR9MUwRMvzf+xFEcdfNuqbQsat2cVY8nokRw0P6aK7OFtKtEmr1FWrIj6hK0X47ULktqnSllBnu6A1EjY+a0KVq5bE8EFrLC1bp1a+EItG3bVkF5aAinkV3GXaW+2Z8u4Nr4CNdsBFYDq2Y42adqhwB1YmgvTxBV28yIkKIzF2uMdZeTuSfCqrhMWpsftZvfWhiqT04g1nBecaidxRRCjhZpmaSystARVjiikFmFZYE6tpR6tpH650r75UZFk6lN45+5rUgqCSVUDIWWM4vzVVZaqvbt29Xuperh0+iilfnSRzukbYURHmDEuNq1lLq3lbq1ljq3jnSXXYZAXRFoagQWxdG3Fsp1+KN7IOtoZ4kEAd4mQxrcPlpTr6yRysJQ7bICnTVQum2hdNkwqWfbuiLatL4fT2AVFRWppKTE2TrIDrZPRkZ0SmARWGkw9+bgpMEk2RCTgoARWEmB1W6aQgiYfm/cyVhZXoti1g4MTGl0e+nq4YEGxtSlwNHDgasNscV33l4nPblSWlEQOiM2o4WEwbtxlzS2Q+DqYGwvDZWdGTnSsd2BwlAavnmqRhfuIbDeffddlZWVadKkSXriiSd0wgknVBQwxZh7rNWVrsX2BYMjBzTdLiOw0m3G6ne8kEdEKkAkO7IJYreWEU2JRvTkx9I760OXBohTyd88yxFYGRGp5TME+fmWQunALoGO6im1bxX9DtKJLl55xdF3uQfrlfSfrIxozKz5LUURAQZBvWl36N6hfVagLq3pFBYKAsunJUIUfabrLo1oV9KgBBa6Zf426cVV0uqCUINzA3WhO1mGxO9wvrcXSasK5H7QtU2giV2lvrly79HSyKz6FfxmdLdUIbCInFyyPdqPe7WVhnTYe//dXRKR0jkJ9lHWOR0EZ2+VPt4ZrenMIHBdADu1jL7D2s4rkhbuiNbTod2kYR2iNbd4R6juraUrRwSO2LZrDwLxBNbs2bO1Zs0aZ+tg80yePFldunQxAitdhMYcnHSZKRtnfSNgBFZ9I2r3SzUETL837IxgfGJw0nr6uVXSS2tC9c+RTuwVuEiJJ1eFmrdNGtdRGt810OzN0tsbpdYtQp0/KNCBnaNIKa7CMmlzkfTxjqgoK45pdnknoKmbQmecDsyVxnUInBPMyWwOTmtfqXub6PPrdkmQaJBajI3IDiLCcBLDZVNUtn4PgfXaa685AuuYY45xp4+nnXaaO5nk4v+9x1+lp5dLmwuly4dJvbIbFtu6PA1SYPG6nSrKbKO2LTNdW3GcADACx1iSoS7Pse82HgI4cmsLomgoHEiioIheYm4hjXAIiVLwPh2RU7lZgYtoIlqRtQVphGO5dLu0YXe0jkjt42eQLhAwkEasH9YSERELt0lnD5S6tYmeDRnVvmVEXq3Ol9buir7PumMs+3eUutZDYyveiXb3y3aELgqzXctA4ztHpFhxqTRzc6jZm8t02YBd6tU5J+kTwxoj2ur1tdKK/FBD2wf6TG+pY6vEjwaPZTukqRtCF2GCfoLOm9hNOrxn5V3PwJJ5guTj36+slpbtlHq0kQa3i8h1sOdAgM+wzsHdrqaPQLIJLGR2Tb40bYO0oziKcGLde9J1Y6H03nqI5tBFSyKD6I0yBTqkqzSyYySrr66B3Ao1phPEU+DS/z7Ki/RUUWnobAXWTe/swOmLPjl7SPCqZpE1iL2AfiE60669EYgnsKZPn65Vq1Y5WwcbB9une/fuRmCli+CYg5MuM2XjrG8EjMCqb0TtfqmGgOn3ms8ITuDHO6URHaovqrx5l7Roe2RkcrqKw3jTfOnptaFznHHGRrcL9OURcl2AfKQHTvam3dITH0sfbo5OTU/fLzKK/zhX2lC0x8F2ERxBoDEdpFEdIyPZR1gc1EUa01kuumpf02+mvzdFy5bUnMA6YNJV7t3uXxoZ2l8bFTnzqXxBUEES/m8NhESZisuiU2nmw59O4wxfMTywdItUnsi4sUFczNgofbglciQhlgpKQ7fuWrYI1C8nWhu7SqWdRRGhdEh3qRMRT+UMFlFNkLFEO6zIjyIaHDnSQhreQRqQEzmbkESQIEQR8V1S/Yis4HM4mqxFUvoa68KpRs5jIywZCwTdbQtCtWpRpsuGZ7h3qO2FQwxJx707tI5SExNd6K9HlkURVyM7BPpsXym35afHlOi7jB29iL6D+H9gWYT1RYOlbnEpUOidWxZILULpoK7R3KwpkI7oEenjJTtCNy+MN3Z9H9MrcKSYXU0bgUQEFroBQtuRyvtAZC7eLr2/Mdq30Sfbi0L1bBPpGCIhIagjepqDqEDH9pJGdYrIc2QQ24BUWg5/8ktChWGgMwZEkVnPr5I+zpO71+iOUVptTla0pxN9ua97e9Oe5X1/OyOw9h27lPymOTgpOS02qAZAwAisBgDZHtGoCJh+/zT8mJo4uv4PaUXvbJD+tTB0KUAUVCaiAuMThwmyY1T7yIl9b7P05lpp0c4oTN+lJIWBwjB0BAinrENyAu3XLorcqE0Iv4/ywJFjjDyXaIJkZQHsC4EFmhB99yyOIk0+3z96z2R1UavL4iFqDadh4+5Qw9oH2q9lvoZ2bqniIMs5DaRx4OzO2hw5DRcPrcvT7LvJRACZo5g5kTo4jfO3srZC9S6vycYayc4KNLSd1A95TOZg0ujeizYV6elVGcpplaHxXSJijjS9RBf6hwgyCDrWNmQSkSYlYegIspIwcBEjp/TfOzqKz9DxjPRiUpnQfXW5mGdqhC3YFmpsp0CHdo/mlDHcviAaX6+2oYsuhVA7vm/g6oFxQRags0nF3E0aZ1kkMzM3R/qUemQQC+gsorUgOdFdHA5AuMVf6AjIBw42iIgdnPvpdLC6vKt9t34RSERgzdwkPbg0VJfWgS4fHh06ka4LwYtMQGp5fYHczNoSRXJyWMN62FwYOoLaHRYFgdM5YzvvSflHLiF63Z6NQFaifIoh0goiIo39xq6GR8AIrIbHPKlPNAcnqfDazVMYASOwUnhybGj1gkBT1O84V48ujVJVII2u3j+KrEh0QVIRwg8RhIP25EfS/cujSCdOZrn4q9UnRufPxgSa0E26Y6F03/LQ/XxIduDSATYWR3ZpmxbSV4YG+my/6ISUezhHKohSWNLpxHRfCSwww7i/Z4n00c4o4uKcQXu6p9WL4NbxJpy4/2VOqIG5gc4dFBFV27duV9vstmrZcm/vAYfloWWhfnFQ4AjM5nDhmO9LNEJDYYMj+Qr1XLaXFy0ui0gU/vTJjqIcqCPnUskaalBp+JyC/F3KLyrVh/k5emt9lEI5on3gHHL0F+QNqZCFJdKMzUQpRnoPvdYmM9Bp/aThHSOMmZO7FkcE0rkDpaEdpDmfRJHevyzUaf0DR5DVhrCvCk7meVOh9NBSGmCEumhI4FKi/jE31BkDAo3stKfWV02eScTcsu1SHvtBoTRtcxStVyE7gTSonIDjfnye6K4Zm0MXGdY2I3Dk14bCUKM7BDq2T5RCTVTOG2uig4wh7aSxXflsGgpKExlyIgLrlvlS51YcZETReqT8keKKoLsU0xaBOpTXlVpTnno8tL2UmxnN8QGk9ZcTU6Zr0ltQjMBK7/n71OibooPTxKbIXidJCBiBlSRg7bYpg0BT0u8QUHctke5dGjqDFOJkdYG0ZGeoE/sEmtg56sxF2gknq3cvkf48L1R2BulFkbNCQWFOT3u3kdplRrVRqH1DnSo6BPqLE1WfhgJhtnJndGKL41cfhZ9TQUDqQmAxfuaDel6kVxDlQJoj16q8ULtLo8LSRGMQtYHT4MlCTr9x/Pg+DkJt6tMQnUGXRf7gWB7cTc5xXrwtOjnH+aaNOBETzPeFQ/bcf1slBBan7DctCHXJ4EDDOkYRZgu2RffAkaWOCe9C9EpNuzoxTjeGADmNCLSGvsCXU39AwVknxWrhdkjH6B07tgz1xWGplToJOUJzgnfWR932emSXR8dkyTmZ1KSy2i41lyQIrNLSUuW2y3FRJ3O3RvPPv32kp28AgYyTPo1uxWH3NcFin0ZHtNfWRKmVpDMTuUTU1VG9kkPeI8NvrJWmbIjq+kC8fnmUlFVHJsHXS+N+EHisB8hSusWGQVSHkPRQUrvYU6hBxLVgqzR9U1STkP0AsotUU3QOpDkpqXRVpDbh2E7RflETgq3mM2qfrAqBeAKLeb1xpnTl8Gjf5tALcpT0PeQb4hGdgzy42nWf1Kk8oEsUJWVX00PACKwmNqdNycFpYlNjr5NkBIzASjLAdvtGR6Ax9btP1SNax9d1qAkgkEfvrJPmUN+mKIrAoD7N7G2hdoWBfri/dGzfPafnr66W/rJA2lQUnZZH9WAobB7q+jGBjulTk6c2v8/UlcDyiDHPczdLr6+LSL8JXSJnkxpf728mcibQiPaRY0hB+Z3FUQF6LqIVJnTd0y2Jk+9BMR0amU+c7RmbpOkbQ1dvJKtF4J6BnBAhQRezdbtCDcgO1Coj1ObCwBEdpIHGRsRVRmDhiP5hVqiDugQ6pFtUy2xHcagebaPuaTg4pFMVlYU6vk/gnHVftBeCa3txORJEjZSnK83dWh4xJOmonoFO7NcwkULgNX9LVPNrZcGeKEOINDAfkhvoiJ4REffXuVK7LLlC274uGOSvbyJQHqAYdbgsL5pdH6vE12zivjyX/3ASCOMAACAASURBVENUQFr9d3mUqntqP2ls1AzKrjogEEtg1eE2jfpV5OPDTRFBfWJfuQYMjX0xJvY1yO1YggrCBJLwjbVR97hDugU6dcCeNVWf42at+zXEfdn3+BmRZuhJDmoqK6Bfn+Oo7l6MC7xix1rdd/b19/EEFnXynl8V6qsjA0cy2tW8ETACq5Hmn9a5GFEYF92zIwOkjocQ7k0a08FpJCjtsYaAQ8AILBOEpo7Avup3HEpOpl2L97LyTna7o5ojGIL8IS2P03pqisRfkAL3Lg511zJOtwON7BDq9L6BICi6tq7cCaGj169mRcWAR3cM3KkpqS44tURIHdZVGpSgxgpkBnskhjun4LvKpIGE/5sTXKmI1xeBVdUaguChXhHEFSQKJ9s4VUTTQIpQzwi7Bg8HeSOy4eR+UYHmaRuj6K41BaG6tYnq3BCVQw0SZAHHaN5WaXleFEFHqpMnXxKNqTICi8++uFKatil0pNi4zlEtH8gcb2MRqTF3m/TW2mhR0O2NdyMag3H4izopRJUxVurs8N7U86HgPmunNAzVKiNwOFCvZ2s56Ur60rgue+qq1EQv8VhkHpKXC+f5nQ2hthWy3qKCwI5oC6L7UrMtNsqQ4ub/XUGHytB1yWLNQtJBaoED7+c752Fvntwviqrj4p2Zz9raoKSmvbQamQiVkxUVQoagnrcldMXXD+oWdemzCIiaSED1n2kKBFb1b5l6n2AtEdH10qqottYlQ/Z0kK1qtKwriDHfKTZR5Ca/m7I+6t7I/tgrO+pCuyo/dLWbnH7JitIlvzIi6krZGBd2w1vrpMU7osYmRDx9pndUQ6q+LvCiyQB7h1N1xflqUVaq9u3bVdRM43dE4sY3OaivMdh90gcBI7Dqca5gyykyCIOPMYABQtvdF1ZKb6+XdhDTSGFCOoGURiGQGAAUEzy0U6DvjYtCISsLUXWdWVxr2sqV5746OPUIg93KEGgUBIzAahTY7aENiIDX79169HREFIYuUSmxewb7EMY2NWeo+zF7e6gN5U4xQ43qROxdtDQq6hsRBuxFON+kifH/jbukR5eHWl8kfXN4oEk9pN98GGr6tijtgnFM6BDoq6MiMoNoESKuiBhZWySNax/o1xMqb6PegPA16Uc1BIFVGwCxdl5chXNGC/JAW4ujIs5H9qyfSIKqCCzkGXKqR9uotk9lF/IL2TVna2Sb4ZAd2LXqt3x3PdFFEeODE4X8Uxjb1VTLiH62pTBU+5ZR8wAKVkOYUVweWw9yDsJ46faohgvEFN0r6a740uqwIsqM+3VuHej8QRG5vC8XEWSkg/I8UvVwCnnmMyu4d6hzBwUuhYz3aZsZFfWmHhEEF+QdRFllF2k6r6zGtg11ZI/Akc0r8kIXUQdhSP05czL3ZdYq/44RWPWLZ23vRt2wf86Ti0A9od8eshtiObZ4OHrl6Y+lKRt5QqRb8N9yswIFYVSQPitDrvYbPt9di0ON7Rg44mbRjujzQ9sFriNmr5xon6eWIx06aU5B/S72fV8zzkc9ep8T/ecOpFp/urMtn8UHZVi+w2N1OGBT3L8kSsUe1SFUl1aBZm+LSLXzBlHHbu/3r+5+8b/3EXCPf0SB/rCiiUhuZpku6Ltb/btma02edPOCUCf0qV5H1/b59vn0RMAIrHqYN5QFRs0jy0MXfu7DUDEcVucHOrhzdHIMY82FA9GrdXTazXfpsvHox9KMraG+0C/QlcP2bmftHJJt0jOr6JoUKbffHhgVboy/jMCqhwm1W6QlAkZgpeW02aBrgABpV0SwrNxRouXbCrVW2SooiZxm9pVTegU6vm90o7sX04FPOqhT5Dz3zaY+TrTvsHsQYEXEDAYuRjXGrI/Q2FgYRdjQ1W1bYZTCR2QFTv3h3aSB7SKyjH2LGiFEi2wpiqIwXl0fOkKLDn+kb2E88+xRHWpXF6kGcNhHEiCQagQWQ0QeSBfML4qIJE7r66uGTFUEVm0FxB8M1rR+F+vGd2pkjRCRwHv56EW6U2ETztkWRR5S240IKdYEBBLrjQiqntnS+oKo2DaFpUlNhHTjgjsi2iIZJBDr9r4lUUdHunkd3j1qKU8tpKhDW9SF8yQ6wrWLDk6JjiP1tygMtWV3oHW7Q23eHRUG379ThAekFuNNp+YHtZWVxvy8EViNiX70bKJK6dpK10yf4k6EIZ1RiWhED1CbjuAF0nk9scUBEbXruFgjrDcir2gqckSPqJEBawhCnI09PvqUel6QYisLIMpDd1+CIHge4yDCkmhNan1lBqF2FJN0HzpyaXiHKEqUvZ8I12U7o+L+3KNdVuAOnqghiS3h06m5J/fGTuBdHv0o1HmDA1dXzev219dEwRmdW9FBNHB1BYmorgnhDhakGRNpxrNozlJUGujU/hE+wPDW2tDpy/65gVbn8y6BztivdpGtjS8xNoJkIWAEVhXIssBX55V3JCL8PIjacG7YHYW+c0IN+fS3OdIL60KNbB9ocE6oncWBdpWEGtUx0Mn9o7oE1V04BE8tl/6zLFT4SaHDY3oG7nmEU3I6SNek7q0DHd9DmrI5VO4nKRh/PWxPrQl/fyOwqkPaft9UETACq6nObPLfC+MPx40oArrP9cuuWYpA/Mj86SZGKE4iJ5RYihxqoM9xXNH1RDdg5PlaNDjEGHFcGJE+lQcj79U10u/nhAo45c0IlRGWql9Olga0DVUcBlqaF2rujqiWFM7vV6aE+uHoQCc0cK0oMCwr2/vwJfkzZ0/wCMQTWO+++67CMNRhhx2mJ598Uscff7zatIkKztx///06YNJVaQ1efRJYyQJi+kaiMEJ1ax3o8wP2jnqMJfJccfmgYYvDo6Oo60PHz3hSETuXVMkNu0JN6BLogy1RlJnvdEd6IDrysO5Sx5hmCcnC0e4bIWAEVmpIAsXCN5dHNrJ23t8QauGOKIqZvZwUeTo59i0vFl/VqCG/E6XtV/YdfELILBpnkF6PTcH3O7WMDpioV+ivj3ZIr62NUptZ7460yqDDYpTOzzrfVhylWvN7T8jxfXfgRWR2OaF2cNdAxyewKThce39jqHnbAldrkGjTgTlR+jD2CGODjPM6hkMNnou/W1wWRapCmhEhemSPvdOit+/cpRfWZmhzaZbrKnlUz9phlRrSYqNIFgLxBNbs2bO1du1aZ+tg80yaNEldukR1J7B5LrroogobKFljquq+QYhF1kDXfYulW5ZEBUovGRRoUK50/Yeh1u+Ouqd8prs0he45ZYG+P0auHohnr/d1iKRrUDyVDjM4MZBfA9pJw9tHz6R4LimJv5oX6qEjPh2FZQTWviJv30t3BIzASvcZbPjxEzHwzlrpgY+lD7aFymkh7SiN0nxO7S2duV+gtjU4gMDwQy8/uTLU9pLIqCTigoLRbFg+KjeWwPLRFeh5PkP6OddxPQJdOpSaGNK/F1F3J9TlQyLjLbO0UAU7t6lfr+4VJBffJZripsWkAUnjOgT6+fjIiLar+SAQT2BhC3C1bt1aFMNt27atgvKwISOwGk4ucADrs2h6Q40cXfXBZok6dkRVUIcLZxR7OL7YdUONqbk/xwis1JUAbAnXCbI8NS9VuttyYAZB7gksfNTYAuj83hFY5SVwfDF5T2C5dEOXzlx19Cz358AOgm3uFmnW1oig4nmxZQ6oFch4JnYLdGj36CCvstp7kbyXKLddgnSj1BUFG1kDIRBPYBUVFbkurRzUYfNg+2RkRIZwkyaw2KQ5icLoZ8HScee6maEuGxi4k7GHVoQu5POk3oEuG0pBW2nqllA9Wknf2D/qktNQFwrirNdCndmf3OPA1Tvh1H4iBXHb7FZx3lb17Nlzn4bjaqGU1/GyMPB9gtC+1EgIGIHVSMCn4GM51UxUG4rw/znbos4+hMVP3xKqRQtpRDvp4kGBq/+yfKf00EfStC2hdhVLR3YPNLpzdL+FW+UKq5IKNa5zdJpJXYo3aRW/MXROXq9WUbj+4HZR2hTf21EYGbc+RH/J9ijNgFoYzuAtL6bOHvPy+lCrCqSOWXJ1Ma4YGp2scu0uLNS2rVvVo0ePvVBHbz+/kpQg6exBpBik4KTYkJKKQDyBVdXDjMBK6lTYzQ2BpCBgBFZSYLWbJgEB7J0tu6PUQFKQPRGGDTQgJ0pfrO4yAqs6hJr37+MJrOpsniYbgXXYM1FOscu9DSWK9Z3aO9D/jYpOm0gVhNiB5MIh4dSbUElOpJJRo6A6scRZ+eXs0OUtT+oauHDSD7aHGti2VD8evEUj+nXTiyuk25dIh3SRvjwqcrYqu1Auv/tQemdzlI+MA/Sr8YErLmqXIZAOCBiBlQ6zVD9jXLRNem5FdJLXJ2dPmjaniNSKmrk9VN82gb41Sq6Gy5tEWS2TFuSFCj4psHpgpyh69cAuETlEl59Ywh79TgogLbQpVDxtc1TfaVzHQEPaS3O2SNO2hiolwiWQJnaWrhwedVara40fDD4it9DX1KaI3V8SEVh7HTSUpyL6MGVOUV1TkXLYY1MV6zoT3NN3VeJ5pA+69trlz+PfieKlPT6V/b6u42qu3zcCK5p5L++xp/pOPsvbv9enfMS3kne1kWM6+lUm49Wtkfoco92r6SBQHYEVu1d4ma+vt4/dR7inT3mviSzHdriM7fJZX2Oz+zRNBBIRWPH+dqxed/ZOHBReTuuKUPy9/XNj7b3KZDtW/s3uqetM7Pm+EVjlWLy/ISrOl1dCK9PAhUxTkK6uzkj9TdWn78RpPU6OT0Gh0Ps/FoRalVeqCd0y9ezqUJPpBBNKp/QNNKJT1M4Y0q3CoZG0vRDyKtT8PGlcp0C5GaGW7gxccd6/HxqRdlVdLMi310lProjqgl0zYu8Q1WRikGr39uQnqTwWwdaws2MEVsPi3RBPo6A45Dydeqi1MnuL9MQKacbm0KV0o8uowQC55J1XSJ/B2dLyAmnqJn4XqGfrUMM6BDqmuzS5R/2k1/FM1ruvC9MQeCQisOLT1n1HIoym+EKwjBGoXF2LOlzcm8jkmlw8CpwwLOP3U+9k1ZeRWZPxNNXPQGAtXjhfBxxwQLWv+N577zXJGljIe1ViiSzWl6y5DqA1XANezhM5WH5NJoNgq1YQ7ANphUBVBBaOfbzz7vaCeii6kujelQEXv8bi16RLl08CmZxWE2mDrRECiQiseLvDyzi2RaIYjfpYA7XR9d7e8csu0doproc1WSMAm/iHPIF18MEHV/um2DxNNgLLd4eoFoUU/8C2/ELdNq9Uy4ra6uqRe0i4mZukzQVlWrVyhdavW6se3bpqv/0GSC0y3WbCIhvbNYpE4CIC7Uvvhlq9KzLS2gaR8/fNMZ8O/aQN83enh5rUOdCaXaG+OSrQhO54LcQnqCIHNcWhq/Pw6NJzw4ehluRLB3QI9K9JVRvTdX6g3WAvBGpCYJWUlLg6MD4vuj4hpDwf98/MzKyoNVOf9/f3mrFRIgWN6Bdq5B3RU2pVRTg2UUpr8iOiB3KHiKVkXOzJb62JCgNDqlAzgdQ70rLpyEpnruEda95B5v7F0u8XRBGhvmU0qYHHdJG+MipK28Yh3OsErpwkQZ/5zjz8zXj4k8oHEjWZk8oIrOKSYte6KCszEgScFt9iuywsU0lJqVq0aKHM8noAGFB1qSbp0jMdMVWm0tKyiufW5B0SfYbx2sn8vqIXfQ8Ca96cWTW+SVMr4h7rZOQX5GvD+g2urlz37l2Vm7NH6dUXiYWzhD5xDnlpmTJatKjoTFjjSYj5YH2Na1+ebd9JDwQqI7DcYUX5K5SWhc7+8HudKyxeh9eLXVfRvZH7qplbTxpURnzVdUx1eB37ahohkDACS6HKymU8o1zIKyLOHTla5hqhYe/4NYAnWhf7IpaELUHXZ7So8qCkOlLNCKz6EUJPYNX0bkZg1RSpRvochVu3bdu2V40UHLeZH3yg2+9/VCs27VBm62xt2b5DOdnZOvWkE3XScUe6yClvjLE18Yc26VM2SKt2kaoYqLQ0isY6pEcUacXmRJedfyyQi/Q6b5BEag+F6HNbSs88cq+2bVyvX/7gWyrasUm3Pvq8Xp27WpktQh0/sqfOOfWEinFu3bpVL774olauXKni4mJXw+uYY45Rv379GgnJPY9FGa3Nj9rPkstNmpCvSeM/dcdC6ebFoY7oHmhcR+nRFdJ+OdIvD6yfaI+thdK9y+TqnQ3Mlc4fJHUt7/5D+ud/lkjvb5KGtpNO6iMNbp/+znptJ746AmvHjh268cYbNXToUF166aX1TjLNnTtXf//73/XLX/5SHTt21AsvvKBFixYpLy/P/Z9uYOPGjXOvtXr1ar3yyiuuYwZkWv/+/fW5z31OOTGOlp/Xl1dHMndsD+nNDdJr6yPZgoDYuCt0svjbCYEjbCieuXCn9FEexb+JKg21uYh6SnSdobUyUZuBxnehtlNUN69TuRz5tDkKfNa2GQXpdt+ZFkWxdmkVkUc7S0IXPQWBhcGakxk1vPjaSOmUfuVdbiR9uEmavz0iRCDliGyavVV6dV2oLw+Nipcv2xHVUxjYXhVtnGsrH03h84kIrKCsWNdcfY1atmypb3zjGxo0aFCUylf+wo8/8bief+55jRo1Sl/72tfcT8sbC1VE7/qw9li/BPni53uRfuUpihBY3P/96e/rkYcf0c9+9jOVlZXp+Ree14oVK7Vzxw517tJFkw47TKNHj3bGJHvTc889p48++kgU2+zcubOOOuooDRkyxMlHXQzMpjC3yXiHdWtW66Xnn0n7aKtE2MR3IXTyXlai119/U4sWLlSbtm2cTBYVFql3n9464ogj1L5dVEwOh8bbOf7ePijRr5t4Fz0+DdETWOvXr9fjjz+hk08+ST179dK8efO0YsUK7czLU3bbtho4cKCGDxvunJ6S0lJ9+OGHWrtmrQp2FSgnO8fJ/6BBA/G46i06LBmyZPdsfAQqI7Bio09uv/0OjRw1UodMnOgGnIi88vrfv1G8rPsoEn4fS2DdededGjhwkI44/HDt2rVLM2bO0MaNm1RYVKj2ue21/+j91btXL2dbcQ/2dA72iH5YvXqNTvjsCW5NGIHV+LKUDiNIRGAtX7ZULzz/gtp3aK/zzj3X2c/e3uEA+en//ldrVq/RgQcdWKs1EEuCxWKDXeIPA7dv3677739A55x7ttq37yC63q1csVIcmLRtm60hQwZr+LBhe6071s/8BQvcZz/32c8qNzdXRmAlT/qKCvM09/37dNVVqddlOWldCJtKBFYiAqtFWYmuv/56tchooe98+zvKzs5WYWGh/vGPf2jhwoX6zrXXasjgwdVKFBvSzI0RQUXqDo4pkVrju0UtXH1oPp+bv0W66b7HtHb9el1w3gX68c9/KvrAX3rSEVq8fK1emfahLjm4j67/yQ/cZvfrX//aGX04NAUFBZo2bZrrJvCb3/xG7du3r3ZsyfgACg3i6BczpFc3RCdPzugNA904Tjqmb+R0Pf2x9Ju5of44IdCErtFI3t8o/d+0UNePDXRK/30fHU7kyk+iZ659L9TS/ECf7yU9viZU79bS7ydE9XhIs7rk7VBf6B3oxQ2hq9d2bNdAXxsdzc8DS+SKQlNg+oyBERlSWSSKT4Gk0CJK24d7+x0iURpQorejTe71M6QxnxTFvnRYw7S+bWwCi7X017/+1cksRZJnzJghQlshpd58803ntP/4xz9W165d9b3vfc/BhlO1Zs0azZkzR127ddOXr/2p3l0XaGIPafEO6dvTQl05KNBr60MtzCMSKdC/DpZGdYpQJ434otej1sV5pVIh0UpBoAPbS4d0j2o8UUzcExPIE2l4dy4KNWVrtGaP6xZoTEfpjfXS9G2hBuVId0wOHAkdS2zEOnZ7ER2S/j1PumVpqHsnBxoQ0zCGrjQFxVKXcpLstgXS7R+FGp0b6DcHS6sLpGumhCJ+KPYakytdOyb4FFG87yupaXyzKgKLNzz9jDP02RNO2OtlkbkNGzbsRWDVBY1YQ2/+/Pm677779KMf/UiPPf6YXn/tdR144IHq1q2bXn/9dafDv/3tb6tPnz76y1//oqVLlurQww51UYpvvvGmWrdprd/99ncqVWAEVl0mpZLvNjcCa8b70zRj+gx99rMnaMCAAQ6VBYsW6ZWXXtawEcN13DHH1BnlkvI6V45wD6QtW7booYce1mmnnaodO3fqlZdfUc9ePdW3Tx/NmzdfO3fu1FFHHenW3/vTp+u9qe+p34D+6t6tm+bOnafC3bt1+hmnq0vXrkZg1Xl2mvYN9oXA2ldEfBRJLIH14IMPql+//po48WA9/8ILWrF8hYYOG6qsrCzNnzffHaKcffZZruOpvzZu3KhHHnlUrVq10llnn6ncnFwjsPZ1UprZ96oisIDizLPOdHrUX3See+CBB91hWSyBVRfYYu0ddDn3P/+C8/XhBx+6wJCBA/dzB9TY8EWFhfrCmXuPiYPzxx573Pnc55x7jjq0b28EVl0mpJrvGoGVRHCTfetEBFZZ0W5961vf0qWXXaoJB02oGMLHH3+sm2++WSedfJImHTbJ/Rwne+rUqVq/YYNTDGPGjHEEEj//4IMP1KFTJ63anKfpCz5SVutsnXLkBA3q0dF9F2fYp+vw/2efe05r1m/S4NEH6cY//U3fuOpSnXjEBFd4+d/PTtM/b7lVv/7hd9WnW3vd8psf6+ovXeGcHy5ObG677TZd9MXLNPnQ6CSJ6KcPNkk5WZEDX5fi+RAs3C8+ksqDg9K6dYF059JQB3QK9LleUTHothnSy2ulu5eE2l4SOfhdWkqXDA50xoA9Y4IIemSZdO9HoW6dHKjfPqRtkZJ42yK6m0lH95AuHyL1yo4i4+5eIj2+iiia0KWTHdYt0NdHRYQVRayfXy1N3xy6+jwHdQnUtY20Kp8orVCjOwW6cog0rsunMfz1h9L9y6VB2aFO6xNozW5p6sZQ+SUSdb3650hXDQ20fzmBkkieqa/z5bepZBt1RRuYI/1oXOBSypJ57QuBRSQUJ+JsTH379tV+++1X0cFz8eLF4sSld+/emjVrlmvLSvTW/vvvn/A1li5dqj//+c+64YYb9JOf/EQHHXSQLrzwQvdZIgx/9atfafjw4TpowgTdfPOt+s63v1nhZD30yKP67X0v6rqf/0bPbu2gRTukEoW6eligs/aLahbRNa99K6lDy70fT1QeUVn8fHQHOQKpuhbOyO3KndKHW6N2x5CePdtIo8uJrA+2hK5TDAQu6zU3K0o/hLQm+qZP20AXDorW4r/mh3pulfTd/QMdXoPmp6QzP/BRJJ+cRF0xONBZA6O15E+7qht/MuUole9dFYHVq3dvF+Xxox/+qOIVkOG/fRIVmJmZoQH9B1REYK1YuUKzPpzlTtF79+njIkC6d+vunHHWw7Bhw9SrVy93H6JY2BOyc7I1ZvQY9zN/4rl8xQrddeedjpDlEKJvv7665OJLXMTVmrVr9POf/VynnXaaiz6E2D1g/HiddeaZ7tDC//773/+++vQfYARWEgSvuRFYTz72mIv4OO3zp+2V1vrfZ59RaUmpTjv11Eh+w1Cr16xxEbCEshI55SNHtm7fpk0bNqp7jx5atmyZO1BjD+hfHg1ekR5STmBBWt1/3/0644zT9e6Ud116yyknn+wiAwp27dID9z/g7nXi5z6rZ559Vrt3F+r0z5/mfr8zb6f+c9fd7uBuxKiRRmAlYQ00pVvWlsBCztetX68Vy5ertKxMXTp3FvsE2Rdc2D9EChINu5zPlJY6+wdbCOLKp7X6ukNPPfWUevXqrTFjRztHftDgwTrskEOcPl+/YaMeefhhHXPssRoxPIpC2bp1m5544nEFLVqorLTMCKymJIwN8C5VEVg5uTnq1KmT07X+mjd/vqZMmeJKeeC7+ihEspKWLFniIgU7dOjoZLxTx47CZ9i0ebOLWm/TOnJQsPOXffSRevbori5doogEb++QTfHQQw/p/Asu1JNPPOGifE868USny4tLSvTAgw+6CMMzTj/dfY+fPffss8rLz9fOHTuNwGoAmTECqwFATtYjEhFYQWmxrvve91zkx+WXXaZ27dq5kxKcjNhry9at+t1vf+ucGhbmroJdapvdVt/65rfcCQsOCKGSGS0y3P8x7Lp176bvf+/77kTdGXZlkYPL5vfGG29o2/Zt6tG9hx599FF997vfdRsl10fLl+tL379R51/5f9qUX6Ln/vuE7rvha+rVNWJG5s6bp4t+9Bd95owLNa/rZEcivbUx1K7yVJMLBgS6fFjUlr66CyLoP4ukUwZEKVPLdkpXvhVqxyd5BD8bE+ikflEkC446F2O/Z7H00IpQPx4d6KjIj/vUBVkX35kl9kP8/tpp0q7iUH8/LKgo6l5dLR6c+KkbpOumh+rVJtBPxkbkWfwFcfGnuaR7hfrZAYE6VFNsn+9DSPxohjR7W6hPvqaeraXT+wc6c1BEjJ37mvSfw6VnV0hPrA6VmyldOihwDQ34/a2LQhWE0r8PDRyp4dOMfHQOBs+LK6U/Lwh1y2FRCNc3poUufezPBweOgEtWHaLaElh8ntQnQnqJkmKTwxC79tprnfPOaeO77+KQlKl169bubza3r371qy4tKv4i/fXf//63rr76av3zn//UKaecovETJro1kZ9foF/95ldq2b6nuo05QguXLNPXzjpeA7u0cpvtL29+UA+88p7euvuP6tw20+EKlnUhaatbF5X9nroxpC1u3h2RYcgVKbQf7Yy64+0qDTVts7S1WOrWKtCmT1go1hG1uGpzkXaIzqCxhF01Q6AqAuv888/XAw8+oB/84Icu+gPn5ZZbb3WkVH5entP/pBCuWLlSN/zyl24fQL8j961atnL6uai4yEVETTzkEJ17zjluUDg437vuOp1zzjkuYjD2RHLz5s268847dc3/XaOf/fRnuuzyyyuieUmR+uY3vqnjTzhexx5zrF566SUXkUi6LI4SMzQjCAAAIABJREFU6bWk3P7hj39QZsvWRmDVTARq9anmRmC98uILWr58hY77zHHq1bOnMrOyKuq+xQKHo0MEYKtWkfJhXU2ceKjGjR2tBQsXuuhBbBpsHdYRdtUhh07UAQeMd/aBMxXKU0t27d7tSKrTPn+qnvnvMxo7bpzGlO8PpAzec/c9kaN1yskuAot1OKB/f5WFoTZv2qyHH35Yp5x6qktzrK8C87USEvtw2iBQWwJry9ZtevyxR5WRkamMzEzt3rXLGbjnnXeeI7Fef+MNEUXbuhXGY+BsEewcogm7d6eQrdwhkyewXnn1VXXr0kVDhg7RQw8+pM9+7nPq1jVy8nftLtTtt92myYdP0tgxY926efHFl7Rl6xb1699fC+cvMAIrbSQtNQZaFYE1cv+Rmjdnni655GJnvyNvEEiQU8uWLtXIUaMcgVVUXKIHH7hfxcUlatm6lYp2F4qaoWeffba2btmi559/QSeedJIG9I/K1SxctFivvPyyTjntVPXt3dv9DH1Pyjg+71NPP6VTTj5Vzz77rDv4Gz9+vPsMz3/k0UfdGiK1kf9PmTpFixct0UETDnL7jUVgJV+ujMBKPsZJe0IiAisrCPXfZ/7rjCuIqy5durj6JIMHDdLkyZNdSiEXhtRrr7+ma79zrXMySG364x//qEMOOUTHH3+8I7Bw8HHgSRHhxAYH5Jhjj9Gpp0Qnm+S2Q1BAjeHs46hAEPA3BiEXxAGRX4yVSJXiFq00a1OpwhaZLrKndWm+fvGXW3TnGwv08B9/rEUZvV0R6r450sFdpLUF0m/nhGrXUjqme6BJPaQ+2VGEEPV7Yi8KV1/1Tqj84kAbdocuUokOZkd2D1y9KOpWQc4QnbRuVzR2FFXrFtJ3Rwc6osee9Kt9mTTIs2umhi4Ci2gorsndAl02NCL6iFDaWbQnEowi1f9eID2yPNR5AwKdPTB6r/q8IOoWbpPW7o5Iikc+BsvAERPD20m/GB84JxWCgUgYom78tb1I+v770pYiunVG8x1bbweyZt1uubFfMSwiYJivmxfSES7UFUMCXVB9tuo+vW5tCaznn39eTz75pKtZBbFKBNXvfvc7lztNJCAE1muvveYcd9YAtdn+8Ic/uM3yO9/5zqfGyO/Xrt+ktp17qLCkVDuKM7SuINDWgkI98thjeu2NN/Xtr35Jp0weq6wWUSH2W++4Q+s3bdG29at049cv0fGHjBO1r1L9ggh9a0NUGH5CF7murXYlH4GqCKyvfOWreuqpJ10UIcUqCV3/1a9+rQMPHK+58+aqY4eOjsB65JFH9Pbbbzvd26FDBy1ctFB/+tOf9Y1vfF1Dhwx1awDjC0KLk8Unn3pKb7zxum684UaXBuIi5coNOvQ6JBZOOf/OyMxQUO4IkUZL5NZXr/6qRo4YWQHOY489plWrVrkT0YMnTtSFF1xgNbCSJDrNjcDK27Fd6HWIoZycbOW2a6+OHTto8ODBLoqK4tNbt21za2DMmLE64IBxLr16xvSZmj59us4660x3Iv+/V/6nMWNGOyIXh4R6hdu2btMXvnBGRXqUb37DWoEkZi1xM56BncRF1Pq7U6bqoIPG7xX9vmjRYhEduWnjRuXk5uqkk05yzpURWElaCE3ktvEElj/giq3nFlsDC/uFFL5TTztNLVtm6eOPPtYLL7yoY4871h00QGDNnTNXRx55hIYPH6HtO6IaPwcfPEETDjoosunptlmOX15evtPxRKsQ0UXjAi7So1753/9c7SHWCClVM2bO1Ly5c/X5z39eEMZzZs8xAquJyGFDvUZVBNbRxx6r1199VUcffZTLbHCpqo8+6upMvfzKKy5TAgILHfzhrFkuKgpdi1+Krzty5EgdOH687r77HvXp20efOe4491qkxtIA5IILzq+or+XtHchd7Cp0PfLvdT22z/vvT3c14Y4++mhXB4vIx2eeeUbHHH2MMrMy9ewzzxqB1QCCYwRWA4CcrEdUVsSd523eskXvTZ2qefPnacvmLS49irpY1333Omfc/fKGG9SmTRudfdZZFcN74sknRJFSSC0ILAqSXn755RUG2p/+9CeXfoUzxOUNsESRI5zIz549Rw8//JCyslrqogsvdErEbYBl0rQ1hXpnxly99997tK4wQxecc46+cuJBrqhz/EVtnXsXS6+sD13XM0gZyBTOkfbLDXRaP+m0AdLHO6Ur3g71z4mB1hRItyyR+rYO9dPxgSO7Xl4lvbleOqSrNIkIkjAaC+lYkAz1cTGGt9ZGTt/2QunpNaFuHB+48dK9EdJsdK50XN9AT30cal2R9JUhgU7sl7xopdj3Iqrmn/Okj/NC/WhsoN7VpDtCbL2+JiKuwBDjyUdlQHZB1sXWQXJyUSbdv1S646NQp/cO9KURcgRkfV61JbB4NrJLWDB/SBMkSoQC7xBWEFgUXiTFCZKXyLibbrrJdfIkTdBfEE5gQtF0IpVcwUeCz0pLFG5fo3efvk8b163Rscce69Kp/MVa+f1f/6WNG9araOcWl57I2spo1aY+YbF7NSEEqiKwvvHNb7rUaxzj73/vey49hJps3/zWN3XPPfdUEFg43Dt27lDezjzl5edp5syZevV/r+rqa652KYLT3p+mO++40+0HnNITkTjugAP0xUsucUh60jq+PTq/w8BbumypqwHHHnPYpEn6whln7NX188FPQvApso0hSK0UCs/nduhoEVhJkNPmRmAhk0Q9rVq5SkuXLnEFpokaxy6CrDrs0MP04awP9d7Uac6Jb5cbFezbtGmTXn31NR1++GQXqcJ6uPLKq5SVFZ3eQLa+/Mr/dO45Z0dEVfk64HnxlyO0tm7Ru+9OcUQtjWg+c9xnlJW15ySKor449AUF+S4ygAYePXv3MgIrCWugKd0ynsBKpINjCSzsMqJGiLwinZXIFLIbaJCEkw2BNW/uPF1x5RUVKbd333OPixA8/PDDIzkvL8aeyBzGceeg+40339TuXbt1wPgDdMC4cVq7bq2efPIpHXnkkRo5YoTemzbNCKymJIgN9C5VEVhnnXuOnnvmGfXu1VvHHXdsJGNz5uiss85ytrsnsFgDEKwF+ewDhVq/Yb2zk6hJOHnSJPe9D2bO1KWXXqZQoe644w4deuihFVG0voNhZfbOtm3b9fbbb2nNmrUaPnyYk/n8ggI9/NDDGjpsiNtz2AeeMQKrQaTGCKwGgTk5D0lEYG3fvNHVWhi430D3UAwsHHdSOO6++24XAnnxxRfruu9dp/y8fJdaUuFkl5W6Tjlf//rXHYHFZ88888yK3996663OYeJ3XL4OlovCKo/E4uew4yiGZR8t03HHHaejjzq6Ip2Q32/eslm33/kfvT3nI3UcdrBO/dxndNL+3V03tEQElnsPCIiiKC2uoDT6HHWtSHW6Y3GoE3tHnVDojPbnQyOipbA0IqaSlcZW3awy5rsXR7WxGM+FAwMd0Fl6ZiUdHKP6VF/YL4ooa4oX9bm+/37oouk+1yvQ6E7SAV33dEyryzvHE1hERFHDhHo+XPFdCOkW9cADDzgilzpvFJqm8HosgUVh9m9/51qtKW6jDQXSnbfforbbPtZffneDk785m6SbFoWOHD2rf5RuSsRciyDUA/fdq5nTpmrgoIE6/fQzXFoXES2xl09PIW+fsVxzzTUaNurT6Yl1wcW+23QQqIrA+ua3vuWiBG++6SZ969vf0vT3p2vW7Fkute/6X15fQWBNnzFdjz/2eMVJIqePfNYTWEScUJR9woQJGrX//vrzn/7kHJyDDoxO5L0+Rn+5iNVyJx5H6d5779XsOXM0YEB/ff60z7toMB+NEjsLjJO6cEQ0UqvinPMvMAIrCWLanAgsalxt3bzRka5EfXMhy9g6706Z4gpOX3rZFzXtvWmaNWu2K5MQW0YB8vXgCRPUIiPDpY5fdumlFTPCId6jjz3mUkOILnH3Lj+14bAC596lFpaWuc6cc+fMUZu2bXXYoYeqT9++FZEqsVPsU9I5pc/OztFJp5xsBFYS1kBTumU8gZW3fZurT0sELNEgXLEEFocJ77zzrisHkpObrZycXBcldRRRK+UE1oIFC/SlmI5d991/v7NVYgksShp4OfdEVkHBLr322qtauXKV+vXv6yIMyexgFNS/pe7W6DFjnM0DybVxw0aNGDFcAwcNUo9evRN2R2xKc2XvUncEqiKwzj3/PEcMzZw+QxddfJGefvppl+VDTarbbr+9gsCCsPrf/151NahoGsNaQR7xCyCwiJ599NHHNPnwySopKXaHG+eee05FZpJv2uHtHS//qP93333HNeLgUGPSpMnq3q2rk/e333lXs2fN0rDhQ9WmTVtna9HAZuTIEa7e4n6uaVqC04+6Q9bs72AEVhqLQCIC683XXhFpG7/97W+V3XYPM4LDQfoUjvuXv/xld+KemZHhIk6808EpPoYWpBYk1eAhg3XpFy+t+P3v//AHtWrdSv939TUVRp1vh45zA2tNba1f3XijUwgXX3JxBZHmYcaZIZKLVJTzzj/P5c/HOj2VEVhVTdOsLdIvPogKrd9wQKCDy7sDpsLU8j5EZFH7Z3yXuqUopsL71HYMFAz/x3xp0c5Q63dJo9oF+ul4qVubKIJpCRFr66K0zondpLP3q1mts3gCi40JWUa2iPTg/xSa5uTlkksucV042QBpcMCmtmrDFl3y9R/owou/qNOOPkRPP/ag3vpgoU654lplt23jipj/5d+3asaCZbr9Tze6gvn3fxwRwpcPCVxRfGpFcCpJu+nZs2brxJNO1DHHHFtRh4XP/u3vf3NOFc9t0zqKtoJMJl2Xou8HHza5tpDa55sJAtURWIMHD3I1Cen0N2XKVJ1QXn/q57/4eQWBxXogVeRr//c1V5uH6JMf/vCHFQQWUOLETJ0yxaWY00Hz5z//uXPcORAgTdhfmGA+UhXyitREOgMRNh97kcJIujnF3vv329OWlfXImrj2e983AisJMtycCKz8/Dw9+ehj6tW7l4479ti9bAj0PBEh5553rut2DIlF57+uXbo41Dmhx/5Axj9evtyljl95xRUVZQ8WLlqkt958S2edfVZF1FZsK3RfI2jOvPl66403tP/+ozRx4kRXK9RfkFs33Xqzi7baL2YNUCeIvevCiy8yAisJa6Ap3TKewHrnzTdE7U0aY7j07lC65dZbXGrU2LFjdc+997oaVaQ1kV0BEcs6OIKUwVoSWODoS2zgEzz3/Atau2aNDj9isoYNjQ4J/UX92w0bN1b8n4Nx/A1KNew/en8NHT7CCKymJJhJepfqCKz27drpjtvv0KTJk5ztQffZvn366tbbbnMEFgcSlECg0yt6l4Nq7I1777vPNVCCwIIAppRIy1atVFhUpNYtW+mkk6LC7L5hR6y9g0/LPTgUwcYfO26sS7eNPZyeMWOmC9bwV3FRkWtogPxTnmf8wQcnPNhLEozN6rZGYKXxdCcisHZs2eQcEDqGXHXllRU1HN5+523XPYcOOERV0Q4dZwVnBlKLzQ7S6rBJh7kQeP7NxvWDH/zAEVqc7v/73zc5MmDiwQc71DiV9AQWNZ5gq6dNm+Y6Cl555ZUaMWLEXuhCfi1cuEh//9vfdMUVV7hc5tirZauWKgtqXwQKxUNkFhFXECONUQw7jcUo6UNHRnaVSJsLpZ/MCLW1JFCnrFDrmLMS6fCuget4ePPSUJM6B6421/I80jBDHdcr0An9InI09sIJKMnKVmnLXPXLlSvQCIF17rnnOhkn4upf//qXjj3+s5r0mZP1q19er7LSYv3wJz/XuoJQf7nrEZc7f80Vl2r/Aw/RY488qFnzF+qOG67VgE5tXC2wf998i6bO+1jf+/kNLtIK5z07M6oT5gnbDRs26Prrr3ed12JTBhkr9SNeeP4Fvfzyy7rqS1dp/1FRR0Ocf4w+0rX6DUxSkbCkz6o9INkIVEdg4ZQ8+dSTLhU2KzPLEUYU440lsH760586Z+a6665zZOt999+nt9962zUfIBqKi06ENCTgRHPcAeN0+WWXf0q/O3mOicCCkJ14yESdfNLJexlnOPHsJb///e9dZ04KCGPs8Yybb7nFdRE67oTPGoGVBOFpTgQWtsmzTz3lormPP+EE9evTxyFKejgRIXQLvOyLl7qmBUS7ItdESHFNfe89zZwxU1848wuO0KUG1shRI3XUkUepqLhQTz/1tEpKSnX66Z+vqAPnI7C8U8997vrPXerapas7tIg9hKNUQ1Zmpu699z5ltczSaaee5grIe0KBGl1HHXO0EVhJWANN6ZbxBNacWR9oyrtTXQdMuoZTWw3df+qppzhn+Y477tSYsWN0+OTJLj2KNNhFCxbq2ONIIRzuUghrGoEFjj6NCsL3rv/8x6Xljhk9di+IaZygsMw5+f4isp3yIWd84XS1b9deZUELI7CakmAm6V2qI7A6d+zoOruuXrXa2TQXXniB07uewILIpVsmdWtZE9gd06a/r2lTp7l1AYHFRQbEzJkfuH/j744tt4N8+qB/PaIQ8UZpdEbUVsdOHd1hXWwkLx036QYdlu056aPb7bPPPqczz/yCi9Yqa7F3JkaS4GuWtzUCK42nvbIi7hQ2fenll1yIO0Xc/7+9O3+OqtzzOP4NSICEnQRIIKwOIKVgVFxxF1FxKXGrixtY17k18+Odqvlhau5PTulfcOfemhm1XEutq7dES0VxVxAXFMFh1QQIIWFNCATIOvP5hgebpjucLG2fdN6nigKSPuc859Wnu09/zvN8H81KpWJ2CpSWP7bce4LoRaZhfuqpoi891Xv2+N2b3z/+uOWfnIVQ04K2NDf7nUr1ztKsUqrbo0UfV4kFqDX8T4t6f61cuTKlqoZMbd22zd5P83v1SLnsqo6x+Cy5KaDC8M9vN6tvbrdLxuTZFeN/nZlu0yGz/9muILL91IyTKn6uYHLRxI7hl/oSrTpoq6uO29q6fGu1PFtcmmfLph+35//7Lz6r1PjiImtsqLPRE8qs/K7HbeToMbbi/2eM+vuKFVZWWmID25ps1qQiK7YGa2tusnsf/r2tWv2N1VZstif+7V9t6NCOKXY1q1tFRYU9ebIG1mmB7clhsxqHr1kIFQ4kLxfMvcDDgD//55+t4pcKnwxBr9njJ47bggVXe6HJ5na6Fufmmd7zo+oswFKApG7x6m2imw0lpSX2xz/+i88wlRhgaUZYBaiarUfn3vgJ4+3AgYPW1tbqExhMLpvsQ87/9O9/8iGJCrx0noZZZn/9WtIxEYXe5it3VNpTTz6V8gA1AYgK+f7t9b95UKbhXQq1FDjr7uUf/vEP/oUm3PjouRJbCAL9KcDSu2Zjw2G/zqmt3WvDhw33wtUaIq5hHAsWXOVDWrWosO/X33xrI4YP8y7QqgenHivz519iqk/12aef+ZceLa2tLabhiQqYpk2d2vEz1Xs7+UIIAVZdfb299OJLKU++srIyn4VQ29ZrQMFwYWGB35UvKhprCxcutGEjRhBg8dLtVCA5wGo61ujhqnoP6qayahtOnTLVblt8q0+mserDVbZ9288+kYHe60eMHGX1dXWmG8OqFbR69WpTmQTd2A5LuiGE+n3oabhj5057+623U7ZVvWEunHd6qKUJEtav/5Ei7pzfXRKIEmCpQLt6x86dN8+uXtARSIUAS0XcVdNTPaJU71A3OVR/WaP39J5/y62LrLSk1PTerc4cCrgefOhBKywoOKP3lbar7xq63tF3ZH2vPXGi6YzjUai19He/O+3n+m69YsVbFHHv0rPfvQcTYHXPLRZrpSvi3tbe5vWt1K2xtqbWu1KqILuGkCR2fVR3SnWx1wfUlCmTraxssg3Oz/eLQH0pKi8v9+KnqnulYVfqrhm6ySd+mfcPuwEdo3zVJn0RSrUoNVedinS/HzJkiLUP/LUbfiyQaURGBBJnM0zcgReNPjlluX6ugv0bD5n916Z223ik4xzLzzO7aFiTLfuHdisePsT+eU276SbHP01r9sKle/fW2gUzp9nIohIbVZhv5UUqst7qIWz1nmo7d8Z0090cBbRVu3Z54V3dyVEIpXM03E3XuayfhZk7E895XdzpDo3OZz0u8Q5kOB59cdH2mjRjYXW17dy1y2fL0kWn7sxoP90ZMpuRJ4SNxk4gVYClGwUNR45YwdCh/l6uizTdIdRdQZ1rWjR8Q+dWeL9VyFVTW2MzZszwoYW6o66fqVu9hqJo+Y8nnrCCwkIf6qolefigfhYCLJ3z2meqRTPfaptql75oqS5LW3u7FwoeVzzOv8wnf3bEDr6PNqi/BVgdRdxb/AvG3n0HrKW5oz6QhgrqOiW8j+u9+ejRRquu3u3v06UTJ3rtLP1eIZPuyD+4dKkPg1Ktn0kTS0/1XE8eVpI4rEqvo1SLXpd6HWhfx46fsJo91V5Uu7h4nI0dM9pfA3p9MQthH32h/UbNTlXEXdfsqumj87SkZIJpWFW4ptcN69q9e63+cJ1NmjjJPyPUk1C9FEsmTPBrFV3P6Do7LDqH9dlx6rre6+Z2/DYEWHqNNTelvqbXemHG8bBN7Ud/9Dmg11iYCOQ3YmM3fVQgVYA1oK3Vh/3pnA3X6Pp/4nmn629NxqFerx2TatRZdU21lU4o8deHfqbXhTpz6Aaflueee86mTp3mM3KG653k9+MQYOlapiO8Sryd14Gs1064hgrfafR4tTGc/4nDz/voUxPbZhNgxfapOXvDUgVY4UtGZ2vr4qmzSfdCgKUhIEuWLDljU6F4e+IvEoeXnL3l6R/BF/qe6OX2ukdbOi6uNBvi/r21HizpzrkK9//vQfOgSuehZpbUTIEKu84d2VFovadLco+UMISwp9vlfO+pYO6uny7A6s0j3rd/v+3ZU21//ctf7f4H7vdhVFrUuzb5ck2fGfp86elCgNVTwdTr98cAqzPJcP521sc1BFjLly1LuankL9/aVqrZCLv6jCYPV+nq+jw+9wWizELYmwrJYW34Ah9lH1pX3ytSDZYiwIoiyGNSBVghRO0tnUN19bZ7d5WtWb3Gv9uOHTvGNx2KtyfuJwwhjLpvvaenOv8JsKIKdv1xBFhdN4vNGqkCLDXOP3jUQySppeEDymcZOfllJNXFXboAS+srvEo3/GPggNQv4KhgycMSo67H4/qfgOqJhAArHH2q8FYfTBqeHjVgDee4PrzCh5HfLU/1hf5kTaDOviBpe/qT/L0/1RCt/vcscsSdCZwtwNJ7ceL7fKjCkDhzTqpzL3GfmhlQkwoUFBbYk08+ZUPVC7bdLN1FV5TgVu3QayL5dRF6nSSUS+EE6EWB/hRgiU3nl97XU73/JvZwSqxblcytAGvtV2tt2bJHT/tVZz2kooRYnYVnfg3Vi887m8pNgeQAK1yTJJ7vITgKvdajFCQI1ziJM4enO9+jhFjpXmuhbQwXz83zs7ePKlWAFeqwaV8KiMIMsPp/8rV1lBsWzz33vNdJnDxlqi2+7RbvQZUc3CaHWPoecLZrfL2nhx5YiZ9J9LTt7bPk9O0RYGXWN6NbTxdghZ0mf9ClakzyC1Mfaur+q9l5NM5edbG06EPozA6UGT08No5AWoFUAVb4UhNWSnW+hvM9G+dyNvfNqdT3BFIFWN05ilSfAyH40jDzxqONXi8oDJXtzfd6zvnuPGPdW6e/BVinfdFI+E+69/bEczGEvBpuqxt2qhGX+LnRm58PUa7DuveMs1YuCyQHWFGv63nPzeWzInePLVWA1d2jTX4NhPf7qt1V/kVWtUA18Y2WEIR1d1+slz0BAqzs2fd4z2cLsHq8AzaAQEwF0gVYMW0uzUKgywK9FWB1eces0CcF+nOA1SefMBqNQCcC6QIs0BDIRYHeDLBy0YdjOlOgXwZYuVI8UwUZVSwuFO/lBEegvwgcO3bci4cOGtQLBa76CxrH2acEeH/vU09X1hurYuY/rPvOLpq/MOtt6e0GNDU12znnDDxtCvPe3gfbQyBOAirArgLUXOPE6VmhLZkSaGlttXafOZCJvDJlnGvbbWo6bhvXf+4z+8ZtyWtPNbVX3FpJexBAAAEEEEAAAQQQQAABBBBAAAEE+q0AAVa/feo5cAQQQAABBBBAAAEEEEAAAQQQQKBvCBBg9Y3niVYigAACCCCAAAIIIIAAAggggAAC/VYg4wGWRijW1dXZgQMHrLm5ud9Cc+AIIIAAAggggAACCCCAAAIIIIBAnARU77uoqMiGDRsWp2albEvGAiwFVw0NDVZVVWUtLS1eBF0FoVkQQAABBBBAAIFcEtCMxZrwRRMDUFo0l55ZjgUBBBBAAIHcFxgwYIBfvyjAmjRpkhUUFMT2oDMWYKnXVWVlpY0ePdpKS0s9vMrLy4stBA1DAAEEEEAAAQS6IqCLPV3r1NfXW1tbG+FVV/B4LAIIIIAAAgjESkB5jXKbmTNn2pAhQ2LVttCYjARYjY2Ntm3bNisuLvbwigUBBBBAAAEEEMglgWPHjtnPP/9sJ06cyKXD4lgQQAABBBBAoJ8LDB482GbNmmWDBg2KnURGAqxwQTd79mxTdzQWBBBAAAEEEEAglwS2bNliR44cyaVD4lgQQAABBBBAAAEXmDJlitfFitvS6wGW6l1t2rTJe16NHTs2bsdLexBAAAEEEEAAgR4JHDx40CoqKnq0DVZGAAEEEEAAAQTiKqAa5nPmzIld83o9wFIR0w0bNlh5eTm9r2L3dNMgBBBAAAEEEOipwNatW32iGhYEEEAAAQQQQCBXBS6++OLYHVrGAqw4Hmzs9GkQAggggAACCPQ5gZ9++sk08yALAggggAACCCCQqwJxzHQyEmBt3LjR5s6d6xXsWRBAAAEEEEAAgVwS2L59u888yIIAAggggAACCOSqQL8IsFpbW23z5s1e8Gv8+PG5+lxyXAgggAACCCDQTwUOHz7ssy2zIIAAAggggAACuShQWFhompQvbkuv98DSAVZWVvrMPDpgemEK7nPWAAAK7UlEQVTF7SmnPQgggAACCCDQUwHNuFxXV9fTzbA+AggggAACCCAQO4Fp06bZmDFjYteujARYKuSumQhHjBhhOnAWBBBAAAEEEEAglwSam5tNQwkbGxtz6bA4FgQQQAABBBDo5wKagXDWrFk2cODA2ElkJMDSUaoHlqaY1sGPGzfO1AUtjgCxe0ZoEAIIIIAAAgj0CYH29narqanxnli6eacyCvoZCwIIIIAAAggg0FcEBgwYcOr6paCgwKZPn275+fmxbH7GAiwdrS7mFGLp7qTCq7y8vFgi0CgEEEAAAQQQQKC7Am1tbYRX3cVjPQQQQAABBBDIqoByGt2A05DBsrKyWJeBymiApWdBEEePHrWGhgZraWnhzmRWT012jgACCCCAAAIIIIAAAggggAACCJh3MlJvq5EjR9qQIUNiT5LxACv2AjQQAQQQQAABBBBAAAEEEEAAAQQQQCDWAgRYsX56aBwCCCCAAAIIIIAAAggggAACCCCAAAEW5wACCCCAAAIIIIAAAggggAACCCDQTYGqqipbtWqV3XrrrTZ+/PhTW1m/fr1t27bNFi9ebOvWrTPVzbz66qvT7uXYsWO2YsUKKy8vt5kzZ0ZqjUo2vfnmm3bZZZfZjBkzIq2T7kGqY37OOeeYCrvHcSHAiuOzQpsQQAABBBBAAAEEEEAAAQQQQKBPCOzcudPee+89u+OOO6ykpORUm7/77jvbunWr3XXXXbZnzx7/eWchkwIshVEKsGbNmhXp2I8cOXIqwDr33HMjrZPqQQrX3njjDbvwwgutJ9vpdgMirEiAFQGJhyCAAAIIIIAAAggggAACCCCAAAKpBKIEWAqnNMldUVGRT3C3e/duO3z4sM/819jY6LMA6vcKsM477zwbNmyY1dfX26RJk6y4uNgLrquHVGVlpR08eNBGjRpl06dP959pnXnz5nkhdm1z8uTJNnbsWF/nxIkTduDAAaupqfHt6I8ep55b+rm2o7YMHjzY1qxZ4+sqQFNPrIqKCt+e1lE7Bw0adMbha/t6XF1dnR/DtGnT/HHhGKurq23EiBHe1qFDh/rPd+zYYePGjfO/CwoKbOLEid4WtUMBoP6vticvBFi8/hBAAAEEEEAAAQQQQAABBBBAAIFuCoQAa8GCBR5QhWXTpk2mAEc9sL755hsfQqjHqLeWgiGFNfv27bOGhga76aabfPihwiiFQqNHj/YQScHTokWLPNR59913PegpLS01DVvU46+66ipfR8GQAiQFP7W1tT5sUcHTypUr7dChQx5M7d271x933333eRD26aefelO1PQVmGu6o4OvSSy+1L7/80gYOHOhB0y+//OJBmoY/Jg4v1LbCsUyYMMHbpG1dd9119uGHH3pbFVyp99nx48f9OBRuvfrqqx5cafZDtVUBl4I47Vte1157ra9HgNXNE5LVEEAAAQQQQAABBBBAAAEEEEAAgWSBEGDl5+d76BOW5uZm73WUGGApmHn//fftlltu8V5Nu3bt8hBo4cKFpwIshWA33HCDB1kKe9QjSkHSO++8Y/fee68HPwq2FEDdfPPN/nMFXAp+1NPr5ZdftiuvvNLraGnb11xzjQdG6uH0wQcf2P3332/79+/3kEmhksKtxCGE2tcrr7zigZWGPCpkU4h1xRVXeKgWFvWg0jbUJoVQcli9erWHajpGBVlaX+HVSy+9ZHPnzrXZs2f7MSnI079/+OEH+/rrr71N6g2mY1FvsBtvvJEAi5caAggggAACCCCAAAIIIIAAAggg0FsCIcBS6KReT2HZuHGjhzqJAZbCIfVuWr58ufdGUnD09NNPnxZgnX/++aY/+t0LL7zgQwrVs0qBkcIiLRpuqGBIvaBU+P2iiy7yx7W2ttqzzz5rl1xyiQ8rVPCknmAKwxRuabjiAw884L2j1q5d672xFEolBlgK2RR0KfBSMKVATdtOLFCvNmjIoYK0u+++29ukbWg/6on18ccf28MPP+wBnpa3337b/63eXQqwHnroIR/KuGXLFt/OsmXL/HGffPKJqa7X7bffToDVWyco20EAAQQQQAABBBBAAAEEEEAAAQSi1MAKQwgVYKmX0mOPPea9tRRCKaRK7IEVirgrEHrxxRe9p5ICK+1HgZMW9e5SzygN/Xvrrbd8FkIVX9c6zzzzjAdY6v30+uuve08v/VEI9vnnn9s999zjAda3337r/1Y7EgOsqVOnetClGlzqIaYgS/tTeKZeZmHRcWh4oLahRcMA1bNLQyLVOywEWGq7QisNL9Sx6d8KrBScKcBSkPbII48QYPFSQgABBBBAAAEEEEAAAQQQQAABBDIl0JUAS0XO1bspDN378ccfPcA5W4A1ZcoU72mlAEtD7TZs2GDff/+9937Sz1MFWOrhpJDp0Ucf9ZBq3bp1HlqFHlipAiz1/FKvq88++8yHOWpfCrHU5qVLl3qQpYLtGrKoYEtDFDX8T8Ma1R61S/W8VK9LQxA1jFFF5xWkaWihgjQCrEydiWwXAQQQQAABBBBAAAEEEEAAAQQQSCMQNcBSTyTVflLvJPVc0pA6/UxF1lXLSr2zVJA9uQeWhu/Nnz/fh+VpGOHw4cO9d5SG46m3lNZJ1wNLv1OQpQBL+1LvKIVoKiCv+lNLliw59btVq1Z5u1QzS0GUhhyqmLwKrattqkuln6tmlYYAqlbVRx995IXX1RNM27788su9J9gXX3zhwZeGH+r4FIpdf/313tMrMcDaunWrffXVV6f1wNIMiSpCn7wwCyEvQQQQQAABBBBAAAEEEEAAAQQQQKCbAgplVItKNa00TC8sqkel34UaU/q5fq86UfpbgZIe89prr9ltt91mmslPPZwUNoXZ/vR//TsM8wtD+zTjoIIpLdp3unX0eM0+qMcXFhb6vvVHPaa0b7U5sb2aHVFhlLan4YAKnxRiKYhSO7SO/oShhDo+BU5aT7MIKtQKx6afKfxSXTDtT+vrmIOV9qv1E9uhf+sxicXiQ/sIsLp5grIaAggggAACCCCAAAIIIIAAAggg0BUBBTqqWTVnzhyvCVVRUeGF0O+8804PmFjSCxBgcXYggAACCCCAAAIIIIAAAggggAACv5HA5s2bTbWvNOROQ+tUD0t/s3QuQIDFGYIAAggggAACCCCAAAIIIIAAAgj8hgIaJqdZ+zTkjiWaAAFWNCcehQACCCCAAAIIIIAAAggggAACCCCQJQECrCzBs1sEEEAAAQQQQAABBBBAAAEEEEAAgWgCBFjRnHgUAggggAACCCCAAAIIIIAAAggggECWBAiwsgTPbhFAAAEEEEAAAQQQQAABBBBAAAEEogkQYEVz4lEIIIAAAggggAACCCCAAAIIIIAAAlkSIMDKEjy7RQABBBBAAAEEEEAAAQQQQAABBBCIJkCAFc2JRyGAAAIIIIAAAggggAACCCCAAAIIZEmAACtL8OwWAQQQQAABBBBAAAEEEEAAAQQQQCCaAAFWNCcehQACCCCAAAIIIIAAAggggAACCCCQJQECrCzBs1sEEEAAAQQQQAABBBBAAAEEEEAAgWgCBFjRnHgUAggggAACCCCAAAIIIIAAAggggECWBAiwsgTPbhFAAAEEEEAAAQQQQAABBBBAAAEEogkQYEVz4lEIIIAAAggggAACCCCAAAIIIIAAAlkSIMDKEjy7RQABBBBAAAEEEEAAAQQQQAABBBCIJkCAFc2JRyGAAAIIIIAAAggggAACCCCAAAIIZEng/wBknpMgdvDGgwAAAABJRU5ErkJggg==;" parent="1" vertex="1">
          <mxGeometry x="306" y="2070" width="478.5" height="210.54" as="geometry" />
        </mxCell>
        <mxCell id="oSoFgmhYClItjlkkTBQM-1" value="" style="group;shadow=0;glass=0;rounded=0;" parent="1" vertex="1" connectable="0">
          <mxGeometry x="1505" y="1408" width="256" height="257.38" as="geometry" />
        </mxCell>
        <mxCell id="oSoFgmhYClItjlkkTBQM-2" value="" style="sketch=0;points=[[0,0,0],[0.25,0,0],[0.5,0,0],[0.75,0,0],[1,0,0],[0,1,0],[0.25,1,0],[0.5,1,0],[0.75,1,0],[1,1,0],[0,0.25,0],[0,0.5,0],[0,0.75,0],[1,0.25,0],[1,0.5,0],[1,0.75,0]];outlineConnect=0;fontColor=#232F3E;fillColor=#ED7100;strokeColor=#ffffff;dashed=0;verticalLabelPosition=bottom;verticalAlign=top;align=center;html=1;fontSize=12;fontStyle=0;aspect=fixed;shape=mxgraph.aws4.resourceIcon;resIcon=mxgraph.aws4.ecr;" parent="oSoFgmhYClItjlkkTBQM-1" vertex="1">
          <mxGeometry x="166.8170426065163" y="146.51953182957385" width="72.93739781945634" height="72.93739781945634" as="geometry" />
        </mxCell>
        <mxCell id="oSoFgmhYClItjlkkTBQM-3" value="" style="outlineConnect=0;dashed=0;verticalLabelPosition=bottom;verticalAlign=top;align=center;html=1;shape=mxgraph.aws3.lambda_function;fillColor=#F58534;gradientColor=none;" parent="oSoFgmhYClItjlkkTBQM-1" vertex="1">
          <mxGeometry x="12.832080200501256" y="141.91378446115286" width="75.70927318295739" height="79.43301553884713" as="geometry" />
        </mxCell>
        <mxCell id="oSoFgmhYClItjlkkTBQM-4" value="" style="image;sketch=0;aspect=fixed;html=1;points=[];align=center;fontSize=12;image=img/lib/mscae/Docker.svg;" parent="oSoFgmhYClItjlkkTBQM-1" vertex="1">
          <mxGeometry x="64.16040100250626" y="25.51867869674182" width="108.89050477908147" height="89.28543526174828" as="geometry" />
        </mxCell>
        <mxCell id="oSoFgmhYClItjlkkTBQM-5" value="" style="rounded=1;arcSize=10;dashed=1;fillColor=none;gradientColor=none;dashPattern=8 3 1 3;strokeWidth=2;" parent="oSoFgmhYClItjlkkTBQM-1" vertex="1">
          <mxGeometry width="256.00000000000006" height="257.38000000000005" as="geometry" />
        </mxCell>
        <mxCell id="oSoFgmhYClItjlkkTBQM-6" value="" style="outlineConnect=0;dashed=0;verticalLabelPosition=bottom;verticalAlign=top;align=center;html=1;shape=mxgraph.aws3.lambda_function;fillColor=#F58534;gradientColor=none;" parent="1" vertex="1">
          <mxGeometry x="1580" y="965" width="76.67" height="80" as="geometry" />
        </mxCell>
        <mxCell id="oSoFgmhYClItjlkkTBQM-16" style="edgeStyle=orthogonalEdgeStyle;rounded=0;orthogonalLoop=1;jettySize=auto;html=1;entryX=1;entryY=0.5;entryDx=0;entryDy=0;flowAnimation=1;" parent="1" source="oSoFgmhYClItjlkkTBQM-7" target="Q7StzuK0vUW07h8uO97d-54" edge="1">
          <mxGeometry relative="1" as="geometry" />
        </mxCell>
        <mxCell id="oSoFgmhYClItjlkkTBQM-7" value="" style="sketch=0;points=[[0,0,0],[0.25,0,0],[0.5,0,0],[0.75,0,0],[1,0,0],[0,1,0],[0.25,1,0],[0.5,1,0],[0.75,1,0],[1,1,0],[0,0.25,0],[0,0.5,0],[0,0.75,0],[1,0.25,0],[1,0.5,0],[1,0.75,0]];outlineConnect=0;fontColor=#232F3E;fillColor=#E7157B;strokeColor=#ffffff;dashed=0;verticalLabelPosition=bottom;verticalAlign=top;align=center;html=1;fontSize=12;fontStyle=0;aspect=fixed;shape=mxgraph.aws4.resourceIcon;resIcon=mxgraph.aws4.eventbridge;" parent="1" vertex="1">
          <mxGeometry x="1829" y="1196.69" width="76" height="76" as="geometry" />
        </mxCell>
        <mxCell id="oSoFgmhYClItjlkkTBQM-17" style="edgeStyle=orthogonalEdgeStyle;rounded=0;orthogonalLoop=1;jettySize=auto;html=1;entryX=1;entryY=0.5;entryDx=0;entryDy=0;flowAnimation=1;" parent="1" source="oSoFgmhYClItjlkkTBQM-8" target="oSoFgmhYClItjlkkTBQM-5" edge="1">
          <mxGeometry relative="1" as="geometry" />
        </mxCell>
        <mxCell id="oSoFgmhYClItjlkkTBQM-8" value="" style="sketch=0;points=[[0,0,0],[0.25,0,0],[0.5,0,0],[0.75,0,0],[1,0,0],[0,1,0],[0.25,1,0],[0.5,1,0],[0.75,1,0],[1,1,0],[0,0.25,0],[0,0.5,0],[0,0.75,0],[1,0.25,0],[1,0.5,0],[1,0.75,0]];outlineConnect=0;fontColor=#232F3E;fillColor=#E7157B;strokeColor=#ffffff;dashed=0;verticalLabelPosition=bottom;verticalAlign=top;align=center;html=1;fontSize=12;fontStyle=0;aspect=fixed;shape=mxgraph.aws4.resourceIcon;resIcon=mxgraph.aws4.eventbridge;" parent="1" vertex="1">
          <mxGeometry x="1829" y="1498.69" width="76" height="76" as="geometry" />
        </mxCell>
        <mxCell id="oSoFgmhYClItjlkkTBQM-9" value="" style="sketch=0;points=[[0,0,0],[0.25,0,0],[0.5,0,0],[0.75,0,0],[1,0,0],[0,1,0],[0.25,1,0],[0.5,1,0],[0.75,1,0],[1,1,0],[0,0.25,0],[0,0.5,0],[0,0.75,0],[1,0.25,0],[1,0.5,0],[1,0.75,0]];outlineConnect=0;fontColor=#232F3E;fillColor=#E7157B;strokeColor=#ffffff;dashed=0;verticalLabelPosition=bottom;verticalAlign=top;align=center;html=1;fontSize=12;fontStyle=0;aspect=fixed;shape=mxgraph.aws4.resourceIcon;resIcon=mxgraph.aws4.eventbridge;" parent="1" vertex="1">
          <mxGeometry x="1829" y="965" width="76" height="76" as="geometry" />
        </mxCell>
        <mxCell id="oSoFgmhYClItjlkkTBQM-10" value="" style="outlineConnect=0;dashed=0;verticalLabelPosition=bottom;verticalAlign=top;align=center;html=1;shape=mxgraph.aws3.rds;fillColor=#2E73B8;gradientColor=none;" parent="1" vertex="1">
          <mxGeometry x="1081" y="919" width="84.44" height="95" as="geometry" />
        </mxCell>
        <mxCell id="oSoFgmhYClItjlkkTBQM-11" value="" style="outlineConnect=0;dashed=0;verticalLabelPosition=bottom;verticalAlign=top;align=center;html=1;shape=mxgraph.aws3.ec2;fillColor=#F58534;gradientColor=none;" parent="1" vertex="1">
          <mxGeometry x="1185" y="754.5" width="75" height="95" as="geometry" />
        </mxCell>
        <mxCell id="oSoFgmhYClItjlkkTBQM-13" value="" style="outlineConnect=0;dashed=0;verticalLabelPosition=bottom;verticalAlign=top;align=center;html=1;shape=mxgraph.aws3.lambda_function;fillColor=#F58534;gradientColor=none;" parent="1" vertex="1">
          <mxGeometry x="531" y="762" width="76.67" height="80" as="geometry" />
        </mxCell>
        <mxCell id="oSoFgmhYClItjlkkTBQM-15" style="edgeStyle=orthogonalEdgeStyle;rounded=0;orthogonalLoop=1;jettySize=auto;html=1;entryX=1;entryY=0.5;entryDx=0;entryDy=0;entryPerimeter=0;flowAnimation=1;" parent="1" source="oSoFgmhYClItjlkkTBQM-9" target="oSoFgmhYClItjlkkTBQM-6" edge="1">
          <mxGeometry relative="1" as="geometry" />
        </mxCell>
        <mxCell id="oSoFgmhYClItjlkkTBQM-28" style="edgeStyle=orthogonalEdgeStyle;rounded=0;orthogonalLoop=1;jettySize=auto;html=1;entryX=0.5;entryY=1;entryDx=0;entryDy=0;flowAnimation=1;" parent="1" source="oSoFgmhYClItjlkkTBQM-27" target="oSoFgmhYClItjlkkTBQM-5" edge="1">
          <mxGeometry relative="1" as="geometry" />
        </mxCell>
        <mxCell id="oSoFgmhYClItjlkkTBQM-27" value="" style="dashed=0;outlineConnect=0;html=1;align=center;labelPosition=center;verticalLabelPosition=bottom;verticalAlign=top;shape=mxgraph.weblogos.reddit;fillColor=#F3F8FC;gradientColor=#B4D2F0" parent="1" vertex="1">
          <mxGeometry x="2251" y="1791" width="88" height="73.6" as="geometry" />
        </mxCell>
        <mxCell id="oSoFgmhYClItjlkkTBQM-30" value="" style="shape=image;aspect=fixed;image=data:image/png,iVBORw0KGgoAAAANSUhEUgAAAMwAAABjCAYAAADXaO/JAAAMQWlDQ1BJQ0MgUHJvZmlsZQAASImVVwdYU8kWnluSkEBoAQSkhN4EESkBpITQAkgvgqiEJEAoMQaCih1ZVHAtqIiADV0VUeyAWFDEzqLY+2JBQVkXC3blTQrouq9873zf3Pvff87858y5c8sAoHaCIxJlo+oA5AjzxNFBfvQJiUl0Ug9AABloAFfgzuHmipiRkWEA2tD57/buBvSGdtVeqvXP/v9qGjx+LhcAJBLiVF4uNwfigwDg1VyROA8AopQ3m54nkmLYgJYYJgjxYilOl+NqKU6V470yn9hoFsRtACipcDjidABUL0Oens9Nhxqq/RA7CnkCIQBqdIi9c3Km8iBOgdga+oggluozUn/QSf+bZuqwJoeTPozlc5GZkr8gV5TNmfl/luN/W062ZCiGJWwqGeLgaOmcYd1uZU0NlWIViPuEqeEREGtC/EHAk/lDjFIyJMFxcn/UgJvLgjUDOhA78jj+oRAbQBwozA4PU/CpaYJANsRwhaAzBHnsWIh1IV7Mzw2IUfhsEk+NVsRCG9LELKaCP8cRy+JKYz2QZMUxFfqvM/hshT6mWpARmwAxBWLzfEF8OMSqEDvkZsWEKnzGFWSwwod8xJJoaf7mEEfzhUF+cn0sP00cGK3wL8nJHZovtilDwA5X4P15GbHB8vpgbVyOLH84F+wyX8iMG9Lh504IG5oLj+8fIJ871sMXxsUodD6I8vyi5WNxiig7UuGPm/Kzg6S8KcTOufkxirF4fB5ckHJ9PE2UFxkrzxMvyOSERMrzwVeAMMAC/oAOJLClgqkgEwg6+hr74JW8JxBwgBikAz6wVzBDIxJkPUJ4jAEF4E+I+CB3eJyfrJcP8iH/dZiVH+1Bmqw3XzYiCzyFOAeEgmx4LZGNEg5HiwdPICP4R3QObFyYbzZs0v5/zw+x3xkmZMIUjGQoIl1tyJMYQPQnBhMDiTa4Pu6Ne+Jh8OgLmxPOwN2H5vHdn/CU0El4RLhO6CLcniIoFP+U5XjQBfUDFbVI/bEWuCXUdMH9cC+oDpVxHVwf2OPOMA4T94GRXSDLUuQtrQr9J+2/zeCHu6HwIzuSUfIIsi/Z+ueRqraqLsMq0lr/WB95rqnD9WYN9/wcn/VD9XnwHPqzJ7YYO4CdxU5i57GjWCOgYy1YE9aOHZPi4dX1RLa6hqJFy/LJgjqCf8QburPSSuY61jn2On6R9+XxZ0jf0YA1VTRTLEjPyKMz4ReBT2cLuQ6j6E6OTs4ASL8v8tfXmyjZdwPRaf/OLfwDAK+WwcHBI9+5kBYA9rnBx//wd86aAT8dygCcO8yViPPlHC49EOBbQg0+aXrACJgBazgfJ/gV8wS+IACEgAgQCxLBZJh9BlznYjAdzAYLQDEoBSvAGlAJNoItYAfYDfaDRnAUnARnwEVwGVwHd+Hq6QYvQD94Bz4jCEJCqAgN0UOMEQvEDnFCGIg3EoCEIdFIIpKCpCNCRILMRhYipUgZUolsRmqRfchh5CRyHulEbiMPkV7kNfIJxVAVVAs1RC3R0SgDZaKhaCw6CU1Hp6EFaBG6DK1Aa9BdaAN6Er2IXke70BfoAAYwZUwHM8HsMQbGwiKwJCwNE2NzsRKsHKvB6rFmeJ+vYl1YH/YRJ+I0nI7bwxUcjMfhXHwaPhdfilfiO/AGvA2/ij/E+/FvBCrBgGBH8CCwCRMI6YTphGJCOWEb4RDhNHyWugnviESiDtGK6AafxURiJnEWcSlxPXEP8QSxk/iYOEAikfRIdiQvUgSJQ8ojFZPWkXaRWkhXSN2kD0rKSsZKTkqBSklKQqVCpXKlnUrHla4oPVP6TFYnW5A9yBFkHnkmeTl5K7mZfIncTf5M0aBYUbwosZRMygJKBaWecppyj/JGWVnZVNldOUpZoDxfuUJ5r/I55YfKH1U0VWxVWCrJKhKVZSrbVU6o3FZ5Q6VSLam+1CRqHnUZtZZ6ivqA+kGVpuqgylblqc5TrVJtUL2i+lKNrGahxlSbrFagVq52QO2SWp86Wd1SnaXOUZ+rXqV+WP2m+oAGTWOMRoRGjsZSjZ0a5zV6NEmalpoBmjzNIs0tmqc0H9MwmhmNRePSFtK20k7TurWIWlZabK1MrVKt3VodWv3amtrO2vHaM7SrtI9pd+lgOpY6bJ1sneU6+3Vu6HwaYTiCOYI/YsmI+hFXRrzXHanrq8vXLdHdo3td95MeXS9AL0tvpV6j3n19XN9WP0p/uv4G/dP6fSO1RnqO5I4sGbl/5B0D1MDWINpglsEWg3aDAUMjwyBDkeE6w1OGfUY6Rr5GmUarjY4b9RrTjL2NBcarjVuMn9O16Ux6Nr2C3kbvNzEwCTaRmGw26TD5bGplGmdaaLrH9L4ZxYxhlma22qzVrN/c2Hy8+WzzOvM7FmQLhkWGxVqLsxbvLa0sEywXWTZa9ljpWrGtCqzqrO5ZU619rKdZ11hfsyHaMGyybNbbXLZFbV1sM2yrbC/ZoXaudgK79Xadowij3EcJR9WMummvYs+0z7evs3/ooOMQ5lDo0OjwcrT56KTRK0efHf3N0cUx23Gr490xmmNCxhSOaR7z2snWietU5XRtLHVs4Nh5Y5vGvnK2c+Y7b3C+5UJzGe+yyKXV5aurm6vYtd61183cLcWt2u0mQ4sRyVjKOOdOcPdzn+d+1P2jh6tHnsd+j7887T2zPHd69oyzGscft3XcYy9TL47XZq8ub7p3ivcm7y4fEx+OT43PI18zX57vNt9nTBtmJnMX86Wfo5/Y75Dfe5YHaw7rhD/mH+Rf4t8RoBkQF1AZ8CDQNDA9sC6wP8glaFbQiWBCcGjwyuCbbEM2l13L7g9xC5kT0haqEhoTWhn6KMw2TBzWPB4dHzJ+1fh74RbhwvDGCBDBjlgVcT/SKnJa5JEoYlRkVFXU0+gx0bOjz8bQYqbE7Ix5F+sXuzz2bpx1nCSuNV4tPjm+Nv59gn9CWULXhNET5ky4mKifKEhsSiIlxSdtSxqYGDBxzcTuZJfk4uQbk6wmzZh0frL+5OzJx6aoTeFMOZBCSElI2ZnyhRPBqeEMpLJTq1P7uSzuWu4Lni9vNa+X78Uv4z9L80orS+tJ90pfld6b4ZNRntEnYAkqBa8ygzM3Zr7PisjanjWYnZC9J0cpJyXnsFBTmCVsm2o0dcbUTpGdqFjUNc1j2ppp/eJQ8bZcJHdSblOeFvyRb5dYS36RPMz3zq/K/zA9fvqBGRozhDPaZ9rOXDLzWUFgwW+z8FncWa2zTWYvmP1wDnPO5rnI3NS5rfPM5hXN654fNH/HAsqCrAW/FzoWlhW+XZiwsLnIsGh+0eNfgn6pK1YtFhffXOS5aONifLFgcceSsUvWLflWwiu5UOpYWl76ZSl36YVfx/xa8evgsrRlHctdl29YQVwhXHFjpc/KHWUaZQVlj1eNX9Wwmr66ZPXbNVPWnC93Lt+4lrJWsrarIqyiaZ35uhXrvlRmVF6v8qvaU21QvaT6/Xre+isbfDfUbzTcWLrx0ybBplubgzY31FjWlG8hbsnf8nRr/NazvzF+q92mv61029ftwu1dO6J3tNW61dbuNNi5vA6tk9T17kredXm3/+6mevv6zXt09pTuBXsle5/vS9l3Y3/o/tYDjAP1By0OVh+iHSppQBpmNvQ3ZjR2NSU2dR4OOdza7Nl86IjDke1HTY5WHdM+tvw45XjR8cGWgpaBE6ITfSfTTz5undJ699SEU9faoto6ToeePncm8Myps8yzLee8zh0973H+8AXGhcaLrhcb2l3aD/3u8vuhDteOhktul5ouu19u7hzXefyKz5WTV/2vnrnGvnbxevj1zhtxN27dTL7ZdYt3q+d29u1Xd/LvfL47/x7hXsl99fvlDwwe1Pxh88eeLteuYw/9H7Y/inl09zH38YsnuU++dBc9pT4tf2b8rLbHqedob2Dv5ecTn3e/EL343Ff8p8af1S+tXx78y/ev9v4J/d2vxK8GXy99o/dm+1vnt60DkQMP3uW8+/y+5IPehx0fGR/Pfkr49Ozz9C+kLxVfbb42fwv9dm8wZ3BQxBFzZL8CGGxoWhoAr7cDQE0EgAb3Z5SJ8v2fzBD5nlWGwH/C8j2izFwBqIf/71F98O/mJgB7t8LtF9RXSwYgkgpArDtAx44dbkN7Ndm+UmpEuA/YFPA1NScV/BuT7zl/yPvnM5CqOoOfz/8C9TF8i6wzf6YAAACWZVhJZk1NACoAAAAIAAUBEgADAAAAAQABAAABGgAFAAAAAQAAAEoBGwAFAAAAAQAAAFIBKAADAAAAAQACAACHaQAEAAAAAQAAAFoAAAAAAAAAkAAAAAEAAACQAAAAAQADkoYABwAAABIAAACEoAIABAAAAAEAAADMoAMABAAAAAEAAABjAAAAAEFTQ0lJAAAAU2NyZWVuc2hvdK6V4TYAAAAJcEhZcwAAFiUAABYlAUlSJPAAAALdaVRYdFhNTDpjb20uYWRvYmUueG1wAAAAAAA8eDp4bXBtZXRhIHhtbG5zOng9ImFkb2JlOm5zOm1ldGEvIiB4OnhtcHRrPSJYTVAgQ29yZSA2LjAuMCI+CiAgIDxyZGY6UkRGIHhtbG5zOnJkZj0iaHR0cDovL3d3dy53My5vcmcvMTk5OS8wMi8yMi1yZGYtc3ludGF4LW5zIyI+CiAgICAgIDxyZGY6RGVzY3JpcHRpb24gcmRmOmFib3V0PSIiCiAgICAgICAgICAgIHhtbG5zOmV4aWY9Imh0dHA6Ly9ucy5hZG9iZS5jb20vZXhpZi8xLjAvIgogICAgICAgICAgICB4bWxuczp0aWZmPSJodHRwOi8vbnMuYWRvYmUuY29tL3RpZmYvMS4wLyI+CiAgICAgICAgIDxleGlmOlVzZXJDb21tZW50PlNjcmVlbnNob3Q8L2V4aWY6VXNlckNvbW1lbnQ+CiAgICAgICAgIDxleGlmOlBpeGVsWERpbWVuc2lvbj4yODgwPC9leGlmOlBpeGVsWERpbWVuc2lvbj4KICAgICAgICAgPGV4aWY6UGl4ZWxZRGltZW5zaW9uPjE4MDA8L2V4aWY6UGl4ZWxZRGltZW5zaW9uPgogICAgICAgICA8dGlmZjpSZXNvbHV0aW9uVW5pdD4yPC90aWZmOlJlc29sdXRpb25Vbml0PgogICAgICAgICA8dGlmZjpYUmVzb2x1dGlvbj4xNDQvMTwvdGlmZjpYUmVzb2x1dGlvbj4KICAgICAgICAgPHRpZmY6WVJlc29sdXRpb24+MTQ0LzE8L3RpZmY6WVJlc29sdXRpb24+CiAgICAgICAgIDx0aWZmOk9yaWVudGF0aW9uPjE8L3RpZmY6T3JpZW50YXRpb24+CiAgICAgIDwvcmRmOkRlc2NyaXB0aW9uPgogICA8L3JkZjpSREY+CjwveDp4bXBtZXRhPgqLxgFpAAAXAElEQVR4Ae1dB5gURRZ+gOTgLnHJOeesAhKUKAgiqCfyEVRMKCem8zxPPe/MnCfGEz31VBQVFcOx5CwSXdKSwy55yQvsLtF7f/kNzsxWVXfP9OzK+p7fOkxXdVX163pVL/yvJt/PTCQkHBAOuOJAfle1pJJwQDigOCACIxNBOOCBAyIwHpglVYUDIjAyB4QDHjggAuOBWVJVOCACI3NAOOCBAyIwHpglVYUDIjAyB4QDHjggAuOBWVJVOCACI3NAOOCBAyIwHpglVYUDIjAyB4QDHjggAuOBWVJVOCACI3NAOOCBAyIwHpglVYUDIjAyB4QDHjggAuOBWVJVOCACI3NAOOCBAyIwHpglVYUDIjAyB4QDHjggAuOBWVJVOCACI3NAOOCBAyIwHpglVYUDIjAyB4QDHjhwiYe6UvV3xoGMU2fo8MksOnwik86d/5lKFS1MlxYrTKVLFKH8+fL9zrjxy+OKwPwuX3v2hz7PB6Am7zpEizbtoh827abUg+mUdeZs9op8pXjhgtSwcllqUrUsdWpQlRpVLqOtlxcv5pOjYvPia3X/TJmnz9LHi9bRl0s30RHeTSKhmuUupb6t6tDAdvWoSMG8vQaLwEQyQ/LAPVCxvlu5hSbMWUWHjmf68kTlSxWjO69uSb2a16R8eVRlE4HxZapcXI2cyDpNj3wyj1Zu3xeTgXeoX4WeGtRRqW4x6SAXGxWByUXm50bXaekZNPbD2bR1/5GYdl+zXByNG9qVKsaViGk/Od24CExOczwX+9t/7CTd8c40wmdOUO0K8TTh9l5UtFDesWtEYHJi5vwG+oAX7J73ZlDSjv2uRoPJ3rlhVd4hilP5S4tTgfz56HjmadqadpSWbd1Lq1LSXLVzdZMa9PQNnVzVvRgqicBcDG/JhzG+N3cNvT07ybGlZtXK0/192lCDSnZX8RZW6cZ9t4ySUpwFcMLtvZUL2rHzi6CCRPovgpcU7RA37T1M785d7djMyC7N6I2RPRyFBQ3V4R3otRHdaUDbeo7tfvJDsmOdi6WCCMzF8qaiGOeHC9dxpP68tYUhHRrR7d2aK9XLWjGoEGraw33bUbfG1YOuZv/nvPU76fTZc9kLLsIruWKNgXm7Dh9XOnHG6TNUqEABKl6kIFWOL0klixaKmo3Q1zfvO0LpGaeoZvk4KluyqGObe4+eYAhIFp09d57KcP1yHFMofEkBx/uirXCMx3jweAZlnj5Hp86epYIF8qvgX9FCBdl2iH4M+46epDnrUq3DbFurIt3do5W1jqkQ8ZZH+1/OKIGDtM/gTICw7jlygmpwgFNH4D3GWTG+BCWwvRQtwW2+/cAx9f7qJMT7CuPJEYHBz86uYl13TnIqLdu2T8EuTCte2ZLFqHWtCtSRffmdG1ZTE8gLAw/AbfrRbNrCAgPKz6vgiM7N6LauzbI1s373IZq8dCMt3LiLMHHDCS+4e9Ma/FeTqpYpGV7s+Tt+fRdG95Ite+kn/tzGBjReromA10pgt2zdhDjFiyvZCAcsxQt9tmSDdXdBH/f2ah3VpCrBi92Y3m3o0U/nGYeGBTJcYNIzT9FTkxcpKE7gxt4tatGfWQAv4YUjEpqatI1e+HbJBVgPFsx/Du3miyBiPDE3+hfwZJwwaxWv+Ic9Pz9W+qEdm9Dgy+q7fqF4aXNZMMPp5aFX0WV1K6nL8PaM+34pTVu9Pbya9juEbnD7BnTHVS0icpFix/t6+Wb69If1tPNQurYPNxfhnoXadMNlDV2rTv1enKx2MFP7fnqx4IUzBUPHD7ua2tauGDKMhz6eoxarkIv8ZVjnpnQn89orYae6afw32dS/Lo2q0bM3dfbanLZ+ZGKsbSr0ItSuZ6YspoeZKZEIC1oDZONfU5fRne9O1+4AoT2SYhR2Cx39L2mruoyVbuTbU10LC246zzCSSYvX0y2vf8sT/riueeO1vaxqjJqQSC/yqheNsKAD4L7GJ65QOyhURyfCs0Lds1EvXtH9ojG8UxXIn31KQb1tXr18SDfY0RcxyFNHk3hhOZF1RldkvfbNii3ZhAU3rGCtxi/K/nQ+tAwV7LFJ8+lbfgA/aE1qGo1+f4aaMLb2DrKAmSZSKk90rED3/Gc67YpwlYcePppX0d2HT9iGcaEM6uG9PO51rN/7SUu37FFqh1ObSQ6xkhJFClG7sFXfqU1beb2Kpemhfu2oYJDtV6ZEUXrmxs5UKOga2jjBqQMM/NU2B5T0/A07tWW2izrNAvX9xLXFxIaBG9G00uMBsNpcUbeyMvLAyDQ2FlF/KQfETASbBK7R0Rbj9Ixl1cWK9sBHcwjQkGgoLf0kr/Cz6L9393V0CrzMu+NuXuWdCKsyHBNA+mJnPsT5J05epW8ZODn4sgZs38Qbm4fdaKOmVct5thFt7aGsf+u6dCVD/jfuOUwFCuSjZlXLU+GC2Z0nldg2Q0AU715Hs9emUB8Pu18qL4I72NDXUYsaobubro7ba74LDFCwn/CWqiNMDER9u7JOGU54+Qt4VXmSjUAkLukIBvod3VrwCuZ9Y9zHu0s4VS1TShn1MEZhuB5Iz6QVDEiEV+nMObMbFLki77HwAplropSDx9iWMq+ScMn2aVmb+raso/JJgo1c7JKreFd9m22/1fxpIsDyn7y+o6mYJ5DdXqpdIc54bzQF8cWLXLAXTe2wr4Gu5ZSAdxgtraOlW/fQcXaIlORd0A3NXLPDWK0LO4/8Iu8zz6FnvGCT3ty3VW2tsASaRDLSuCFdeUXSy3EW6/DJe6JXb6Ay3N+nLU26r78youEJu5x3vGtb11Eo24n39uOVu3RgWNrPjxclK9e4tpAvIhnLpHLAdf76iB7KG9SsWrlsHiEIT+uaCVynezbdP7g/eNtsBC+UjWrFSGBsfQaX9W9TV2vzoA60hfkcv3FLiav0DhxoMB0bVHHbjGM93wUGdoSJkGjkRC1qVKCnB3fKNolwH3aoaNGv0GefGHgFe5oasG6rH02V0iVVFBufJsIuAM+XiWDv6AhuXHhswo1gXV0IDjxzJjrKCV8w7E2UnmF2WeOe+GJFTLfmyHWooZ0sk3kWq2VuaO3Og0aHCtRDt7uUm758Fxib7p3McQ83BCa+xDsNYjIBKsjBzQc5qowkpWgIevFVDAh0olK8C/zluius1b7/aataCXWVKsbrA3CD2tdXu4fuHt215oztMu24qL89Ta+3w54+nmXfYbzGdHTji/baAN5lTLRs215y2iVxb+KqbaYmOBO0trEskgLfBaYWB4pMNIP1zCkrzKty8H3t61Siz8b0pxdu7kpPsJ4+eewAsjE3+F7Tv7G73MZxDLeEXaANR8FNhBV+zc4D2mIEO1vybhlM8Bh56R/3IgZUgSP+JjIFPuFpgj1po98C7B5eusqGnRy7OGA1NoLqNnPtDm0VOBXCYz/aih4u6o0FDw2EV4UhiReBmEE4Qad/bsqPlJi0XeV/X86BRLg2TYR2bFu26T7TdazWXqEXPZrVoOW80ploLQtMqzDBQF1AXMYPv5qgVkBlKMbPgrx3L+oBYj5ABiDQaiK4Z3UEp4ITnbY4Npzu9ascixg8a2/MWKltEvzrx3wz0eLNu40xOmgTfp9u47vAwMjCA3724wbTMypIOGDhsEngFsXpI02qlCO4/yr4gCUydQzIjVcCzspGEAYTXcLP17NZTfVnqhO4DjTA1v1HFW+Qa4IYiptc+1OGk13wHqDG2rx9ukUtMJ6c/ITaNIFTD3RhgeUcdERIAMc76SiRoTA6giBew15Iv8l3gcEAh3ZqzNtkijrPyjZg4Mk27Dmk/r5YslFVBWwcXg0kL9XnnAznddLWQ2hZ7fLxoRdcfEvgBCrsgibVJ9LsRdh6sOkgHPiDamfqwzZMm9IVz+eHmeIcaDOS/mxjibQMbmjgBnWqFebI3PWpahcKbx8770IDWgDqtM1pE96W2+8xERgY68//oQvnjs9SvnS3g0E9JCbh7/15a5Ru25dXCdgucczUaAkH0EVCwLSZJle6RV0K7gs7SNKONFq8ZTcLyAG1SJxhoYklVWL0r01gvMJ83Iz1FD8T3t2CDbtU9Z6s0t7coTFrE/alb0DbulqBQSNQy6C2hdOsdSlk4iHmTSwoJgKDgULN+uDua+jvXy02AvKcHghR8n/PSqIPF6yjIR0b0bArmzoy3tZmMY9I30BbxRhqbyInLw4EBRinDxesVRB3UzuxuA570paSbIqMRzoW2KgPT5xLgO4E6I0ZR1Sqxd84VGCjVhx3qla2lEKyh9dbuX2/OjMNO1EwAZmsI7wvpxwd3X1urvnuJQvuFDETBN/wB8Qo9OpICDkzE2avojEfzKRTZyJflU2rkdOYbHYAjHsTQfcG9uz5b370JCzQv4HLGtKxMb06vDtVL+scv9KNoUmVsrrLF665dfNfuMHhHwgeBgtLoDq8o0BQ2Aj7z4A29bRVlFqWnBpSBjyfyUPZrUn1iFDlIR0YvsRshwnuD6sH/gB1WLx5D+c/MG6Mo9ReT1oE05Hr8DgHHiMh9B8JmdQxtGXyemWwlxBwdzfHGSFAWY+RBdC7W+CPnR84xzhagkscwmdCHGznfByoZX7k+mCsNkfPCt4lgF6wEbxab838SYujg/p1XVA6dOLqbcbnipU6hrHniMAEmITJ1YNhKPjDS9y094haeeARWsnu05MuJvRUDlIN79yEX3KpQLOuP6GCIL7jhRDPSDtmBmyaJvar01ZYhaUKJ6RhRYWru27FeCuQ04Stc3oORNIb8y4D17eJZq3bQcNZ1Y2WsNrDgWMiuNWdCJ4wqFK6QCQS7pARG7BDTVAYzAs3KAqnsZjKzfqE6Q6frmPlq1+pNBuEjTg42YWmPjKYXuTovtPDQtCQuRkJRaKCAHULO8RE1ctlF1x4zmypDXA1Txx9LSGPHraeLRUafR9zwISZxobrvZvXshWrpLaThliO9cawQqjMNoIDwg2ZgtPISQq8dywAphSNWO4uGH9MBAaZjMPe/J6ufWkyPcgJZCmM7nUi2AJIS35zZE8awaeX2GivAadluwdliziFwAbd0d3vlJeB+FE4IVXBlIINu+4xhtzYbJ/g9oCMto3ZpG4F2ujJ5xzbIDCws4C8joaw6+OsMhu51QiwYJrQIrN5NwShPx0BFYEU51iS7wIznYXlyS8Wsrp1mOHyGWqSwlh3q1bwxkOjGL5iQwtnRWj4YyWFx8otoT7wYjZqymjjcNrCAUgTXVGvsmthQRtOE9EpMxHCAvyajYC8NnmcbPehDMlxL3yzxFqtOoNubXk74Tebdhm45XFYBmJ8Ompfu5I6vERX5tc13wVGh+CFivLB/LWextyqpjkq7+YUGFNn785Z7TqJDHWxApsIeTS6iYDTakxk2nl09aGOTXEQcDdpz4iD2CBI6Bvp5BNZcGzqZ/gYgfO67/2ZFw6cCC8PfNfFUAJluk+kTet+NgNjwzhN/PUbaKkbm+8CE5wIFdzhRM7CXJNqNj6D6+LfNr0aJ6lESkczsugBPowbu5+Nvlq2iRPhkm1VCPkcOjLBOFAX6prph4rC28KhGU5eNjhOnAjIa92pOcH3AegIR8WdfPYyAoWmMcKaW83v8U+fzFV/cPnbCPn8/TwihuEcuopdwzoy7bjgOfKpYk3OrguPI4CuqnsovBDYMy8M6aI8Q7Zmoc7pYBK4B84C2DrREJAEt7z+HR+/1JSg4wcHxODpwUqL2IGNgDy4poU+mowAnImQL/QsA1D/OrCDMQgLHwNctK9PX2lq5sL1PUeOE1DTTkgI5P8s3LjbCiRFo/B24Q/AV6jF2M3hmYIddYi9VDh/zG04AO/qcbbXnHa3Cw8T9A+4kJ3U4aDq1IMdKW7twuD7vP7bd4EBuvdLTiXWEaLiOIQC0Hd4ihqwlyzwovFCcE4XVrfPGVdmAhW2rZVghbvr+tVdw1heSVxO43lVjePVCVmQBzlF2WnFDLQ1plcb46GDnXmle2Xq8kDVbJ+w83Zx/GNkl6bUhuHt8JLh+XFIB6LaXy3b7OmknbU8iZ0WEUzeJ67vQKPeSSQ3ThMAM23p0dkeSnNhOC9IkcLr4Q6HwLo9cSjW3rHA4/kuMIgrwLDF7yTqCDka8LMHfO1ALBfiHH0Y8k4enyK86j3ASWSREFZ9bNvhaiH6xIrpdtVE3zhQD7+yZSKc4Ii0Z9sulbz7oNpxMZELsYcQGCwTwXC3qahwlzsJDNrGbgHkwF3vTnNUSU1jcXt9FJ+9MIIXhGjoOsaXIVDtREBF4C8nyHcbBoMGbqi+yweAEYzVzElYAKvB9l4tgoAlxgSoPVKDo0WwtmNPDFKonQg7EBKYnAjPbRMWQNQnj73OCo9JMZyWouu7MgszfrMFJ8bEgoDXw9Gx0QoLxgYtBEfmOlEsYPymPmMiMFgR37qtpzotEitotISMPODRogXUIeMRp9MjbSASwikvCLK6wcQB4fwaJ5CZsgmd+sc50wjkIk36UobJPDmoQ8h5X8H325wMwfUC/0bO0Ru39qBb+fhcNxMycJ/TJ36qb+LofuowEae6bsohfFDxbYScHwhWTlHMj4pF0PJzNmBhxNtctOEPDEFryD9nDZdkn5a11A4RXif8O/q6afyU8MvqO4JhH/PLBCFRCehhHAdlw4mpyvw//LgQTnWMRB/H7okfXp3CB2a4iUXh8GzETfpwhD74QDyMBfbdExzjCnZNw6B+Z1Qv6w4UeA7dJ1TRj/h0fwSb3SSshbcBryiOzRrER+niBBy/CUiL4W99b2wWi+g/brzSWO53QcwFJjBgqB5wgSLQhUPXcE5YxqmzlMlYLXg3sNLB/QkgINC5ACBiR/BCbgUm0CbsAkTy4dXbxsHGoxw/wWQsw/k85XiHwOTF2cN+nN+FvoA0wHljQNrC6YD02eI84StxkhoM3Nbs0Khu8bBh3OAffr4CbnGovYDXRLqLBfiAT8Q4kMi2hKH5m/cdVYe5H+BjZsNVZeyuSKoDSBRnFkBFDeC7gtvz69/IQsURvSYad0s3ZTObyv2+nmMC4/fAde15FRhdG3LtVw5AiLArQtjhrIE3MdKcol9b9fav5zg1AruzjhDj+XrsQHVQiK48Ftd895LFYpDSZu5wADsgVL5I4ih+jBiCOn31DmNTwI0BP5aTFBOjPycfQPrKuxwA2iLTgCSAjWs7TSZWXBGBiRVnpd2oOAAbDanpJkIAO9oQgalt23URGBt3pCxXOIBjdvErcrbzEm68vGGujE1smFxhu3SKHeQ1xsohkzIf/4cEM3jfgLXDmXXAHpoICHEcHp8blKcExnaUjwlFnRtMlz5J/R4mXOQBwu/uUErgm/3zPkZRsAmTK5SnVDJbZqHXaHiuvI3fSadIHQgWFi+PPbBdPT7v2n6Yhpf2vNbNUwITxz/fYBIMIKOFfhscQHJYJK5qAEz/2Lttrj5EnhIYbNO9NIc+IDqdGy7IXH2zv/HOkYvklnAwH349+nnG8eVEzottXHkq0o8HBfL3zRk/qZ8exzlkgNnc1b0FOR0qbmOSlMWGA4Dh4CyBjZwwCGP/l8PRf1a7D46vqpMQx7+MkKBSJUyaQ2xGZm41zwmM+VGlRDgQPQfylEoWPTukBeGAnQMiMHb+SKlwIIQDIjAh7JAvwgE7B0Rg7PyRUuFACAdEYELYIV+EA3YOiMDY+SOlwoEQDojAhLBDvggH7BwQgbHzR0qFAyEcEIEJYYd8EQ7YOSACY+ePlAoHQjggAhPCDvkiHLBzQATGzh8pFQ6EcEAEJoQd8kU4YOeACIydP1IqHAjhgAhMCDvki3DAzgERGDt/pFQ4EMIBEZgQdsgX4YCdAyIwdv5IqXAghAMiMCHskC/CATsHRGDs/JFS4UAIB/4P1pKaRb9mlcoAAAAASUVORK5CYII=;" parent="1" vertex="1">
          <mxGeometry x="1774" y="1086" width="136" height="66" as="geometry" />
        </mxCell>
        <mxCell id="oSoFgmhYClItjlkkTBQM-14" value="" style="sketch=0;outlineConnect=0;fontColor=#232F3E;gradientColor=none;fillColor=#8C4FFF;strokeColor=none;dashed=0;verticalLabelPosition=bottom;verticalAlign=top;align=center;html=1;fontSize=12;fontStyle=0;aspect=fixed;pointerEvents=1;shape=mxgraph.aws4.internet_gateway;" parent="1" vertex="1">
          <mxGeometry x="815" y="1255" width="78" height="78" as="geometry" />
        </mxCell>
        <mxCell id="oSoFgmhYClItjlkkTBQM-36" value="" style="verticalLabelPosition=bottom;verticalAlign=top;html=1;shape=mxgraph.basic.moon" parent="1" vertex="1">
          <mxGeometry x="478" y="752" width="75" height="100" as="geometry" />
        </mxCell>
        <mxCell id="oSoFgmhYClItjlkkTBQM-142" style="edgeStyle=orthogonalEdgeStyle;rounded=0;orthogonalLoop=1;jettySize=auto;html=1;entryX=0.75;entryY=0;entryDx=0;entryDy=0;flowAnimation=1;" parent="1" source="oSoFgmhYClItjlkkTBQM-37" target="Q7StzuK0vUW07h8uO97d-114" edge="1">
          <mxGeometry relative="1" as="geometry" />
        </mxCell>
        <mxCell id="oSoFgmhYClItjlkkTBQM-37" value="" style="sketch=0;points=[[0,0,0],[0.25,0,0],[0.5,0,0],[0.75,0,0],[1,0,0],[0,1,0],[0.25,1,0],[0.5,1,0],[0.75,1,0],[1,1,0],[0,0.25,0],[0,0.5,0],[0,0.75,0],[1,0.25,0],[1,0.5,0],[1,0.75,0]];outlineConnect=0;fontColor=#232F3E;fillColor=#8C4FFF;strokeColor=#ffffff;dashed=0;verticalLabelPosition=bottom;verticalAlign=top;align=center;html=1;fontSize=12;fontStyle=0;aspect=fixed;shape=mxgraph.aws4.resourceIcon;resIcon=mxgraph.aws4.api_gateway;" parent="1" vertex="1">
          <mxGeometry x="626.6700000000001" y="1713" width="78" height="78" as="geometry" />
        </mxCell>
        <mxCell id="oSoFgmhYClItjlkkTBQM-144" style="edgeStyle=orthogonalEdgeStyle;rounded=0;orthogonalLoop=1;jettySize=auto;html=1;flowAnimation=1;" parent="1" source="oSoFgmhYClItjlkkTBQM-43" target="Q7StzuK0vUW07h8uO97d-114" edge="1">
          <mxGeometry relative="1" as="geometry" />
        </mxCell>
        <mxCell id="oSoFgmhYClItjlkkTBQM-43" value="" style="sketch=0;points=[[0,0,0],[0.25,0,0],[0.5,0,0],[0.75,0,0],[1,0,0],[0,1,0],[0.25,1,0],[0.5,1,0],[0.75,1,0],[1,1,0],[0,0.25,0],[0,0.5,0],[0,0.75,0],[1,0.25,0],[1,0.5,0],[1,0.75,0]];outlineConnect=0;fontColor=#232F3E;fillColor=#8C4FFF;strokeColor=#ffffff;dashed=0;verticalLabelPosition=bottom;verticalAlign=top;align=center;html=1;fontSize=12;fontStyle=0;aspect=fixed;shape=mxgraph.aws4.resourceIcon;resIcon=mxgraph.aws4.api_gateway;" parent="1" vertex="1">
          <mxGeometry x="374" y="1705" width="78" height="78" as="geometry" />
        </mxCell>
        <mxCell id="oSoFgmhYClItjlkkTBQM-44" value="" style="outlineConnect=0;dashed=0;verticalLabelPosition=bottom;verticalAlign=top;align=center;html=1;shape=mxgraph.aws3.lambda_function;fillColor=#F58534;gradientColor=none;" parent="1" vertex="1">
          <mxGeometry x="628.0000000000001" y="1467" width="76.67" height="80" as="geometry" />
        </mxCell>
        <mxCell id="oSoFgmhYClItjlkkTBQM-143" style="edgeStyle=orthogonalEdgeStyle;rounded=0;orthogonalLoop=1;jettySize=auto;html=1;entryX=1;entryY=0.25;entryDx=0;entryDy=0;flowAnimation=1;" parent="1" source="oSoFgmhYClItjlkkTBQM-66" target="Q7StzuK0vUW07h8uO97d-114" edge="1">
          <mxGeometry relative="1" as="geometry" />
        </mxCell>
        <mxCell id="oSoFgmhYClItjlkkTBQM-66" value="" style="sketch=0;points=[[0,0,0],[0.25,0,0],[0.5,0,0],[0.75,0,0],[1,0,0],[0,1,0],[0.25,1,0],[0.5,1,0],[0.75,1,0],[1,1,0],[0,0.25,0],[0,0.5,0],[0,0.75,0],[1,0.25,0],[1,0.5,0],[1,0.75,0]];outlineConnect=0;fontColor=#232F3E;fillColor=#7AA116;strokeColor=#ffffff;dashed=0;verticalLabelPosition=bottom;verticalAlign=top;align=center;html=1;fontSize=12;fontStyle=0;aspect=fixed;shape=mxgraph.aws4.resourceIcon;resIcon=mxgraph.aws4.s3;" parent="1" vertex="1">
          <mxGeometry x="840" y="1705" width="78" height="78" as="geometry" />
        </mxCell>
        <mxCell id="oSoFgmhYClItjlkkTBQM-81" style="edgeStyle=orthogonalEdgeStyle;rounded=0;orthogonalLoop=1;jettySize=auto;html=1;entryX=0.5;entryY=0;entryDx=0;entryDy=0;entryPerimeter=0;flowAnimation=1;" parent="1" source="oSoFgmhYClItjlkkTBQM-44" target="oSoFgmhYClItjlkkTBQM-37" edge="1">
          <mxGeometry relative="1" as="geometry" />
        </mxCell>
        <mxCell id="oSoFgmhYClItjlkkTBQM-103" value="" style="sketch=0;outlineConnect=0;fontColor=#232F3E;gradientColor=none;fillColor=#8C4FFF;strokeColor=none;dashed=0;verticalLabelPosition=bottom;verticalAlign=top;align=center;html=1;fontSize=12;fontStyle=0;aspect=fixed;pointerEvents=1;shape=mxgraph.aws4.elastic_network_interface;" parent="1" vertex="1">
          <mxGeometry x="827.5" y="870" width="53" height="53" as="geometry" />
        </mxCell>
        <mxCell id="oSoFgmhYClItjlkkTBQM-114" value="" style="sketch=0;outlineConnect=0;fontColor=#232F3E;gradientColor=none;fillColor=#8C4FFF;strokeColor=none;dashed=0;verticalLabelPosition=bottom;verticalAlign=top;align=center;html=1;fontSize=12;fontStyle=0;aspect=fixed;pointerEvents=1;shape=mxgraph.aws4.elastic_network_interface;" parent="1" vertex="1">
          <mxGeometry x="1194.5" y="870" width="53" height="53" as="geometry" />
        </mxCell>
        <mxCell id="oSoFgmhYClItjlkkTBQM-125" style="edgeStyle=orthogonalEdgeStyle;rounded=0;orthogonalLoop=1;jettySize=auto;html=1;flowAnimation=1;" parent="1" source="oSoFgmhYClItjlkkTBQM-115" target="oSoFgmhYClItjlkkTBQM-117" edge="1">
          <mxGeometry relative="1" as="geometry" />
        </mxCell>
        <mxCell id="oSoFgmhYClItjlkkTBQM-115" value="" style="sketch=0;outlineConnect=0;fontColor=#232F3E;gradientColor=none;fillColor=#8C4FFF;strokeColor=none;dashed=0;verticalLabelPosition=bottom;verticalAlign=top;align=center;html=1;fontSize=12;fontStyle=0;aspect=fixed;pointerEvents=1;shape=mxgraph.aws4.elastic_network_interface;" parent="1" vertex="1">
          <mxGeometry x="547" y="870" width="53" height="53" as="geometry" />
        </mxCell>
        <mxCell id="oSoFgmhYClItjlkkTBQM-116" value="" style="sketch=0;outlineConnect=0;fontColor=#232F3E;gradientColor=none;fillColor=#8C4FFF;strokeColor=none;dashed=0;verticalLabelPosition=bottom;verticalAlign=top;align=center;html=1;fontSize=12;fontStyle=0;aspect=fixed;pointerEvents=1;shape=mxgraph.aws4.elastic_network_interface;" parent="1" vertex="1">
          <mxGeometry x="395.84000000000003" y="870" width="53" height="53" as="geometry" />
        </mxCell>
        <mxCell id="oSoFgmhYClItjlkkTBQM-117" value="" style="sketch=0;points=[[0.5,0,0],[1,0.5,0],[0.5,1,0],[0,0.5,0],[0.145,0.145,0],[0.8555,0.145,0],[0.855,0.8555,0],[0.145,0.855,0]];verticalLabelPosition=bottom;html=1;verticalAlign=top;aspect=fixed;align=center;pointerEvents=1;shape=mxgraph.cisco19.rect;prIcon=router;fillColor=#FAFAFA;strokeColor=#005073;" parent="1" vertex="1">
          <mxGeometry x="470" y="1096" width="50" height="50" as="geometry" />
        </mxCell>
        <mxCell id="oSoFgmhYClItjlkkTBQM-128" style="edgeStyle=orthogonalEdgeStyle;rounded=0;orthogonalLoop=1;jettySize=auto;html=1;exitX=0.5;exitY=1;exitDx=0;exitDy=0;exitPerimeter=0;flowAnimation=1;" parent="1" source="oSoFgmhYClItjlkkTBQM-118" target="oSoFgmhYClItjlkkTBQM-14" edge="1">
          <mxGeometry relative="1" as="geometry" />
        </mxCell>
        <mxCell id="oSoFgmhYClItjlkkTBQM-118" value="" style="sketch=0;points=[[0.5,0,0],[1,0.5,0],[0.5,1,0],[0,0.5,0],[0.145,0.145,0],[0.8555,0.145,0],[0.855,0.8555,0],[0.145,0.855,0]];verticalLabelPosition=bottom;html=1;verticalAlign=top;aspect=fixed;align=center;pointerEvents=1;shape=mxgraph.cisco19.rect;prIcon=router;fillColor=#FAFAFA;strokeColor=#005073;" parent="1" vertex="1">
          <mxGeometry x="825" y="1096" width="50" height="50" as="geometry" />
        </mxCell>
        <mxCell id="oSoFgmhYClItjlkkTBQM-119" value="" style="sketch=0;points=[[0.5,0,0],[1,0.5,0],[0.5,1,0],[0,0.5,0],[0.145,0.145,0],[0.8555,0.145,0],[0.855,0.8555,0],[0.145,0.855,0]];verticalLabelPosition=bottom;html=1;verticalAlign=top;aspect=fixed;align=center;pointerEvents=1;shape=mxgraph.cisco19.rect;prIcon=router;fillColor=#FAFAFA;strokeColor=#005073;" parent="1" vertex="1">
          <mxGeometry x="1197.5" y="1096" width="50" height="50" as="geometry" />
        </mxCell>
        <mxCell id="oSoFgmhYClItjlkkTBQM-120" style="edgeStyle=orthogonalEdgeStyle;rounded=0;orthogonalLoop=1;jettySize=auto;html=1;exitX=1;exitY=0.5;exitDx=0;exitDy=0;exitPerimeter=0;entryX=0;entryY=0.5;entryDx=0;entryDy=0;entryPerimeter=0;flowAnimation=1;" parent="1" source="oSoFgmhYClItjlkkTBQM-117" target="oSoFgmhYClItjlkkTBQM-118" edge="1">
          <mxGeometry relative="1" as="geometry" />
        </mxCell>
        <mxCell id="oSoFgmhYClItjlkkTBQM-123" style="edgeStyle=orthogonalEdgeStyle;rounded=0;orthogonalLoop=1;jettySize=auto;html=1;entryX=0;entryY=0.5;entryDx=0;entryDy=0;entryPerimeter=0;flowAnimation=1;" parent="1" source="oSoFgmhYClItjlkkTBQM-118" target="oSoFgmhYClItjlkkTBQM-119" edge="1">
          <mxGeometry relative="1" as="geometry">
            <Array as="points">
              <mxPoint x="1104" y="1121" />
              <mxPoint x="1104" y="1121" />
            </Array>
          </mxGeometry>
        </mxCell>
        <mxCell id="oSoFgmhYClItjlkkTBQM-124" style="edgeStyle=orthogonalEdgeStyle;rounded=0;orthogonalLoop=1;jettySize=auto;html=1;entryX=0.5;entryY=0;entryDx=0;entryDy=0;entryPerimeter=0;flowAnimation=1;" parent="1" source="oSoFgmhYClItjlkkTBQM-116" target="oSoFgmhYClItjlkkTBQM-117" edge="1">
          <mxGeometry relative="1" as="geometry" />
        </mxCell>
        <mxCell id="oSoFgmhYClItjlkkTBQM-35" value="" style="outlineConnect=0;dashed=0;verticalLabelPosition=bottom;verticalAlign=top;align=center;html=1;shape=mxgraph.aws3.lambda_function;fillColor=#F58534;gradientColor=none;" parent="1" vertex="1">
          <mxGeometry x="812.33" y="759.74" width="76.67" height="80" as="geometry" />
        </mxCell>
        <mxCell id="oSoFgmhYClItjlkkTBQM-133" style="edgeStyle=orthogonalEdgeStyle;rounded=0;orthogonalLoop=1;jettySize=auto;html=1;entryX=0.5;entryY=0;entryDx=0;entryDy=0;entryPerimeter=0;flowAnimation=1;" parent="1" source="oSoFgmhYClItjlkkTBQM-114" target="oSoFgmhYClItjlkkTBQM-119" edge="1">
          <mxGeometry relative="1" as="geometry" />
        </mxCell>
        <mxCell id="oSoFgmhYClItjlkkTBQM-134" style="edgeStyle=orthogonalEdgeStyle;rounded=0;orthogonalLoop=1;jettySize=auto;html=1;entryX=0.571;entryY=0.394;entryDx=0;entryDy=0;entryPerimeter=0;flowAnimation=1;" parent="1" source="oSoFgmhYClItjlkkTBQM-103" target="oSoFgmhYClItjlkkTBQM-118" edge="1">
          <mxGeometry relative="1" as="geometry" />
        </mxCell>
        <mxCell id="oSoFgmhYClItjlkkTBQM-137" style="edgeStyle=orthogonalEdgeStyle;rounded=0;orthogonalLoop=1;jettySize=auto;html=1;exitX=0;exitY=0.5;exitDx=0;exitDy=0;entryX=1;entryY=0.22;entryDx=0;entryDy=0;entryPerimeter=0;flowAnimation=1;" parent="1" source="Q7StzuK0vUW07h8uO97d-54" target="oSoFgmhYClItjlkkTBQM-10" edge="1">
          <mxGeometry relative="1" as="geometry">
            <Array as="points">
              <mxPoint x="1505" y="1270" />
              <mxPoint x="1165" y="1270" />
            </Array>
          </mxGeometry>
        </mxCell>
        <mxCell id="oSoFgmhYClItjlkkTBQM-138" style="edgeStyle=orthogonalEdgeStyle;rounded=0;orthogonalLoop=1;jettySize=auto;html=1;entryX=1;entryY=0.78;entryDx=0;entryDy=0;entryPerimeter=0;flowAnimation=1;" parent="1" source="oSoFgmhYClItjlkkTBQM-5" target="oSoFgmhYClItjlkkTBQM-10" edge="1">
          <mxGeometry relative="1" as="geometry" />
        </mxCell>
        <mxCell id="oSoFgmhYClItjlkkTBQM-141" style="edgeStyle=orthogonalEdgeStyle;rounded=0;orthogonalLoop=1;jettySize=auto;html=1;entryX=1;entryY=0.5;entryDx=0;entryDy=0;entryPerimeter=0;flowAnimation=1;" parent="1" source="oSoFgmhYClItjlkkTBQM-10" target="oSoFgmhYClItjlkkTBQM-44" edge="1">
          <mxGeometry relative="1" as="geometry" />
        </mxCell>
        <mxCell id="oSoFgmhYClItjlkkTBQM-149" style="edgeStyle=orthogonalEdgeStyle;rounded=0;orthogonalLoop=1;jettySize=auto;html=1;exitX=0.5;exitY=0;exitDx=0;exitDy=0;exitPerimeter=0;entryX=0;entryY=0.5;entryDx=0;entryDy=0;entryPerimeter=0;flowAnimation=1;" parent="1" source="oSoFgmhYClItjlkkTBQM-43" target="oSoFgmhYClItjlkkTBQM-118" edge="1">
          <mxGeometry relative="1" as="geometry">
            <Array as="points">
              <mxPoint x="524" y="1705" />
              <mxPoint x="524" y="1281" />
              <mxPoint x="695" y="1281" />
              <mxPoint x="695" y="1121" />
            </Array>
          </mxGeometry>
        </mxCell>
        <mxCell id="oSoFgmhYClItjlkkTBQM-150" style="edgeStyle=orthogonalEdgeStyle;rounded=0;orthogonalLoop=1;jettySize=auto;html=1;exitX=0;exitY=0.5;exitDx=0;exitDy=0;exitPerimeter=0;entryX=1;entryY=0.5;entryDx=0;entryDy=0;entryPerimeter=0;flowAnimation=1;" parent="1" source="oSoFgmhYClItjlkkTBQM-6" target="oSoFgmhYClItjlkkTBQM-10" edge="1">
          <mxGeometry relative="1" as="geometry" />
        </mxCell>
      </root>
    </mxGraphModel>
  </diagram>
</mxfile>
